<svg xmlns="http://www.w3.org/2000/svg" viewBox="0 0 1763.89 1833.38"><defs><style>.cls-1{fill:#f8f8f3;}.cls-2{fill:#f7e267;}.cls-3{fill:#7e8f17;}</style></defs><g id="Layer_2" data-name="Layer 2"><g id="Choice_of_food" data-name="Choice of food"><path id="background" class="cls-1" d="M1156.63,1152.61q-5.67.54-11,.76c-8.25.35-10.12,11.73-2.43,14.73l92.35,36.06a7.58,7.58,0,0,1,1.68.91,229.66,229.66,0,0,1,18.44,14.82c38.87,34.66,59.42,76.89,79.37,138.27,15.09,46.45,32.76,112.84,42.93,196.78a7.62,7.62,0,0,1-5.16,8.14l-64.24,21.41a7.64,7.64,0,0,0-5.2,6.66c-3.87,50.93-19.6,156.77-97.68,204.5-28.86,17.64-56.17,21.18-72.09,23.07-151,17.88-360.6,15.09-440.23,13.45-43.51-1.71-79.88-4.39-106.69-6.73-86.48-7.52-108.59-14.52-128.56-26.06-28.19-16.29-46.1-38.16-56.56-53.63a7.61,7.61,0,0,0-3.59-2.84c-19.42-7.36-50.51-22-74-48.9-13.66-15.64-17-26.58-18-34.85-1.52-13.26,2.68-23.9,5.77-31.72a95.43,95.43,0,0,1,23.56-34.35,7.7,7.7,0,0,0,2.43-5.49c1.2-82.67,20.1-143.61,36.25-182.6,13.67-33,28.92-58.22,58.87-107.25,38.09-62.39,72.44-112.32,97.35-147.06a7.89,7.89,0,0,0,1.06-2.11q4.47-13.92,9-27.86a7.64,7.64,0,0,0-8.54-9.86c-31.37,5.08-63.31-8.53-80.56-35.15-16.61-25.63-16.55-58.6-1.23-84.57a7.63,7.63,0,0,0-8.58-11.28c-7.72,2.13-16.35,4.34-25.75,6.46-16.79,3.78-76.17,17.17-134.57,13.46-26.54-1.69-130.81-8.33-207.62-91.32-48.44-52.33-63-110.23-67.28-130.72C-13,686.33,11.6,569.15,98.35,503.8c30.86-23.25,63-35,89.1-41.11a7.63,7.63,0,0,0,.36-14.76l-.39-.11C134,432.55,120.17,435.29,108,422.1c-15.3-16.55-14.35-43.21-9.61-59.6,10.32-35.69,46.29-49.29,55.75-52.86,47.28-17.88,94.19,6.67,115.78,21a7.63,7.63,0,0,0,11.83-6.26,240.77,240.77,0,0,1,7-54.14C320.16,142.91,448.59,86.5,466.49,79c23.92-10.09,114.38-44.81,220.11-10.9a312.49,312.49,0,0,1,103.93,57.27,7.61,7.61,0,0,0,9.92-.18,476,476,0,0,1,113-75c49.17-23.26,223.17-95.06,399.86-8.65,129.06,63.12,243.33,202.48,237.41,348a269.23,269.23,0,0,1-5.41,43.76,7.63,7.63,0,0,0,12.58,7.21c13.35-12.14,32.34-24.93,57.23-30.78,11.94-2.81,36.23-8.51,62.48,2.88,8.62,3.75,32.79,14.24,41.33,40.37,6.1,18.67,2.92,41.32-9.61,56.71-16.37,20.13-37.22,13.77-70.17,32.69a143.54,143.54,0,0,0-37.41,31.22,7.63,7.63,0,0,0,2,11.57c28.72,16.4,79.93,51.59,117.1,115.8,14.14,24.42,55.4,98.18,39.41,193.2-1.7,10.09-26.19,144.16-128.8,190.32-115.45,51.94-254.48-41.29-336.29,12.82a369.25,369.25,0,0,1-67.4,36.22C1189.6,1149.06,1164.05,1151.9,1156.63,1152.61Z"/><g id="color"><path class="cls-2" d="M282.71,449.31c-12.06,6.87-30.65-11.63-51.52-24.09-45.42-27.14-77.5-11.31-87.3-32.86-6-13.19.47-31.27,10.78-40.31,22.61-19.86,66.31,1.49,85.33,14.37,32.34,21.91,56.93,62.43,47.21,78.42A12.48,12.48,0,0,1,282.71,449.31Z"/><path class="cls-2" d="M1588.21,535.21c-13,11.43-30.16,29.14-37.73,24.64-2.26-1.34-2.91-4.21-3.25-6.22-4.3-25.44,16.29-55.61,16.29-55.61,9.33-13.66,25.66-37.6,56.51-46.94,9-2.73,32.67-9.9,49.06,2.8,3.39,2.63,11.18,8.66,11.55,17.14C1681.53,491.6,1637.22,492.25,1588.21,535.21Z"/><path class="cls-2" d="M525.64,939.06a545.73,545.73,0,0,1,162.5,37.44,38,38,0,0,0,14.67-.5c8-1.88,19.83-7.5,19.64-13.92a1.93,1.93,0,0,1,0-.24A314.81,314.81,0,0,1,731.13,879a43.44,43.44,0,0,0-5.84-33.83,217.07,217.07,0,0,1-16.58-30.54C691.55,775.89,688.9,739,690.22,712.05a22.9,22.9,0,0,1,26-21.55l6.34.88A13.82,13.82,0,0,0,738,675.12a260.86,260.86,0,0,1-2.69-76.34,33.49,33.49,0,0,1,49.28-25.73c15.86,8.63,32.51,17.24,49.94,25.7,23.49,11.41,46.27,21.54,68.12,30.54a6.7,6.7,0,0,0,9.14-7.35l-3.33-19.15a12.64,12.64,0,0,1,17-13.95c84.62,32.74,142.46,75.16,176.81,104.5C1187,765.67,1196.87,816.6,1199,831.71c3.93,27.7-.47,53.88-.47,53.88-5,30.1-17.23,52.44-30.64,77-4,7.29-7.82,13.81-11.32,19.47a65.56,65.56,0,0,0-9.51,30.08,107.21,107.21,0,0,1-56.9,88.12,8.63,8.63,0,0,0,2.51,16,198,198,0,0,0,63.83,2.15c54.71-7.28,86-35.55,112.84-52.89,113.41-73.23,245,45.49,362.71-30.89C1697.74,992.1,1728,906.48,1725.3,837c-3.37-87.63-58.51-144.88-75.45-162.46-38.7-40.16-83.25-61.92-121.64-73.74-39.65-12.21-60.9-55.15-47.29-94.35a329,329,0,0,0,18.42-104c2-154.09-106.73-251.09-124.71-266.6C1244.27,23.43,1042,19.83,911.55,111.9a326.44,326.44,0,0,0-52.77,46.6c-29,31.77-77.94,35.08-111.29,7.89-52.08-42.45-118.67-64.6-186.8-59.55-92.48,6.85-189.3,63.9-225,165-20.8,58.91-14.13,113.78-.66,156.12,10.21,32.09-15,64.63-48.64,62.85-41.95-2.23-93.22,4.93-142.16,37.8C61.86,583.91,27.43,684.39,45.08,770.87,67.19,879.22,166.89,942.86,243,960.8,339.89,983.62,384.32,929.09,525.64,939.06Zm822.18-104.5c-43.27-48.44-49.72-44.76-57.86-61.89-12.51-26.33-12.13-66.32,11.21-94.06,25.64-30.49,65.32-29.92,74.22-29.51C1416.12,651,1443.2,679,1457,693.34c36.1,37.4,23.38,57.72,54.92,87,37.45,34.72,66.38,16.27,92.91,47.45,28.67,33.71,30.73,97.41-.61,131-20.21,21.69-48.84,25-76.28,28.23-18.56,2.16-49.19,5.73-82.38-10.68-9.76-4.83-37.69-18.64-51.87-48.06-9.85-20.42-4-29.45-16-54.16C1373.83,866.23,1368.76,858,1347.82,834.56ZM958,342.09l-69.89-22.21a23.82,23.82,0,0,1-15.45-30q5.46-17,10.94-33.92A23.79,23.79,0,0,1,914.71,241l88.08,33.61,17.38,7.75,9.94-10.7-15.52-15.28-44.25-44.28a21.7,21.7,0,0,1,1-31.62l27.55-24.19a21.64,21.64,0,0,1,31.07,2.61l104.59,128.63,29.52-11.6a81.31,81.31,0,0,1,44.91-4.21L1300.35,289a41.64,41.64,0,0,1,33.21,33.49l33.72,185.64a29.85,29.85,0,0,1-15.48,31.76l-112.2,58.9a43.43,43.43,0,0,1-30,3.86l-91.46-21.17a46,46,0,0,1-29.78-22.39q-56.89-101.74-113.77-203.49A29.15,29.15,0,0,0,958,342.09ZM498.76,452.2a101,101,0,0,0-33.15-4.9,70.37,70.37,0,0,1-29.6-5.68c-28.81-12.54-48.42-45.12-43.86-72.85,2.2-13.38,9.74-23.84,16.86-33.71a130.65,130.65,0,0,1,26.62-27.31c49.1-38.41,55.58-90.74,110-113.71,11.26-4.75,35.27-14.88,60.84-5.29,23.39,8.77,35.74,29.39,41.31,41.65A55.38,55.38,0,0,0,659,246.55c30.46,30.72,81.38,85.37,119.4,145.56,3.1,4.91,30.06,48.55,22.64,83.45-1.22,5.7-3.81,17.89-14.49,27.08a43.7,43.7,0,0,1-23.26,9.92c-31.55-4.3-64.55-9.8-98.78-16.78A1532.55,1532.55,0,0,1,498.76,452.2ZM180.36,674.86,212.73,638A36.93,36.93,0,0,1,265,634.7l12.17,10.79a226,226,0,0,1,69.34-37.39c20.09-6.6,99.77-32.76,153.67,10,25.2,20,34.72,47,43.93,73.25,9.38,26.67,20.44,58.14,9.46,89.41-11.82,33.67-42.75,48.72-84.23,68.92,0,0-82.16,40-171.73,25.38-14.58-2.38-26-5.77-36.43-14-16.53-13-22.68-31.78-32.93-64.37-4.27-13.61-7.27-25.64-9.38-35.27a22.4,22.4,0,0,0-7.9-12.68L185.05,728A36.91,36.91,0,0,1,180.36,674.86Z"/><path class="cls-2" d="M572.21,1039c-41.07,18-55.11,28.31-65.91,21.08-8.66-5.79-11-20-8.5-30.36,7.19-30,58-43.56,95.19-40,17.83,1.7,44.11,8.45,44.57,17.81C638,1015.44,619.26,1018.29,572.21,1039Z"/><path class="cls-2" d="M617.57,1409q5-16,10-32l30.15,17q-1,21.11-2.08,42.2Z"/><path class="cls-2" d="M903.68,1264.65c-9.29.3-26.79.87-43.47-10.16C839.78,1241,834,1219,832.42,1213a79.39,79.39,0,0,1,2.35-47l11.74-.78c-.41,8.15-1.11,40.28,20.74,58.71,32,27,84.19.94,94.7-4.3,27.47-13.7,43.42-34.28,51-45.62l9.27,15.19C1014.32,1199.32,963.68,1262.7,903.68,1264.65Z"/><path class="cls-2" d="M378.11,1671.51l72.36,27.43,47.3,17.93a157.12,157.12,0,0,0,18.5-.2s9-.63,17.7-2.24c27.69-5.14,76.29-32.47,76.13-46.23a14.05,14.05,0,0,0-2.14-7.3,13.31,13.31,0,0,0-7.53-5c-18.53-7.17-33.5-13-43.42-16.83,0,0-45.05-17.49-86.18-33.54l-1.14-.45-14.58-5.66c-4.84-1.88-10.46-1.2-14.05,1.69l-11.92,9.58-55.39,44.56C367.8,1660.09,370,1668.46,378.11,1671.51Zm91.26-44.15c-1.15,5.51-7.72,8.8-14.66,7.34s-11.63-7.1-10.48-12.61,7.72-8.8,14.66-7.34S470.52,1621.85,469.37,1627.36Zm-28.62,28.87h0Zm-14.31-4.74h0Z"/><path class="cls-2" d="M1157.93,1523.9a274.13,274.13,0,0,1-73.59-26.09q2.36-18,4.7-36a267.89,267.89,0,0,0,47,18c20.66,5.76,76.56,18.64,141.68.7,9.19-2.53,16.56-5.12,21.3-6.89l9.55,38.39c-4.5,1.6-10.91,3.77-18.72,6C1224.68,1536.23,1170.49,1526.41,1157.93,1523.9Z"/></g><g id="line"><path class="cls-3" d="M1389.53,824.92c4.6,1.57,14.48,5,24.51,1.15,4.72-1.8,8-4.64,13.22-9.16a110.78,110.78,0,0,0,15.26-16.27c8,.77,17,.08,22.37-5.59,12.82-13.64-3-48.15-16.27-67.13-26-37.14-77.84-65.45-103-49.07-6.2,4-9.66,10.07-11.69,15a57.81,57.81,0,0,0-9.67,5.85s-10.55,7.88-16.52,19.07C1293.91,744.71,1356.92,813.76,1389.53,824.92Zm-33.47-99.59q-7.29,7.3-14.74,15.3-5.74,6.18-11.07,12.23A37.28,37.28,0,0,1,1319.88,736c-1-3.52-1.75-6.34-.94-9.83,1-4,3.37-6.22,12-14.49,3.91-3.76,6.9-6.67,8.14-7.89Zm69.18-10.67a106.49,106.49,0,0,0-37.76-1.79,104.87,104.87,0,0,0-17.74,4c-2.06-2.56-5.08-6.27-8.83-10.66-7.68-9-10-10.91-9.42-13.33,1-4.56,11.11-6.32,17.28-6.55,12.1-.45,21.31,4.55,31.28,10.11A132.72,132.72,0,0,1,1425.24,714.66Zm-4.76,70c-4.09-1.61-6.53-4.19-13.2-13.07-4.37-5.83-10.06-13.71-16.42-23.42a106.7,106.7,0,0,1,55,.37,88,88,0,0,1,8.55,20c2.2,7.66,3.65,12.92,1,15.86-1.88,2.07-4.32,1.4-15.84,1.17C1425.48,785.26,1424.31,786.18,1420.48,784.66ZM1354,781.15a140.51,140.51,0,0,1,24.16-26c5.81,9.48,11.28,17.32,15.76,23.39,9.82,13.29,14.76,17.84,21.61,20.09a29.43,29.43,0,0,0,9,1.42c-1.65,3.07-7.91,13.9-18.81,15.57-3,.46-8.62.56-23.33-9.37A149.69,149.69,0,0,1,1354,781.15Z"/><path class="cls-3" d="M1420.47,878.93c-.84,3.71-7.13,33.61,11.37,56.47a60.28,60.28,0,0,0,22.37,16.78c31.61,14.81,75.1,7.22,101.7.14A55.87,55.87,0,0,0,1596,911.5l.12-.51c5.15-22.19,1.33-52.27-18.48-69.29-10.51-9-24.07-10.89-51.19-14.62-30.58-4.2-45.88-6.3-62.36.65C1445.1,835.74,1426.17,853.78,1420.47,878.93Zm46-35.57c23.58-8.07,51.13,2.39,63.68,24.64,10.74,19,9,43.92-5.71,60.79-18.59,21.38-46.9,17.25-49.37,16.85-2-.32-29.41-5.25-40.13-29.06C1423.27,890.78,1436.18,853.69,1466.42,843.36Z"/><path class="cls-3" d="M1497.31,919.89h0c29.43-9.89,17.59-57.78-12.77-54.77h0C1433.8,863.53,1450.89,939.63,1497.31,919.89Zm-29.2-34.47a13.71,13.71,0,0,1,6.83-6c6.88-2.5,13.43,2.58,14.49,3.43,6.61,5.34,6.71,13.62,6.71,14.84-4.88.48-11.18,1.84-13.12,6.15-1.75,3.9,1.06,8-.84,9.53s-7.6-1-11.06-4.58C1465.48,903,1463.69,892.63,1468.11,885.42Z"/><path class="cls-3" d="M929.05,307,1071.73,353l-40,16.05a7.11,7.11,0,0,0-3.53,10.12l94.44,165.75a15.55,15.55,0,0,0,10,7.46l79.75,18.29a21,21,0,0,0,14-1.67l102.89-51.29a11.79,11.79,0,0,0,6.33-12.68q-15.44-83.86-30.88-167.71a18.19,18.19,0,0,0-14.7-14.62l-92-16.42a24.06,24.06,0,0,0-13.19,1.36l-50.35,20.19L1029,199.8a6,6,0,0,0-8.57-.69l-6.67,5.88a6,6,0,0,0-.5,8.5L1120.9,333.23l-28.68,11.5L935.81,287.12a6,6,0,0,0-7.8,3.75q-1.43,4.26-2.83,8.53A6,6,0,0,0,929.05,307Zm343.25,30.19-56.17,22.6-15-40,71,14.69A1.44,1.44,0,0,1,1272.3,337.22Zm-120.8,66.14,137.1-55.9,32,153.37a5.4,5.4,0,0,1-2.95,6l-90.33,43.55a5.53,5.53,0,0,1-7.41-2.61Q1185.69,475.56,1151.5,403.36Zm-8.83,96.84,49,50.53L1143,539.88Zm-.62-77.18q27.27,55.8,54.53,111.61l-54.08-55.71Zm-75.13-.84,60.92,62.75.33,41.19Q1097.54,474.16,1066.92,422.18ZM1056,389.86l71.18,14.31.47,59.48Zm33.71-31.11,42.45,13.66a6,6,0,0,0,7.41-3.41l0-.11a6,6,0,0,0-3.47-8l-27-9.93,20.36-8.14,20.61,22.93a6,6,0,0,0,8.07.76l.09-.07a6,6,0,0,0,1-8.57l-16.71-20.27,42.64-17c.33-.13.67-.24,1-.36q8.16,22.53,16.31,45.06L1141.24,390l-87.72-15.34a.71.71,0,0,1-.14-1.35Z"/><path class="cls-3" d="M771.26,474.67c3.07-4.76,2.44-10.34,1.88-15.33a41.47,41.47,0,0,0-3.3-12.16c-29.12-64.39-80.2-120.36-80.2-120.36-24.91-27.3-49.89-50-58.1-57.41l-4.45-4c-1-3.35-7.13-22.83-27.19-32.65a54.33,54.33,0,0,0-35.08-3.7c-14,3.36-22.88,11.82-28.68,17.47-52.59,51.24-51,68.46-83.73,92.11-11,7.9-20.4,12.67-24.41,24.48-4.72,13.94.12,31.65,11.7,42.9,17.91,17.41,44,11.27,45.89,10.78a1587.57,1587.57,0,0,0,170.13,47.14c34.4,7.5,67.55,13.53,99.26,18.36C756.39,482.28,766.54,482,771.26,474.67Zm-260.8-76.23q93.62,21.8,192.25,50.75,27.93,8.26,55.17,16.82a7.49,7.49,0,0,1-4.6,4.3,7.14,7.14,0,0,1-4.45-.19c-41.55-7.83-85.05-17.17-130.21-28.34-41.51-10.26-81-21.23-118.54-32.59Zm95.58-140a24.56,24.56,0,0,1,2.47,12,234,234,0,0,0-52.76,44.84c-40,46.21-52.15,63.51-52.15,63.51-5.15,7.36-13.82,20.2-28.34,22.87-2.25.42-12.09,2-20.88-4s-14.88-18.35-11.14-23.9c3.63-5.36,16.73-4.88,25.06-2.46,5.06,1.47,8.22,3.62,11.44,2,3.5-1.78,5.62-7.29,4.23-10.5-1.17-2.72-6.39-7.31-35.56-2.93a174.86,174.86,0,0,0,35.8-26.85c26.6-25.93,29.15-45.33,59.67-71.11,21-17.73,32.43-19.23,40.28-17.9C586.21,244.41,600.17,246.76,606,258.48Zm150.7,192.73-61.88-19.9c1.73-.74,12.06-5.37,15.34-16.33,3.52-11.73-3.33-23.05-10.31-28.48-15.49-12.06-44.78-5.36-49.6,10.31-3.58,11.61,7.5,24.15,9.2,26-26.2-8.25-53.84-16.18-82.87-23.57q-29.85-7.61-58.23-13.63c1.22-1.63,3.21-4.27,5.67-7.49,26.57-34.75,43.14-56.2,66.8-75.64a235.55,235.55,0,0,1,29.47-20.62L644.44,301c-12.79.84-23.38,9.29-26.2,20.51-4,15.93,10.12,27.75,11.79,29.1,1,.8,14.62,11.43,30.94,5.53,14.44-5.21,19-19,19.52-20.64a597.88,597.88,0,0,1,63.73,92.09Q750.9,439.54,756.74,451.21Z"/><path class="cls-3" d="M581.68,394c-9.44-.69-18.75-5.88-24.91-13.88-4.67-6.08-6.71-13-5.59-18.91,1.29-6.86,6.86-13,15.27-16.94,11.39-5.29,24.89-5.23,34.4.16,7.94,4.49,15.61,13.83,14.84,24.57-.44,6.09-3.6,12-8.91,16.56a36,36,0,0,1-22.9,8.52C583.14,394.12,582.41,394.09,581.68,394Z"/><path class="cls-3" d="M404.73,671.94c7.2,6.12,1,30.85-8.23,26.32C392.51,694.64,397.24,665.72,404.73,671.94Z"/><path class="cls-3" d="M361.11,701c1.48,5.18-17.76,27.27-20.85,18C337.36,710.06,355.6,692.27,361.11,701Z"/><path class="cls-3" d="M356.34,661.91c7.58-5.64,30.3,5.9,23.8,13.94C375.71,678.91,348.6,667.81,356.34,661.91Z"/><path class="cls-3" d="M427.08,663.92c7.58-5.64,30.3,5.9,23.8,13.93C446.45,680.92,419.34,669.82,427.08,663.92Z"/><path class="cls-3" d="M196.93,700.92c2.27,2.37,6.09,2,7.26,1.83l12.07-.62q2.18,6.86,4.34,13.71a5.23,5.23,0,0,0,8.73,2.06q15.57-16,31.13-32.06l10.32,7.91c-8.8,9.91-25.44,31.21-25.24,51.49a48,48,0,0,0,4.78,20.24,42.63,42.63,0,0,0,6.49,8.87,43.31,43.31,0,0,0,6.84,5.8,54.29,54.29,0,0,0,3.79,18,53.18,53.18,0,0,0,5,9.54,30,30,0,0,0,.17,17.67c4.05,12,15.54,17.79,19.5,19.86,6.34,3.31,13.55,5.23,40.82,4.25,15.4-.55,23.09-.83,34.16-2.37a342.19,342.19,0,0,0,88-24.88c8.59-3.85,40.71-18.69,57.74-40.95,7.69-10.06,9.33-18,8.83-25-.72-9.81-6.18-16.88-9.12-20.14a31.8,31.8,0,0,0-10.87-28,34.38,34.38,0,0,0,6.65-15.94c2-15.45-8.15-27.53-12.59-32.74-4.21-4.95-17-18.45-49.71-25.24-47.33-9.83-87,4.67-101.73,10.24-32.18,12.2-53.18,29.29-64.33,39.91L244,655.67a11.08,11.08,0,0,0-15,1.12l-33.38,36C194.15,694.3,194.67,698.57,196.93,700.92Zm87.86,108.63q11.11.38,22.89,0c49.76-1.7,92.57-14.2,126.62-28.74a44.91,44.91,0,0,0,24.05,8.47,27.21,27.21,0,0,0,7.07-.44c15.22-3.49,20.9-29.24,21.51-32.18a60.54,60.54,0,0,0,9.16-4.83c3.82-2.46,5.25-4,6.86-3.56,3.14.82,3.91,8.21,3.95,10.86.25,15.47-21.79,28.37-28.47,32C401.92,839,314.05,834.75,303.12,833.08a26,26,0,0,1-12.68-5.75c-3.5-3.07-4.49-7.59-4.87-8.9A23.63,23.63,0,0,1,284.79,809.55Zm190.14-51.43c-5.81,14.34-9.48,17.24-12.72,18.52-5.71,2.25-11.36,0-22.06-4.47a132.1,132.1,0,0,1-24.92-13.73,191.67,191.67,0,0,0,69.42-35.6A161.28,161.28,0,0,1,474.93,758.12Zm-192.7-55.58,17.09,13.12,8.64-8.94-16.38-13.08a216.17,216.17,0,0,1,35.09-25.25c-1.22,7.16.61,16.63,5.41,19.16,7.29,3.75,7.27-16.38,4.29-24.44,5.93-3,9.57-4.49,9.57-4.49a202.88,202.88,0,0,1,25.23-8.29c6.27-1.6,12.35-2.81,18.23-3.7,3,5.78,21.18,12.45,24.74,10,3.15-3.9-.58-8.62-6.13-11.81,26.65-1.14,47.38,4.36,58.85,10.34a48,48,0,0,1,14.93,11.57c5,5.91,8.49,13,9.2,17.14C494.29,703,450.57,726,435.31,734a294.41,294.41,0,0,1-114.22,33.48c-42.55,3.4-54.22-5.09-58.2-11.79a32.36,32.36,0,0,1-4.09-16.39c.43-7.78,4.15-13.52,6.84-17.23A171.29,171.29,0,0,1,282.23,702.54Zm-69.13-13.6,23.22-23.14,16,13.71L230,702a1.36,1.36,0,0,1-2.27-.56l-3-9.8L214,691.26A1.35,1.35,0,0,1,213.1,688.94Z"/><path class="cls-3" d="M1056.89,982.7c5.14.85,13.75,4,14.41,9.44a6.77,6.77,0,0,1-2.87,6.29c-3.6,2.27-7.2-1.55-14.76-1.33-5.18.15-12,2.18-12.79,5.58-.72,3.24,4.81,4.52,6.78,10.61,1.87,5.8-.21,13.73-5.64,16.58a11.31,11.31,0,0,1-8.94.42c-.58-.25-4.37-1.93-4.77-4.92s3.06-4.1,4.07-7.34c1.85-5.93-7.48-9.84-7.83-16.39C1024,992.32,1041.89,980.21,1056.89,982.7Z"/><path class="cls-3" d="M1007,897.15c-10.16,7.4-29.22-3-41.26-9.76-10-5.58-24.85-13.84-24.22-24.13a8.78,8.78,0,0,1,2-5.54c10.79-11.67,69.21,11.06,68.71,30.22C1012.1,893.32,1007.36,896.88,1007,897.15Z"/><path class="cls-3" d="M838.63,872.19c-10.16.18-20.11,7.67-24.09,17.27-3.59,8.64-3.83,22.75,5.25,27.95,7.94,4.55,18.93.21,24.94-5.25a25.36,25.36,0,0,0,7.94-16.4,61.55,61.55,0,0,1,6,19.23,58.5,58.5,0,0,1,.5,6.35,5.41,5.41,0,0,0,4.15,5.52,5.62,5.62,0,0,0,6.6-3.92,40.07,40.07,0,0,0,.9-12.23C869.37,894,856.41,871.87,838.63,872.19Zm-1.17,14.62c3.68,1.9,3.74,9.67.51,14.64-2.84,4.38-9,7.78-12.31,6-3.68-2-3.45-10.47.51-15.59C828.86,888.35,834.22,885.15,837.46,886.81Z"/><path class="cls-3" d="M952.51,907.23c-10.64.19-21,8-25.22,18.06-3.75,9.05-4,23.81,5.5,29.25,8.31,4.76,19.81.22,26.1-5.5a26.53,26.53,0,0,0,8.3-17.15A64,64,0,0,1,973.42,952a59.32,59.32,0,0,1,.53,6.65,5.67,5.67,0,0,0,4.34,5.78,5.87,5.87,0,0,0,6.9-4.11,41.57,41.57,0,0,0,.94-12.79C984.66,930,971.11,906.89,952.51,907.23Zm-1.24,15.3c3.86,2,3.92,10.11.54,15.31-3,4.59-9.44,8.14-12.87,6.24-3.86-2.13-3.62-11,.53-16.32C942.28,924.13,947.89,920.79,951.27,922.53Z"/><path class="cls-3" d="M887.39,954.87a10.28,10.28,0,0,1-11.44,6l-21.65-4.09A2,2,0,0,0,852,959.4l8.58,21.18a7.66,7.66,0,0,1-5.48,10.28l-.17,0a8.11,8.11,0,0,1-9.65-5.13q-6.48-19.32-13-38.63c-1.78-5.29,3.14-10.39,8.76-9.09l29.71,6.89a4.32,4.32,0,0,0,4.93-2.36q12.86-28.55,25.72-57.1a7.09,7.09,0,0,1,9.45-3.36,6.62,6.62,0,0,1,3.46,8.58Z"/><path class="cls-3" d="M888.53,850.18c-5.76,5.34-15.57,3.52-23.09,2-17.33-3.44-40.56-13.85-39.43-23.79a8,8,0,0,1,2.45-4.59c12.93-13.44,62.33,1.36,64.06,17.06C893.07,845.86,888.73,850,888.53,850.18Z"/><path class="cls-3" d="M907.1,1030.15c-24.41,8-50.81,2.19-51.33-2.39a3.8,3.8,0,0,1,.7-2.35c1.52-2.15,5-2.08,5.89-2.22,16.2-2.5,34.35.82,45.8-14,3.49-4.87,11-1.86,15.51,3.18a7.61,7.61,0,0,1,2.23,4.72C925.91,1024,910.66,1029,907.1,1030.15Z"/><path class="cls-3" d="M364.5,1680.85,449.42,1716a36,36,0,0,0-.32,14.47c4.77,25,36.89,37.1,45.41,40.31a102.39,102.39,0,0,0,21.39,5.6c45.25,6.26,143.77,3.14,160.93,2.57,25.95,1.41,47.71,2.65,63.61,3.57,0,0,322.83,18.69,430.68-24.94a94.36,94.36,0,0,0,24.91-15.28,112.59,112.59,0,0,0,18.17-20.74c11.85-17.64,36.5-99.56,52.47-175.83,7.47-1.37,15.42-3.15,23.75-5.48a269.14,269.14,0,0,0,41.81-15.52c-10.79-43.6-18.55-75.41-21.92-89.24-13.09-53.77-33.92-140.08-71.94-174.35a95.49,95.49,0,0,0-19.4-13.37,84.76,84.76,0,0,0-20.69-7.14l-162.08-61.08c-6.18-9.58-21.84-36.72-18.71-72.89a112.75,112.75,0,0,1,12.85-43.16h0a60.4,60.4,0,0,0,8.9-.08c36-3,70.58-38.73,67-71-.67-5.94-2.85-13.69-9-22.26a356.31,356.31,0,0,0,29.95-41.24c12.62-20.31,20.67-33.53,24.86-52.91.6-2.78,4.24-20.22,1.87-38.75-4.06-31.58-24.39-54.62-51.6-81.24-62-60.66-140.82-115.3-149.24-106.55-.75.78-.44,3.28.18,8.28,2,16.09,9.28,23.34,5.49,30.59,0,0-.64,5-3.57,4-26.22-9.21-54.39-20.33-83.9-33.82-30.71-14-58.41-28.6-83.08-42.84-4.1-3.31-8-1.67-11.57,3.19a159,159,0,0,0,4.08,53,162.38,162.38,0,0,0,20.89,48.2,6.17,6.17,0,0,1-4.07,9.36,102.79,102.79,0,0,1-56.23-3.67c-4.64-1.65-9.48,2-9,6.68,2,19.23,6.73,47.11,16.89,64.37a226.31,226.31,0,0,0,33,43.12c-3.63,9.78-7,20.13-9.89,31-14.79,55.37-13.59,106.52-7.24,147.91l-15.12,10.75h0A57.08,57.08,0,0,0,714,1040.41c-2-.79-17-6.35-29.51,1.9a27.34,27.34,0,0,0-8,8.19,33.52,33.52,0,0,0-10.52-3.27c-36.7-4.93-70.4,55.82-74,62.47a166.75,166.75,0,0,0-17.91,53.3c-18.72,32.17-53.91,92.83-99.05,171.73-45.05,78.73-75.13,132.6-82.19,207.7-3.1,32.91-.35,54.87,6.23,70.64l-45,37.71a18.05,18.05,0,0,0-3.86,9.92C349.79,1668.71,355.44,1676.72,364.5,1680.85ZM694,1096.73c5.86,16.82,8.79,25.23,4.19,32.67-5.64,9.12-18.36,10.55-23,10.21a10,10,0,0,1-6.46-2.36,9,9,0,0,1-2.62-5c-.67-5.35,5.82-6.75,7.83-13.33,1.88-6.12-1.54-12.13-5.77-19.58-2.33-4.09-4.38-7.6-7.34-7.66-3.43-.08-6.08,4.56-6.79,5.8-8.23,14.42,6.12,30.57,2.44,57.76a71,71,0,0,1-1.72,8.57,30.9,30.9,0,0,0,10-1.24,32.08,32.08,0,0,0,14.67-9.43,36,36,0,0,0,17.07-4,35.55,35.55,0,0,0,8.89-6.55,34.16,34.16,0,0,0,24.09-3.51,33.24,33.24,0,0,0,12.63-13.09,34.77,34.77,0,0,0,24.79-4.68,34.18,34.18,0,0,0,13.1-15.91,29.83,29.83,0,0,0,20.52-4.27l14.26,6.73a168.44,168.44,0,0,0-23.22,17.33c-20,17.84-45.38,49.57-54,56.37a132.81,132.81,0,0,1-12.76,9.24c-23.09,14.47-46.33,17.77-61.4,18.41l-92.37,284c-1.64,5.44.27,10.65,3.43,12.19,3.84,1.87,10.93-1,13.14-8.4l23.55-69.93,45.24,32.4c.25,10.54.86,21.68,1.92,33.35q1.17,12.64,2.83,24.28c-6.22,9-29.45,42-62.93,71.13l-1.58-.57c-17.6-6.72-25.48-13.67-33-9.87-9.5,4.76-11.14,24.35-7.4,40.25-1.72,1-3.45,1.86-5.19,2.75l-81.73-31.23c-3.27-1.82-22.08-11.87-37.11-3.59a25.28,25.28,0,0,0-5.14,3.76l-10.32,8.64c-6.79-17.88-5.28-38.78-2.87-56.49,11.55-84.93,51-151.92,78.54-199.36,22-37.91,56-97.33,98-173.77a175.58,175.58,0,0,1,17.21-48.9c2.2-4.14,33.23-62.22,58.75-55.58a36.62,36.62,0,0,1,11.69,6.08C687.12,1077.37,690.44,1086.48,694,1096.73Zm-62,261.09,45-135c3.43-.39,7.06-.9,10.85-1.58,3.49-.62,6.81-1.32,9.93-2.07-5,14.11-9.8,29-14.25,44.61a751,751,0,0,0-22.67,110.15Zm25.7,36.14q-1,21.11-2.08,42.2L617.57,1409q5-16,10-32Zm17.19,204.28a152.47,152.47,0,0,0-49.24-4.08,224.43,224.43,0,0,0,39.81-48.59q2.14,13.13,4.55,26.55Q672.4,1585.38,674.91,1598.24ZM790.6,1147s5.73-5.87,13-12.17c11.31-9.82,25.66-20,27.91-21.64l18.56,3-2.58,34.07-60.75.85C787.65,1150.09,789,1148.68,790.6,1147ZM727.17,1091c5.19,17.66,6.31,22.85,3.7,28.72-.53,1.2-3.3,7.43-9.43,9.64-.35.13-5.64,2-7.54-.16-1.19-1.34-.54-3.64-.37-4.29,1.06-4.2-.67-8.46-5.82-23.41-10.61-30.81-10.26-33.11-15-37.21-2.79-2.41-5.89-4.18-5.58-6.59.48-3.71,8.83-6.87,16-5.76a17.93,17.93,0,0,1,6,2C716.93,1058.35,720.51,1068.28,727.17,1091Zm28.52-30.17c9.5,23.54,14.14,35.45,9.37,42.34-.29.42-5.1,7.18-11.22,6.76-9.84-.69-9.23-19.05-24.78-51.28-1.42-2.95-3.84-7.81-1.72-11.14,2.75-4.29,12.18-4.69,18.49-1.26C750.48,1048.74,752.48,1052.84,755.69,1060.79Zm5.56-21.52c1.46-1.16,24.2-19.07,34.77-11.79,2.59,1.79,3.92,5.52,6.46,12.91,4.43,12.92,6.65,19.37,5.28,26-3.06,14.89-20.82,26.23-27,22.91-2.9-1.56-3.83-6.67-3.21-10.29.81-4.77,4.4-5,6.63-10.06,3.25-7.43.59-18.42-3.26-19.82-.79-.28-1.37-.08-6.21,2.09-2.21,1-4.77,2.15-7.61,3.46Q764.17,1047,761.25,1039.27Zm265.16,6.86-16.29,12.66c-24.37,17.3-67.22,40.84-123,41.34a206.66,206.66,0,0,1-71.76-12.32,41.36,41.36,0,0,0,5.74-11.21c4.84-14.75-.4-28.33-6.85-45.4-4-10.65-6-16-10.57-19-5.68-3.77-13.74-3.81-23-.79a330.74,330.74,0,0,1-1.82-79.33c7.16-72.86,37-126.82,56.53-156.06a552.65,552.65,0,0,0,84,41,563.86,563.86,0,0,0,144.18,34.7c-14.56,14.85-31.94,38-37.81,69.13-1.87,9.91-7.34,39,6.09,47.54,10.57,6.72,23.61-5.15,41.3,2.89,1.45.66,13.8,6.46,17.63,17.73,7.57,22.25-22.35,56.11-51.53,58.21A42.76,42.76,0,0,1,1026.41,1046.13Zm-22.23,114c-7,11.8-24.3,37.11-56.45,49.8-12.15,4.8-47,18.75-68.86.32-10.61-8.94-13.94-21.93-15.14-29.5q.45-13.82,1-27.71.66-18,1.41-35.86a216.14,216.14,0,0,0,24.29.63c48.84-1.51,88.1-19.45,114.11-35.23a163.17,163.17,0,0,0-.32,77.55Zm18,29.11c-7.87,10.09-58.51,73.47-118.51,75.42-9.29.3-26.79.87-43.47-10.16C839.78,1241,834,1219,832.42,1213a79.39,79.39,0,0,1,2.35-47l11.74-.78c-.41,8.15-1.11,40.28,20.74,58.71,32,27,84.19.94,94.7-4.3,27.47-13.7,43.42-34.28,51-45.62ZM1152.37,1241c-9,1.59-21.83,4.87-32.61,11.83-24.87,16.06-30.29,46.4-38.8,101.32-10.38,67.07-15.58,100.61-22,153-3.36,27.25-8.52,66.18-16.07,113.29q-76.68,9.65-156,18.15-70.79,7.56-139.72,13.75a94.89,94.89,0,0,0-49.78-47.11,693.64,693.64,0,0,1-13.81-82.12c-13.54-126.47,10.19-234.62,36-311.1a121.29,121.29,0,0,0,53.23-44.4l47.66.28c-2.29,5.3-16,38.44.55,71,16,31.48,48.91,39.87,57.83,42.14,50.38,12.77,111.74-20.69,155.41-83Q1093.26,1219.63,1152.37,1241Zm141.4,212.64A245.66,245.66,0,0,1,1091,1440c.25-2.42.66-6.52,1.2-11.58,13.76-130,29.07-149.18,42.94-158.16a56.24,56.24,0,0,1,22-8.19c2.76-.45,24.75-5.44,45.63,1.28,25.12,8.09,38.16,29.52,49,47.43,4,6.66,14.23,24.4,31.4,95.47C1288,1426,1291.46,1442.4,1293.77,1453.62Zm-135.84,70.28a274.13,274.13,0,0,1-73.59-26.09q2.36-18,4.7-36a267.89,267.89,0,0,0,47,18c20.66,5.76,76.56,18.64,141.68.7,9.19-2.53,16.56-5.12,21.3-6.89q4.77,19.2,9.55,38.39c-4.5,1.6-10.91,3.76-18.72,6C1224.68,1536.23,1170.49,1526.41,1157.93,1523.9ZM471.21,1734.28c1.08-2.55,12.84.23,16.18,1,26,5.64,53.68-2.68,72.1-8.22,31.77-9.54,65.64-29.44,71.61-50.59a26.34,26.34,0,0,0,.4-14.61c-.54-1.9-2.93-9.33-18.14-19.18a98.54,98.54,0,0,0-11.08-6.19c-10.76-5.17-18.42-6.9-23.6-14.79a32.9,32.9,0,0,1-4.51-10.61,26.65,26.65,0,0,1,.42-11.52c18.84,9.66,34.61,12.62,45.62,13.51,3.75.31,7.08.44,10.21.49,12,.21,20.71-.82,36.21,1.58,4.72.72,16.9,4,29.47,11.79,24.78,15.26,35.33,39.59,39.31,50.76l325.45-34.5q6.5-35,12.72-70.56,4.74-27.1,9.2-53.91a275.79,275.79,0,0,0,158.73,29.23c-.76,4.7-1.92,11.48-3.56,19.6-10.09,50.08-32.18,122-41.35,137.33-12.11,20.23-48.15,62.49-334.86,60.84-76.36-.45-139.71-3.78-183.87-6.81-27.94.32-50.26.85-64.51,1.23,0,0-52.55,1.56-106.64-6.37a68.49,68.49,0,0,1-26.43-10.38C478.82,1742.37,470.2,1736.64,471.21,1734.28Zm-97.46-79,55.39-44.56,11.92-9.58c3.59-2.89,9.21-3.57,14.05-1.69l14.58,5.66,1.14.45c41.13,16,86.18,33.54,86.18,33.54,9.93,3.85,24.89,9.66,43.42,16.83a13.31,13.31,0,0,1,7.53,5,14.05,14.05,0,0,1,2.14,7.3c.16,13.76-48.44,41.09-76.13,46.23-8.68,1.61-17.7,2.24-17.7,2.24a157.12,157.12,0,0,1-18.5.2l-47.3-17.93-72.36-27.43C370,1668.46,367.8,1660.09,373.75,1655.29Z"/><path class="cls-3" d="M458.89,1614.75c6.94,1.45,11.63,7.1,10.48,12.61s-7.72,8.8-14.66,7.34-11.63-7.1-10.48-12.61S452,1613.29,458.89,1614.75Z"/></g></g></g></svg>