<?xml version="1.0" encoding="utf-8"?>
<!-- Generator: Adobe Illustrator 22.0.1, SVG Export Plug-In . SVG Version: 6.00 Build 0)  -->
<svg version="1.1" xmlns="http://www.w3.org/2000/svg" xmlns:xlink="http://www.w3.org/1999/xlink" x="0px" y="0px"
	 viewBox="0 0 64 64" style="enable-background:new 0 0 64 64;" xml:space="preserve">
<style type="text/css">
	.st0{fill:#63312D;}
	.st1{fill:#EFC36A;}
	.st2{fill:#DB785A;}
	.st3{fill:#F9A287;}
	.st4{fill:#FFC8BB;}
	.st5{fill:#F9DD9D;}
	.st6{fill:#FFEECF;}
	.st7{fill:#52B8D9;}
	.st8{fill:#84DBFF;}
	.st9{fill:#CAF4FF;}
	.st10{fill:#D1D1D1;}
	.st11{fill:#F8F3F3;}
	.st12{fill:#FFFFFF;}
	.st13{fill:#82D9FF;}
</style>
<g id="Layer_1">
</g>
<g id="Layer_2">
	<g>
		<polygon class="st5" points="42.227,33.572 38.344,37.397 35.736,42.184 30.344,42.991 25.423,45.333 20.588,42.813 15.227,41.82 
			12.795,36.941 9.046,32.985 9.941,27.606 9.24,22.201 13.122,18.378 15.73,13.59 21.122,12.783 26.044,10.439 30.879,12.958 
			36.24,13.953 38.671,18.831 42.42,22.79 41.525,28.169 		"/>
		<polygon class="st6" points="22.588,42.813 17.227,41.82 14.795,36.941 11.046,32.985 11.941,27.606 11.24,22.201 15.122,18.378 
			17.73,13.59 23.122,12.783 26.999,10.936 26.044,10.439 21.122,12.783 15.73,13.59 13.122,18.378 9.24,22.201 9.941,27.606 
			9.046,32.985 12.795,36.941 15.227,41.82 20.588,42.813 25.423,45.333 26.469,44.835 		"/>
		
			<rect x="14.257" y="46.956" transform="matrix(0.4601 -0.8879 0.8879 0.4601 -33.7187 39.4634)" class="st0" width="2.661" height="1"/>
		
			<rect x="34.549" y="7.816" transform="matrix(0.4612 -0.8873 0.8873 0.4612 11.9529 36.3156)" class="st0" width="2.661" height="0.999"/>
		
			<rect x="5.665" y="16.407" transform="matrix(0.4612 -0.8873 0.8873 0.4612 -12.4185 15.0287)" class="st0" width="1" height="2.664"/>
		
			<rect x="44.804" y="36.701" transform="matrix(0.4605 -0.8876 0.8876 0.4605 -9.3182 60.7316)" class="st0" width="1" height="2.661"/>
		
			<rect x="5.88" y="39.337" transform="matrix(0.8402 -0.5422 0.5422 0.8402 -20.4492 10.2742)" class="st0" width="2.659" height="1"/>
		
			<rect x="42.929" y="15.435" transform="matrix(0.8398 -0.5429 0.5429 0.8398 -1.5601 26.5826)" class="st0" width="2.661" height="1"/>
		
			<rect x="13.282" y="8.031" transform="matrix(0.8399 -0.5427 0.5427 0.8399 -2.8746 8.978)" class="st0" width="1" height="2.661"/>
		
			<rect x="37.184" y="45.082" transform="matrix(0.8404 -0.5419 0.5419 0.8404 -19.1384 27.8278)" class="st0" width="1" height="2.66"/>
		
			<rect x="2.385" y="28.443" transform="matrix(0.9988 -0.0488 0.0488 0.9988 -1.4085 0.2158)" class="st0" width="2.657" height="1"/>
		
			<rect x="46.424" y="26.329" transform="matrix(0.9989 -0.0469 0.0469 0.9989 -1.205 2.2677)" class="st0" width="2.661" height="1"/>
		
			<rect x="24.177" y="4.537" transform="matrix(0.9988 -0.0485 0.0485 0.9988 -0.2555 1.2039)" class="st0" width="1" height="2.657"/>
		
			<rect x="26.292" y="48.578" transform="matrix(0.9988 -0.0488 0.0488 0.9988 -2.4046 1.3675)" class="st0" width="1" height="2.66"/>
		
			<rect x="14.257" y="46.956" transform="matrix(0.4601 -0.8879 0.8879 0.4601 -33.7187 39.4634)" class="st0" width="2.661" height="1"/>
		
			<rect x="34.549" y="7.816" transform="matrix(0.4612 -0.8873 0.8873 0.4612 11.9529 36.3156)" class="st0" width="2.661" height="0.999"/>
		
			<rect x="5.665" y="16.407" transform="matrix(0.4612 -0.8873 0.8873 0.4612 -12.4185 15.0287)" class="st0" width="1" height="2.664"/>
		
			<rect x="44.804" y="36.701" transform="matrix(0.4605 -0.8876 0.8876 0.4605 -9.3182 60.7316)" class="st0" width="1" height="2.661"/>
		
			<rect x="5.88" y="39.337" transform="matrix(0.8402 -0.5422 0.5422 0.8402 -20.4492 10.2742)" class="st0" width="2.659" height="1"/>
		
			<rect x="42.929" y="15.435" transform="matrix(0.8398 -0.5429 0.5429 0.8398 -1.5601 26.5826)" class="st0" width="2.661" height="1"/>
		
			<rect x="13.282" y="8.031" transform="matrix(0.8399 -0.5427 0.5427 0.8399 -2.8746 8.978)" class="st0" width="1" height="2.661"/>
		
			<rect x="37.184" y="45.082" transform="matrix(0.8404 -0.5419 0.5419 0.8404 -19.1384 27.8278)" class="st0" width="1" height="2.66"/>
		
			<rect x="2.385" y="28.443" transform="matrix(0.9988 -0.0488 0.0488 0.9988 -1.4085 0.2158)" class="st0" width="2.657" height="1"/>
		
			<rect x="46.424" y="26.329" transform="matrix(0.9989 -0.0469 0.0469 0.9989 -1.205 2.2677)" class="st0" width="2.661" height="1"/>
		
			<rect x="24.177" y="4.537" transform="matrix(0.9988 -0.0485 0.0485 0.9988 -0.2555 1.2039)" class="st0" width="1" height="2.657"/>
		
			<rect x="26.292" y="48.578" transform="matrix(0.9988 -0.0488 0.0488 0.9988 -2.4046 1.3675)" class="st0" width="1" height="2.66"/>
		<path class="st0" d="M25.423,45.833c-0.08,0-0.159-0.019-0.231-0.057l-4.769-2.485l-5.287-0.98
			c-0.154-0.029-0.286-0.128-0.356-0.269l-2.399-4.812l-3.698-3.902c-0.108-0.114-0.156-0.271-0.13-0.426l0.883-5.306l-0.692-5.332
			c-0.021-0.155,0.033-0.311,0.145-0.421l3.829-3.771l2.574-4.723c0.075-0.138,0.21-0.232,0.365-0.255l5.317-0.796l4.855-2.313
			c0.141-0.068,0.307-0.064,0.446,0.008l4.769,2.484l5.288,0.981c0.154,0.029,0.287,0.128,0.356,0.269l2.397,4.813l3.698,3.904
			c0.107,0.114,0.155,0.271,0.13,0.426l-0.883,5.307l0.692,5.33c0.02,0.155-0.034,0.311-0.146,0.421l-3.83,3.772l-2.571,4.722
			c-0.075,0.138-0.211,0.232-0.365,0.255l-5.319,0.796l-4.854,2.311C25.57,45.817,25.497,45.833,25.423,45.833z M15.564,41.374
			l5.115,0.948c0.049,0.009,0.096,0.025,0.14,0.048l4.615,2.404l4.696-2.235c0.044-0.021,0.092-0.036,0.141-0.043l5.146-0.77
			l2.488-4.568c0.023-0.043,0.054-0.083,0.089-0.117l3.706-3.65l-0.67-5.157c-0.006-0.049-0.005-0.098,0.003-0.146l0.854-5.134
			l-3.578-3.777c-0.034-0.036-0.063-0.077-0.084-0.121l-2.319-4.656l-5.117-0.95c-0.049-0.009-0.096-0.025-0.14-0.048l-4.614-2.404
			l-4.698,2.237c-0.044,0.021-0.092,0.036-0.141,0.043l-5.146,0.771l-2.49,4.57c-0.023,0.043-0.053,0.083-0.088,0.117l-3.705,3.648
			l0.669,5.159c0.006,0.049,0.006,0.098-0.002,0.146L9.58,32.822l3.578,3.775c0.034,0.036,0.063,0.076,0.084,0.121L15.564,41.374z"
			/>
		<path class="st3" d="M37.448,27.652c0.129,6.47-5.008,11.82-11.48,11.949c-6.47,0.13-11.821-5.009-11.949-11.48
			c-0.131-6.47,5.011-11.822,11.48-11.949C31.97,16.041,37.318,21.182,37.448,27.652z"/>
		<path class="st4" d="M16.019,28.121c-0.126-6.233,4.645-11.414,10.778-11.9c-0.427-0.039-0.859-0.058-1.298-0.049
			c-6.469,0.127-11.611,5.479-11.48,11.949c0.128,6.471,5.479,11.61,11.949,11.48c0.237-0.005,0.469-0.031,0.702-0.049
			C20.798,39.023,16.138,34.154,16.019,28.121z"/>
		<path class="st0" d="M25.726,40.104c-3.17,0-6.165-1.204-8.458-3.406c-2.354-2.261-3.685-5.303-3.75-8.566
			c-0.066-3.262,1.143-6.355,3.404-8.709c2.261-2.354,5.303-3.686,8.566-3.75c3.273-0.058,6.356,1.143,8.709,3.404
			c2.353,2.261,3.685,5.303,3.75,8.566v0c0.064,3.263-1.144,6.356-3.404,8.709s-5.303,3.685-8.566,3.75
			C25.894,40.103,25.81,40.104,25.726,40.104z M25.742,16.669c-0.078,0-0.155,0.001-0.233,0.002
			c-2.996,0.059-5.789,1.282-7.865,3.443c-2.077,2.161-3.187,5.001-3.125,7.996c0.06,2.996,1.282,5.79,3.443,7.865
			c2.161,2.076,5.021,3.188,7.996,3.125c2.997-0.06,5.79-1.282,7.866-3.443c2.075-2.161,3.185-5,3.125-7.997v0
			c-0.06-2.996-1.283-5.789-3.443-7.865C31.4,17.775,28.652,16.669,25.742,16.669z"/>
		<path class="st10" d="M52.264,43.767h-2.329c0.005-0.13,0.015-0.26,0.015-0.392c0-6.247-5.065-11.312-11.313-11.312H32.5v1.816
			c-3.069,1.989-5.117,5.42-5.172,9.336c-0.851-1.129-2.198-1.861-3.72-1.861H17.57v5.25c-0.37-0.06-0.747-0.099-1.134-0.099
			c-3.96,0-7.172,3.211-7.172,7.172c0,3.961,3.211,7.172,7.172,7.172h35.828c4.716,0,8.541-3.824,8.541-8.541
			C60.805,47.591,56.979,43.767,52.264,43.767z"/>
		<path class="st0" d="M52.264,61.349H16.436c-4.23,0-7.672-3.441-7.672-7.672s3.441-7.672,7.672-7.672
			c0.206,0,0.416,0.01,0.634,0.03v-4.681c0-0.276,0.224-0.5,0.5-0.5h6.039c1.226,0,2.378,0.424,3.294,1.19
			c0.384-3.404,2.232-6.482,5.098-8.434v-1.548c0-0.276,0.224-0.5,0.5-0.5h6.136c6.478,0,11.754,5.24,11.812,11.704h1.815
			c4.985,0,9.041,4.056,9.041,9.041S57.249,61.349,52.264,61.349z M16.436,47.005c-3.679,0-6.672,2.993-6.672,6.672
			s2.993,6.672,6.672,6.672h35.828c4.434,0,8.041-3.607,8.041-8.041s-3.607-8.041-8.041-8.041h-2.329
			c-0.136,0-0.266-0.055-0.36-0.153c-0.094-0.098-0.145-0.229-0.14-0.365l0.007-0.136c0.004-0.079,0.008-0.157,0.008-0.237
			c0-5.962-4.851-10.812-10.813-10.812h-5.636v1.316c0,0.169-0.086,0.328-0.229,0.419c-3.045,1.973-4.894,5.309-4.944,8.924
			c-0.003,0.214-0.142,0.402-0.345,0.468c-0.202,0.067-0.426-0.003-0.555-0.174c-0.796-1.056-2.007-1.662-3.321-1.662H18.07v4.75
			c0,0.146-0.064,0.286-0.176,0.381s-0.262,0.136-0.404,0.113C17.108,47.036,16.763,47.005,16.436,47.005z"/>
		<path class="st11" d="M46.264,43.767c-0.813,0-1.596,0.121-2.341,0.333c0.015-0.24,0.026-0.48,0.026-0.724
			c0-6.247-5.065-11.312-11.313-11.312c-6.193,0-11.222,4.979-11.308,11.152c-0.851-1.129-2.198-1.861-3.72-1.861
			c-2.575,0-4.662,2.087-4.662,4.662c0,0.34,0.039,0.67,0.107,0.989c-0.812-0.319-1.693-0.5-2.618-0.5
			c-3.96,0-7.172,3.211-7.172,7.172c0,3.961,3.211,7.172,7.172,7.172h35.828c4.716,0,8.541-3.824,8.541-8.541
			C54.805,47.591,50.979,43.767,46.264,43.767z"/>
		<path class="st0" d="M46.264,61.349H10.436c-4.23,0-7.672-3.441-7.672-7.672s3.441-7.672,7.672-7.672
			c0.683,0,1.358,0.092,2.017,0.273c-0.004-0.088-0.007-0.176-0.007-0.263c0-2.846,2.316-5.162,5.162-5.162
			c1.226,0,2.378,0.424,3.294,1.19c0.668-5.877,5.705-10.481,11.734-10.481c6.514,0,11.813,5.299,11.813,11.812
			c0,0.027,0,0.054,0,0.08c0.604-0.125,1.212-0.188,1.814-0.188c4.985,0,9.041,4.056,9.041,9.041S51.249,61.349,46.264,61.349z
			 M10.436,47.005c-3.679,0-6.672,2.993-6.672,6.672s2.993,6.672,6.672,6.672h35.828c4.434,0,8.041-3.607,8.041-8.041
			s-3.607-8.041-8.041-8.041c-0.731,0-1.473,0.105-2.204,0.313c-0.155,0.043-0.324,0.011-0.45-0.091
			c-0.126-0.102-0.195-0.258-0.186-0.42c0.014-0.23,0.025-0.46,0.025-0.694c0-5.962-4.851-10.812-10.813-10.812
			c-5.877,0-10.726,4.782-10.808,10.659c-0.003,0.214-0.142,0.402-0.345,0.468c-0.202,0.067-0.426-0.003-0.555-0.174
			c-0.796-1.056-2.007-1.662-3.321-1.662c-2.295,0-4.162,1.867-4.162,4.162c0,0.291,0.032,0.588,0.096,0.884
			c0.039,0.18-0.024,0.367-0.165,0.486c-0.14,0.12-0.334,0.152-0.507,0.084C12.085,47.162,11.267,47.005,10.436,47.005z"/>
	</g>
</g>
</svg>
