<?xml version="1.0" encoding="utf-8"?>
<!-- Generator: Adobe Illustrator 22.0.1, SVG Export Plug-In . SVG Version: 6.00 Build 0)  -->
<svg version="1.1" xmlns="http://www.w3.org/2000/svg" xmlns:xlink="http://www.w3.org/1999/xlink" x="0px" y="0px"
	 viewBox="0 0 64 64" style="enable-background:new 0 0 64 64;" xml:space="preserve">
<style type="text/css">
	.st0{fill:#63312D;}
	.st1{fill:#EFC36A;}
	.st2{fill:#DB785A;}
	.st3{fill:#F9A287;}
	.st4{fill:#FFC8BB;}
	.st5{fill:#F9DD9D;}
	.st6{fill:#FFEECF;}
	.st7{fill:#52B8D9;}
	.st8{fill:#84DBFF;}
	.st9{fill:#CAF4FF;}
	.st10{fill:#D1D1D1;}
	.st11{fill:#F8F3F3;}
	.st12{fill:#FFFFFF;}
	.st13{fill:#82D9FF;}
</style>
<g id="Layer_1">
</g>
<g id="Layer_2">
	<g>
		<path class="st10" d="M56.964,26.449c-0.013,0-0.024,0.004-0.036,0.004c-1.072-3.141-4.041-5.402-7.544-5.402
			c-0.758,0-1.49,0.113-2.185,0.31c0.014-0.223,0.024-0.447,0.024-0.676c0-5.834-4.729-10.563-10.563-10.563h-5.996v1.874
			c-2.718,1.88-4.515,4.997-4.564,8.54c-0.795-1.054-2.053-1.737-3.474-1.737c-2.405,0-4.353,1.947-4.353,4.354
			c0,0.316,0.036,0.625,0.1,0.923c-0.758-0.298-1.581-0.468-2.444-0.468c-3.681,0-6.668,2.973-6.694,6.648
			c0.026,3.676,3.013,6.648,6.694,6.648c0.864,0,1.687-0.17,2.444-0.467c-0.064,0.297-0.1,0.605-0.1,0.922
			c0,2.406,1.949,4.354,4.353,4.354c1.421,0,2.679-0.685,3.474-1.738c0.049,3.516,1.82,6.609,4.501,8.493v1.921h6.058
			c5.834,0,10.563-4.729,10.563-10.563c0-0.229-0.01-0.453-0.024-0.676c0.695,0.197,1.427,0.311,2.185,0.311
			c3.503,0,6.472-2.262,7.544-5.402c0.012,0,0.023,0.004,0.036,0.004c2.102,0,3.807-1.705,3.807-3.807
			C60.77,28.154,59.066,26.449,56.964,26.449z"/>
		<path class="st0" d="M36.659,50.89h-6.058c-0.276,0-0.5-0.224-0.5-0.5v-1.665c-2.465-1.82-4.063-4.585-4.425-7.592
			c-0.854,0.696-1.919,1.081-3.051,1.081c-2.676,0-4.854-2.178-4.854-4.854c0-0.066,0.001-0.133,0.004-0.2
			c-0.606,0.163-1.225,0.245-1.849,0.245c-3.938,0-7.166-3.205-7.194-7.145c0.028-3.947,3.256-7.152,7.194-7.152
			c0.625,0,1.243,0.082,1.849,0.245c-0.003-0.067-0.004-0.134-0.004-0.2c0-2.676,2.177-4.854,4.854-4.854
			c1.132,0,2.197,0.385,3.051,1.08c0.364-3.037,1.985-5.821,4.487-7.641v-1.616c0-0.276,0.224-0.5,0.5-0.5h5.996
			c6.101,0,11.063,4.963,11.063,11.063c0,0.012,0,0.022,0,0.034c4.081-0.827,8.098,1.48,9.558,5.241
			c2.228,0.162,3.99,2.026,3.99,4.295s-1.763,4.133-3.99,4.295c-1.459,3.761-5.476,6.069-9.558,5.241c0,0.012,0,0.022,0,0.034
			C47.723,45.927,42.76,50.89,36.659,50.89z M31.101,49.89h5.558c5.549,0,10.063-4.515,10.063-10.063
			c0-0.218-0.009-0.432-0.023-0.644c-0.01-0.162,0.059-0.319,0.185-0.421c0.126-0.103,0.294-0.136,0.45-0.093
			c3.901,1.112,7.866-1.102,9.12-4.771c0.069-0.203,0.259-0.339,0.473-0.339l0.02,0.502l0.081-0.493
			c1.759-0.005,3.243-1.488,3.243-3.312c0-1.815-1.47-3.293-3.282-3.307c-0.021,0.002-0.045,0.004-0.061,0.004
			c-0.214,0-0.404-0.136-0.473-0.339c-1.253-3.67-5.218-5.883-9.12-4.771c-0.158,0.044-0.324,0.01-0.45-0.093
			c-0.126-0.102-0.195-0.259-0.185-0.421c0.014-0.212,0.023-0.426,0.023-0.644c0-5.549-4.515-10.063-10.063-10.063h-5.496v1.374
			c0,0.164-0.081,0.317-0.215,0.411c-2.678,1.853-4.304,4.894-4.349,8.136c-0.003,0.214-0.142,0.402-0.345,0.469
			c-0.204,0.065-0.426-0.004-0.554-0.175c-0.738-0.978-1.858-1.538-3.075-1.538c-2.125,0-3.854,1.729-3.854,3.854
			c0,0.268,0.03,0.543,0.089,0.817c0.039,0.181-0.025,0.367-0.165,0.486s-0.335,0.149-0.507,0.085
			c-0.731-0.288-1.492-0.434-2.261-0.434c-3.391,0-6.17,2.76-6.194,6.152c0.024,3.385,2.803,6.145,6.194,6.145
			c0.769,0,1.53-0.146,2.262-0.433c0.171-0.064,0.366-0.035,0.506,0.085c0.141,0.119,0.204,0.306,0.165,0.486
			c-0.059,0.273-0.089,0.548-0.089,0.816c0,2.125,1.729,3.854,3.854,3.854c1.216,0,2.337-0.562,3.075-1.539
			c0.128-0.171,0.352-0.241,0.554-0.175c0.203,0.066,0.342,0.255,0.345,0.469c0.044,3.211,1.648,6.235,4.289,8.091
			c0.133,0.094,0.212,0.246,0.212,0.409V49.89z"/>
		<path class="st8" d="M3.23,26.303c0-0.017,0.002-0.035,0.003-0.053c-0.001-0.018-0.003-0.035-0.003-0.053
			C3.23,26.23,3.23,26.27,3.23,26.303z"/>
		<path class="st11" d="M50.964,26.449c-0.013,0-0.024,0.004-0.036,0.004c-1.072-3.141-4.041-5.402-7.544-5.402
			c-0.758,0-1.49,0.113-2.185,0.31c0.014-0.223,0.024-0.447,0.024-0.676c0-5.834-4.729-10.563-10.564-10.563
			c-5.784,0-10.479,4.649-10.56,10.414c-0.795-1.054-2.053-1.737-3.474-1.737c-2.405,0-4.353,1.947-4.353,4.354
			c0,0.316,0.036,0.625,0.1,0.923c-0.758-0.298-1.581-0.468-2.444-0.468c-3.681,0-6.668,2.973-6.694,6.648
			c0.026,3.676,3.013,6.648,6.694,6.648c0.864,0,1.687-0.17,2.444-0.467c-0.064,0.297-0.1,0.605-0.1,0.922
			c0,2.406,1.949,4.354,4.353,4.354c1.421,0,2.679-0.685,3.474-1.738c0.08,5.765,4.776,10.414,10.56,10.414
			c5.834,0,10.564-4.729,10.564-10.563c0-0.229-0.01-0.453-0.024-0.676c0.695,0.197,1.427,0.311,2.185,0.311
			c3.503,0,6.472-2.262,7.544-5.402c0.012,0,0.023,0.004,0.036,0.004c2.102,0,3.807-1.705,3.807-3.807
			C54.77,28.154,53.066,26.449,50.964,26.449z"/>
		<path class="st0" d="M30.659,50.89c-5.626,0-10.331-4.281-10.983-9.757c-0.854,0.696-1.919,1.081-3.05,1.081
			c-2.676,0-4.854-2.178-4.854-4.854c0-0.066,0.001-0.133,0.004-0.2c-0.606,0.163-1.225,0.245-1.849,0.245
			c-3.938,0-7.166-3.205-7.194-7.145c0.028-3.947,3.256-7.152,7.194-7.152c0.625,0,1.243,0.082,1.849,0.245
			c-0.003-0.067-0.004-0.134-0.004-0.2c0-2.676,2.177-4.854,4.854-4.854c1.131,0,2.197,0.385,3.05,1.08
			c0.652-5.476,5.357-9.757,10.983-9.757c6.101,0,11.063,4.963,11.063,11.063c0,0.012,0,0.022,0,0.034
			c4.083-0.827,8.098,1.48,9.558,5.241c2.228,0.162,3.99,2.026,3.99,4.295s-1.763,4.133-3.99,4.295
			c-1.459,3.761-5.474,6.069-9.558,5.241c0,0.012,0,0.022,0,0.034C41.723,45.927,36.76,50.89,30.659,50.89z M20.1,39.476
			c0.052,0,0.104,0.008,0.155,0.024c0.203,0.066,0.342,0.255,0.345,0.469c0.076,5.471,4.589,9.921,10.06,9.921
			c5.549,0,10.063-4.515,10.063-10.063c0-0.218-0.009-0.432-0.023-0.644c-0.01-0.162,0.059-0.319,0.185-0.421
			c0.126-0.103,0.294-0.136,0.45-0.093c3.901,1.112,7.866-1.102,9.12-4.771c0.069-0.203,0.259-0.339,0.473-0.339l0.02,0.502
			l0.081-0.493c1.759-0.005,3.243-1.488,3.243-3.312c0-1.815-1.47-3.293-3.282-3.307c-0.021,0.002-0.045,0.004-0.061,0.004
			c-0.214,0-0.404-0.136-0.473-0.339c-1.253-3.67-5.218-5.883-9.12-4.771c-0.158,0.044-0.325,0.01-0.45-0.093
			c-0.126-0.102-0.195-0.259-0.185-0.421c0.014-0.212,0.023-0.426,0.023-0.644c0-5.549-4.515-10.063-10.063-10.063
			c-5.471,0-9.983,4.45-10.06,9.921c-0.003,0.214-0.142,0.402-0.345,0.469c-0.202,0.065-0.426-0.004-0.554-0.175
			c-0.738-0.978-1.858-1.538-3.075-1.538c-2.125,0-3.854,1.729-3.854,3.854c0,0.268,0.03,0.543,0.089,0.817
			c0.039,0.181-0.025,0.367-0.165,0.486s-0.333,0.149-0.507,0.085c-0.731-0.288-1.492-0.434-2.261-0.434
			c-3.391,0-6.17,2.76-6.194,6.152c0.024,3.385,2.803,6.145,6.194,6.145c0.769,0,1.53-0.146,2.262-0.433
			c0.171-0.064,0.366-0.035,0.506,0.085c0.141,0.119,0.204,0.306,0.165,0.486c-0.059,0.273-0.089,0.548-0.089,0.816
			c0,2.125,1.729,3.854,3.854,3.854c1.216,0,2.337-0.562,3.075-1.539C19.797,39.547,19.946,39.476,20.1,39.476z"/>
		<path class="st8" d="M35.547,40.477c-0.007,1.764-1.443,3.19-3.208,3.183c-1.765-0.003-3.191-1.44-3.183-3.205
			c0.007-1.766,1.452-5.467,3.216-5.462C34.139,34.997,35.553,38.712,35.547,40.477z"/>
		<path class="st9" d="M30.791,40.454c0.006-1.481,1.024-4.315,2.394-5.19c-0.26-0.167-0.531-0.271-0.813-0.271
			c-1.764-0.005-3.208,3.696-3.216,5.462c-0.008,1.765,1.418,3.202,3.183,3.205c0.288,0.002,0.562-0.048,0.827-0.118
			C31.797,43.177,30.785,41.938,30.791,40.454z"/>
		<path class="st0" d="M32.354,44.159c-0.006,0-0.011,0-0.017,0c-0.985-0.002-1.911-0.388-2.607-1.088
			c-0.696-0.701-1.078-1.631-1.073-2.619c0.007-1.771,1.456-5.96,3.712-5.96c0.001,0,0.003,0,0.005,0
			c0.982,0.003,1.941,0.841,2.698,2.359c0.587,1.176,0.979,2.633,0.976,3.627l0,0c-0.004,0.986-0.392,1.913-1.092,2.608
			C34.257,43.778,33.334,44.159,32.354,44.159z M32.368,35.492c-1.309,0-2.705,3.227-2.712,4.964
			c-0.003,0.721,0.275,1.399,0.783,1.91c0.507,0.51,1.183,0.792,1.901,0.793c0.004,0,0.008,0,0.012,0
			c0.716,0,1.39-0.277,1.898-0.782c0.511-0.507,0.794-1.183,0.797-1.902c0.003-0.838-0.355-2.145-0.87-3.177
			c-0.563-1.129-1.239-1.804-1.807-1.806C32.37,35.492,32.369,35.492,32.368,35.492z"/>
		<path class="st8" d="M19.915,51.36c-0.005,1.396-1.142,2.524-2.539,2.517c-1.396-0.002-2.525-1.14-2.519-2.536
			c0.006-1.396,1.149-4.325,2.544-4.321C18.8,47.024,19.919,49.964,19.915,51.36z"/>
		<path class="st9" d="M16.857,51.342c0.004-1.04,0.64-2.929,1.541-3.824c-0.305-0.305-0.642-0.496-0.996-0.497
			c-1.396-0.004-2.539,2.925-2.544,4.321c-0.006,1.396,1.123,2.534,2.519,2.536c0.358,0.002,0.698-0.073,1.007-0.206
			C17.482,53.283,16.852,52.385,16.857,51.342z"/>
		<path class="st0" d="M17.389,54.378c-0.763,0.006-1.578-0.313-2.151-0.892c-0.571-0.574-0.884-1.337-0.88-2.146
			c0.006-1.432,1.193-4.819,3.042-4.819c0.001,0,0.003,0,0.004,0c0.819,0.002,1.61,0.686,2.229,1.925
			c0.471,0.943,0.785,2.115,0.783,2.917l0,0c-0.003,0.81-0.321,1.568-0.896,2.139C18.947,54.066,18.192,54.378,17.389,54.378z
			 M17.399,47.521c-0.953,0-2.036,2.493-2.042,3.823c-0.002,0.543,0.207,1.053,0.589,1.438c0.383,0.387,0.873,0.601,1.44,0.597
			c0.54,0,1.045-0.208,1.427-0.587c0.385-0.382,0.599-0.891,0.601-1.433c0.002-0.648-0.277-1.663-0.678-2.467
			c-0.421-0.845-0.933-1.37-1.336-1.371C17.4,47.521,17.399,47.521,17.399,47.521z"/>
		<path class="st8" d="M23.397,30.538c-0.004,1.027-0.84,1.858-1.868,1.854c-1.028-0.002-1.858-0.84-1.854-1.866
			c0.004-1.028,0.845-3.184,1.873-3.181C22.577,27.348,23.401,29.511,23.397,30.538z"/>
		<path class="st9" d="M21.675,30.525c0.003-0.658,0.35-1.773,0.868-2.492c-0.287-0.403-0.627-0.688-0.995-0.688
			c-1.028-0.003-1.869,2.152-1.873,3.181c-0.004,1.026,0.826,1.864,1.854,1.866c0.372,0.002,0.716-0.108,1.007-0.295
			C22.018,31.765,21.672,31.185,21.675,30.525z"/>
		<path class="st0" d="M21.539,32.892c-0.642-0.036-1.229-0.245-1.677-0.695c-0.445-0.448-0.689-1.042-0.686-1.673
			c0.005-1.125,0.905-3.679,2.371-3.679c0.001,0,0.002,0,0.003,0c0.665,0.002,1.272,0.517,1.757,1.489
			c0.361,0.723,0.592,1.589,0.59,2.206l0,0c-0.003,0.631-0.25,1.223-0.698,1.667C22.754,32.648,22.165,32.892,21.539,32.892z
			 M21.546,27.845c-0.574,0-1.367,1.711-1.371,2.683c-0.001,0.363,0.139,0.705,0.396,0.964c0.256,0.258,0.597,0.399,0.959,0.4
			c0.338-0.012,0.706-0.138,0.965-0.395c0.258-0.256,0.401-0.598,0.402-0.961c0.001-0.375-0.15-1.085-0.485-1.756
			C22.09,28.135,21.746,27.846,21.546,27.845C21.547,27.845,21.546,27.845,21.546,27.845z"/>
	</g>
</g>
</svg>
