<?xml version="1.0" encoding="utf-8"?>
<!-- Generator: Adobe Illustrator 22.0.1, SVG Export Plug-In . SVG Version: 6.00 Build 0)  -->
<svg version="1.1" xmlns="http://www.w3.org/2000/svg" xmlns:xlink="http://www.w3.org/1999/xlink" x="0px" y="0px"
	 viewBox="0 0 64 64" style="enable-background:new 0 0 64 64;" xml:space="preserve">
<style type="text/css">
	.st0{fill:#63312D;}
	.st1{fill:#EFC36A;}
	.st2{fill:#DB785A;}
	.st3{fill:#F9A287;}
	.st4{fill:#FFC8BB;}
	.st5{fill:#F9DD9D;}
	.st6{fill:#FFEECF;}
	.st7{fill:#52B8D9;}
	.st8{fill:#84DBFF;}
	.st9{fill:#CAF4FF;}
	.st10{fill:#D1D1D1;}
	.st11{fill:#F8F3F3;}
	.st12{fill:#FFFFFF;}
	.st13{fill:#82D9FF;}
</style>
<g id="Layer_1">
</g>
<g id="Layer_2">
	<g>
		<path class="st8" d="M20.014,45.767c-0.654,1.704-2.566,2.559-4.271,1.905c-1.707-0.653-2.56-2.566-1.907-4.273
			c0.654-1.705,3.41-4.761,5.116-4.107C20.659,39.944,20.667,44.058,20.014,45.767z"/>
		<path class="st9" d="M17.743,47.672c-1.707-0.653-2.56-2.566-1.907-4.273c0.469-1.224,2.02-3.135,3.489-3.88
			c-0.115-0.093-0.237-0.174-0.373-0.227c-1.706-0.654-4.461,2.402-5.116,4.107c-0.653,1.706,0.2,3.619,1.907,4.273
			c0.728,0.279,1.49,0.269,2.18,0.049C17.863,47.702,17.802,47.695,17.743,47.672z"/>
		<path class="st0" d="M16.921,48.391c-0.452,0-0.911-0.081-1.357-0.252c-1.961-0.75-2.945-2.957-2.195-4.918
			c0.655-1.709,3.587-5.23,5.762-4.395c0.942,0.36,1.559,1.517,1.735,3.257c0.137,1.351-0.018,2.903-0.385,3.862c0,0,0,0,0,0
			C19.9,47.459,18.453,48.391,16.921,48.391z M18.432,39.7c-1.342,0-3.535,2.332-4.129,3.878c-0.553,1.446,0.173,3.073,1.619,3.626
			c1.445,0.553,3.071-0.172,3.626-1.617l0,0c0.311-0.813,0.444-2.213,0.323-3.404c-0.132-1.306-0.542-2.212-1.097-2.424
			C18.667,39.719,18.553,39.7,18.432,39.7z"/>
		<path class="st8" d="M34.6,45.767c-0.654,1.704-2.566,2.559-4.272,1.905c-1.707-0.653-2.559-2.566-1.907-4.273
			c0.654-1.705,3.41-4.761,5.116-4.107C35.244,39.944,35.253,44.058,34.6,45.767z"/>
		<path class="st9" d="M32.328,47.672c-1.707-0.653-2.56-2.566-1.907-4.273c0.469-1.224,2.021-3.135,3.489-3.88
			c-0.115-0.093-0.237-0.174-0.374-0.227c-1.706-0.654-4.461,2.402-5.116,4.107c-0.653,1.706,0.2,3.619,1.907,4.273
			c0.729,0.279,1.49,0.269,2.18,0.049C32.448,47.702,32.388,47.695,32.328,47.672z"/>
		<path class="st0" d="M31.506,48.391c-0.452,0-0.911-0.081-1.357-0.252c-1.961-0.75-2.945-2.957-2.195-4.918
			c0.656-1.709,3.589-5.23,5.762-4.395c0.942,0.36,1.559,1.517,1.735,3.257c0.137,1.351-0.018,2.903-0.385,3.862c0,0,0,0,0,0
			C34.486,47.459,33.038,48.391,31.506,48.391z M33.017,39.7c-1.342,0-3.535,2.332-4.129,3.878
			c-0.553,1.446,0.173,3.073,1.619,3.626c1.445,0.553,3.071-0.172,3.626-1.617l0,0c0.311-0.813,0.444-2.213,0.323-3.404
			c-0.132-1.306-0.542-2.212-1.097-2.424C33.253,39.719,33.139,39.7,33.017,39.7z"/>
		<path class="st8" d="M27.307,58.204c-0.654,1.704-2.566,2.559-4.271,1.905c-1.707-0.653-2.559-2.566-1.907-4.273
			c0.654-1.705,3.41-4.761,5.116-4.107C27.952,52.382,27.96,56.495,27.307,58.204z"/>
		<path class="st9" d="M25.036,60.109c-1.707-0.653-2.559-2.566-1.907-4.273c0.469-1.224,2.021-3.135,3.489-3.88
			c-0.115-0.093-0.237-0.174-0.374-0.227c-1.705-0.654-4.461,2.402-5.116,4.107c-0.653,1.706,0.2,3.619,1.907,4.273
			c0.729,0.279,1.49,0.269,2.18,0.049C25.156,60.139,25.095,60.132,25.036,60.109z"/>
		<path class="st0" d="M24.214,60.828c-0.452,0-0.911-0.081-1.357-0.252c-1.961-0.75-2.945-2.957-2.195-4.918
			c0.656-1.71,3.59-5.232,5.762-4.395c0.942,0.36,1.559,1.517,1.735,3.257c0.137,1.351-0.018,2.903-0.385,3.862c0,0,0,0,0,0
			C27.193,59.897,25.746,60.828,24.214,60.828z M25.725,52.138c-1.342,0-3.535,2.332-4.129,3.878
			c-0.553,1.446,0.173,3.073,1.619,3.626c1.447,0.554,3.071-0.171,3.626-1.617l0,0c0.311-0.813,0.444-2.213,0.323-3.404
			c-0.132-1.306-0.542-2.212-1.097-2.424C25.96,52.157,25.846,52.138,25.725,52.138z"/>
		<path class="st8" d="M41.893,58.204c-0.654,1.704-2.566,2.559-4.271,1.905c-1.707-0.653-2.56-2.566-1.907-4.273
			c0.654-1.705,3.41-4.761,5.116-4.107C42.537,52.382,42.546,56.495,41.893,58.204z"/>
		<path class="st9" d="M39.621,60.109c-1.707-0.653-2.56-2.566-1.907-4.273c0.469-1.224,2.021-3.135,3.489-3.88
			c-0.115-0.093-0.237-0.174-0.374-0.227c-1.706-0.654-4.461,2.402-5.116,4.107c-0.653,1.706,0.2,3.619,1.907,4.273
			c0.729,0.279,1.49,0.269,2.18,0.049C39.741,60.139,39.681,60.132,39.621,60.109z"/>
		<path class="st0" d="M38.799,60.828c-0.452,0-0.911-0.081-1.357-0.252c-1.961-0.75-2.945-2.957-2.195-4.918
			c0.655-1.71,3.587-5.232,5.762-4.395c0.942,0.36,1.559,1.517,1.735,3.257c0.137,1.351-0.018,2.903-0.385,3.862c0,0,0,0,0,0
			C41.779,59.897,40.331,60.828,38.799,60.828z M40.31,52.138c-1.342,0-3.535,2.332-4.129,3.878
			c-0.553,1.446,0.173,3.073,1.619,3.626c1.447,0.554,3.071-0.171,3.626-1.617l0,0c0.311-0.813,0.444-2.213,0.323-3.404
			c-0.132-1.306-0.542-2.212-1.097-2.424C40.546,52.157,40.432,52.138,40.31,52.138z"/>
		<path class="st8" d="M49.185,45.767c-0.654,1.704-2.566,2.559-4.271,1.905c-1.707-0.653-2.56-2.566-1.907-4.273
			c0.654-1.705,3.41-4.761,5.116-4.107C49.83,39.944,49.838,44.058,49.185,45.767z"/>
		<path class="st9" d="M46.914,47.672c-1.707-0.653-2.56-2.566-1.907-4.273c0.469-1.224,2.021-3.135,3.489-3.88
			c-0.115-0.093-0.237-0.174-0.374-0.227c-1.706-0.654-4.461,2.402-5.116,4.107c-0.653,1.706,0.2,3.619,1.907,4.273
			c0.729,0.279,1.49,0.269,2.18,0.049C47.034,47.702,46.973,47.695,46.914,47.672z"/>
		<path class="st0" d="M46.092,48.391c-0.452,0-0.911-0.081-1.357-0.252c-1.961-0.75-2.945-2.957-2.195-4.918
			c0.655-1.709,3.586-5.23,5.762-4.395c0.942,0.36,1.559,1.517,1.735,3.257c0.137,1.351-0.018,2.903-0.385,3.862c0,0,0,0,0,0
			C49.071,47.459,47.624,48.391,46.092,48.391z M47.603,39.7c-1.342,0-3.535,2.332-4.129,3.878
			c-0.553,1.446,0.173,3.073,1.619,3.626c1.445,0.553,3.071-0.172,3.626-1.617l0,0c0.311-0.813,0.444-2.213,0.323-3.404
			c-0.132-1.306-0.542-2.212-1.097-2.424C47.838,39.719,47.724,39.7,47.603,39.7z"/>
		<path class="st7" d="M52.263,14.922h-2.329c0.005-0.13,0.014-0.26,0.014-0.392c0-6.247-5.065-11.312-11.313-11.312H32.5v1.816
			c-3.069,1.989-5.117,5.42-5.172,9.336c-0.851-1.129-2.198-1.861-3.72-1.861H17.57v5.25c-0.37-0.06-0.747-0.099-1.134-0.099
			c-3.96,0-7.172,3.211-7.172,7.172c0,3.961,3.211,7.172,7.172,7.172h35.827c4.716,0,8.541-3.824,8.541-8.541
			C60.804,18.746,56.979,14.922,52.263,14.922z"/>
		<path class="st0" d="M52.263,32.504H16.436c-4.23,0-7.672-3.441-7.672-7.672s3.441-7.672,7.672-7.672
			c0.206,0,0.416,0.01,0.634,0.03v-4.681c0-0.276,0.224-0.5,0.5-0.5h6.039c1.226,0,2.378,0.424,3.294,1.19
			C27.287,9.796,29.134,6.718,32,4.766V3.218c0-0.276,0.224-0.5,0.5-0.5h6.136c6.477,0,11.753,5.24,11.812,11.704h1.815
			c4.985,0,9.041,4.056,9.041,9.041S57.249,32.504,52.263,32.504z M16.436,18.16c-3.679,0-6.672,2.993-6.672,6.672
			s2.993,6.672,6.672,6.672h35.827c4.434,0,8.041-3.607,8.041-8.041s-3.607-8.041-8.041-8.041h-2.329
			c-0.136,0-0.267-0.056-0.361-0.154s-0.145-0.23-0.139-0.367l0.005-0.113c0.004-0.085,0.008-0.171,0.008-0.258
			c0-5.962-4.851-10.812-10.813-10.812H33v1.316c0,0.169-0.086,0.328-0.228,0.419c-3.045,1.973-4.894,5.309-4.944,8.924
			c-0.003,0.214-0.142,0.402-0.345,0.468c-0.203,0.067-0.426-0.003-0.555-0.174c-0.796-1.056-2.007-1.662-3.321-1.662H18.07v4.75
			c0,0.146-0.064,0.286-0.176,0.381c-0.111,0.095-0.263,0.136-0.404,0.113C17.108,18.19,16.763,18.16,16.436,18.16z"/>
		<path class="st8" d="M46.263,14.922c-0.813,0-1.596,0.121-2.34,0.333c0.015-0.24,0.026-0.48,0.026-0.724
			c0-6.247-5.065-11.312-11.313-11.312c-6.193,0-11.222,4.979-11.308,11.152c-0.851-1.129-2.198-1.861-3.72-1.861
			c-2.575,0-4.662,2.087-4.662,4.662c0,0.34,0.039,0.67,0.107,0.989c-0.812-0.319-1.693-0.5-2.618-0.5
			c-3.96,0-7.172,3.211-7.172,7.172c0,3.961,3.211,7.172,7.172,7.172h35.827c4.716,0,8.541-3.824,8.541-8.541
			C54.804,18.746,50.979,14.922,46.263,14.922z"/>
		<g>
			<g>
				<path class="st9" d="M5.264,26.832c0-3.961,3.211-7.172,7.172-7.172c0.925,0,1.806,0.181,2.618,0.5
					c-0.069-0.319-0.107-0.649-0.107-0.989c0-2.575,2.087-4.662,4.662-4.662c1.522,0,2.869,0.732,3.72,1.861
					c0.086-6.173,5.114-11.152,11.308-11.152c2.614,0,5.013,0.895,6.929,2.384c-2.069-2.663-5.295-4.384-8.929-4.384
					c-6.193,0-11.222,4.979-11.308,11.152c-0.851-1.129-2.198-1.861-3.72-1.861c-2.575,0-4.662,2.087-4.662,4.662
					c0,0.34,0.039,0.67,0.107,0.989c-0.812-0.319-1.693-0.5-2.618-0.5c-3.96,0-7.172,3.211-7.172,7.172
					c0,2.492,1.272,4.685,3.201,5.971C5.707,29.666,5.264,28.301,5.264,26.832z"/>
			</g>
		</g>
		<path class="st0" d="M46.263,32.504H10.436c-4.23,0-7.672-3.441-7.672-7.672s3.441-7.672,7.672-7.672
			c0.683,0,1.358,0.092,2.017,0.273c-0.004-0.088-0.007-0.176-0.007-0.263c0-2.846,2.316-5.162,5.162-5.162
			c1.226,0,2.378,0.424,3.294,1.19C21.57,7.323,26.607,2.718,32.636,2.718c6.514,0,11.813,5.299,11.813,11.812
			c0,0.027,0,0.054,0,0.081c0.604-0.125,1.212-0.189,1.815-0.189c4.985,0,9.041,4.056,9.041,9.041S51.249,32.504,46.263,32.504z
			 M10.436,18.16c-3.679,0-6.672,2.993-6.672,6.672s2.993,6.672,6.672,6.672h35.827c4.434,0,8.041-3.607,8.041-8.041
			s-3.607-8.041-8.041-8.041c-0.731,0-1.473,0.105-2.204,0.313c-0.156,0.043-0.323,0.011-0.451-0.092
			c-0.126-0.102-0.195-0.259-0.185-0.421c0.015-0.229,0.025-0.459,0.025-0.692c0-5.962-4.851-10.812-10.813-10.812
			c-5.877,0-10.726,4.782-10.808,10.659c-0.003,0.214-0.142,0.402-0.345,0.468c-0.203,0.067-0.427-0.003-0.555-0.174
			c-0.796-1.056-2.007-1.662-3.321-1.662c-2.295,0-4.162,1.867-4.162,4.162c0,0.291,0.032,0.588,0.096,0.884
			c0.039,0.18-0.024,0.367-0.165,0.486c-0.14,0.12-0.333,0.152-0.507,0.084C12.085,18.317,11.267,18.16,10.436,18.16z"/>
	</g>
</g>
</svg>
