<?xml version="1.0" encoding="utf-8"?>
<!-- Generator: Adobe Illustrator 22.0.1, SVG Export Plug-In . SVG Version: 6.00 Build 0)  -->
<svg version="1.1" xmlns="http://www.w3.org/2000/svg" xmlns:xlink="http://www.w3.org/1999/xlink" x="0px" y="0px"
	 viewBox="0 0 64 64" style="enable-background:new 0 0 64 64;" xml:space="preserve">
<style type="text/css">
	.st0{fill:#63312D;}
	.st1{fill:#EFC36A;}
	.st2{fill:#DB785A;}
	.st3{fill:#F9A287;}
	.st4{fill:#FFC8BB;}
	.st5{fill:#F9DD9D;}
	.st6{fill:#FFEECF;}
	.st7{fill:#52B8D9;}
	.st8{fill:#84DBFF;}
	.st9{fill:#CAF4FF;}
	.st10{fill:#D1D1D1;}
	.st11{fill:#F8F3F3;}
	.st12{fill:#FFFFFF;}
	.st13{fill:#82D9FF;}
</style>
<g id="Layer_1">
</g>
<g id="Layer_2">
	<g>
		<path class="st10" d="M52.264,14.922h-2.329c0.005-0.13,0.015-0.26,0.015-0.392c0-6.247-5.065-11.312-11.313-11.312H32.5v1.816
			c-3.068,1.989-5.117,5.42-5.172,9.336c-0.851-1.129-2.197-1.861-3.72-1.861H17.57v5.25c-0.37-0.06-0.748-0.099-1.135-0.099
			c-3.96,0-7.172,3.211-7.172,7.172c0,3.961,3.212,7.172,7.172,7.172h35.828c4.716,0,8.541-3.824,8.541-8.541
			C60.805,18.746,56.979,14.922,52.264,14.922z"/>
		<path class="st0" d="M52.264,32.504H16.436c-4.23,0-7.672-3.441-7.672-7.672s3.441-7.672,7.672-7.672
			c0.206,0,0.416,0.01,0.635,0.03v-4.681c0-0.276,0.224-0.5,0.5-0.5h6.038c1.226,0,2.378,0.424,3.293,1.19
			C27.286,9.796,29.134,6.718,32,4.766V3.218c0-0.276,0.224-0.5,0.5-0.5h6.137c6.478,0,11.754,5.24,11.812,11.704h1.815
			c4.985,0,9.041,4.056,9.041,9.041S57.249,32.504,52.264,32.504z M16.436,18.16c-3.679,0-6.672,2.993-6.672,6.672
			s2.993,6.672,6.672,6.672h35.828c4.434,0,8.041-3.607,8.041-8.041s-3.607-8.041-8.041-8.041h-2.329
			c-0.136,0-0.266-0.055-0.36-0.153c-0.094-0.098-0.145-0.229-0.14-0.365l0.007-0.136c0.004-0.079,0.008-0.157,0.008-0.237
			c0-5.962-4.851-10.812-10.813-10.812H33v1.316c0,0.169-0.086,0.328-0.229,0.419c-3.045,1.974-4.893,5.31-4.943,8.924
			c-0.003,0.214-0.142,0.402-0.345,0.468c-0.202,0.067-0.425-0.003-0.555-0.174c-0.796-1.056-2.006-1.662-3.32-1.662H18.07v4.75
			c0,0.146-0.064,0.286-0.176,0.381s-0.262,0.136-0.404,0.113C17.108,18.19,16.763,18.16,16.436,18.16z"/>
		<path class="st11" d="M46.264,14.922c-0.813,0-1.596,0.121-2.341,0.333c0.015-0.24,0.026-0.48,0.026-0.724
			c0-6.247-5.065-11.312-11.313-11.312c-6.193,0-11.223,4.979-11.309,11.152c-0.851-1.129-2.197-1.861-3.72-1.861
			c-2.575,0-4.662,2.087-4.662,4.662c0,0.34,0.038,0.67,0.107,0.989c-0.812-0.319-1.692-0.5-2.618-0.5
			c-3.96,0-7.172,3.211-7.172,7.172c0,3.961,3.212,7.172,7.172,7.172h35.828c4.716,0,8.541-3.824,8.541-8.541
			C54.805,18.746,50.979,14.922,46.264,14.922z"/>
		<path class="st0" d="M46.264,32.504H10.436c-4.23,0-7.672-3.441-7.672-7.672s3.441-7.672,7.672-7.672
			c0.684,0,1.358,0.092,2.018,0.273c-0.005-0.087-0.007-0.175-0.007-0.262c0-2.846,2.315-5.162,5.162-5.162
			c1.226,0,2.378,0.424,3.294,1.19c0.667-5.877,5.705-10.481,11.734-10.481c6.514,0,11.813,5.299,11.813,11.812
			c0,0.027,0,0.054,0,0.08c0.604-0.125,1.212-0.188,1.814-0.188c4.985,0,9.041,4.056,9.041,9.041S51.249,32.504,46.264,32.504z
			 M10.436,18.16c-3.679,0-6.672,2.993-6.672,6.672s2.993,6.672,6.672,6.672h35.828c4.434,0,8.041-3.607,8.041-8.041
			s-3.607-8.041-8.041-8.041c-0.731,0-1.473,0.105-2.204,0.313c-0.154,0.043-0.323,0.011-0.45-0.091
			c-0.126-0.102-0.195-0.258-0.186-0.42c0.014-0.23,0.025-0.46,0.025-0.694c0-5.962-4.851-10.812-10.813-10.812
			c-5.878,0-10.727,4.782-10.809,10.659c-0.003,0.214-0.142,0.402-0.345,0.468c-0.203,0.067-0.426-0.003-0.555-0.174
			c-0.796-1.056-2.006-1.662-3.32-1.662c-2.295,0-4.162,1.867-4.162,4.162c0,0.292,0.032,0.59,0.096,0.883
			c0.039,0.18-0.023,0.367-0.164,0.487c-0.14,0.119-0.337,0.152-0.507,0.084C12.086,18.317,11.267,18.16,10.436,18.16z"/>
		<path class="st12" d="M60.824,59.131l-2.362,1.471c-0.467,0.291-1.23,0.291-1.697,0l-1.514-0.942
			c-0.467-0.291-1.231-0.291-1.697,0l-1.509,0.942c-0.467,0.291-1.23,0.291-1.697,0l-1.508-0.942c-0.467-0.291-1.23-0.291-1.697,0
			l-1.508,0.942c-0.467,0.291-1.23,0.291-1.697,0l-1.505-0.941c-0.466-0.292-1.229-0.292-1.696,0l-1.508,0.942
			c-0.467,0.291-1.23,0.291-1.697,0l-1.508-0.942c-0.467-0.291-1.23-0.291-1.697,0l-1.508,0.941c-0.466,0.292-1.23,0.292-1.695,0
			l-1.506-0.941c-0.467-0.292-1.231-0.292-1.697,0l-1.507,0.941c-0.466,0.292-1.229,0.292-1.696,0l-1.505-0.941
			c-0.466-0.292-1.229-0.292-1.696,0l-1.506,0.941c-0.467,0.292-1.23,0.292-1.697,0l-1.502-0.94c-0.467-0.292-1.23-0.292-1.697,0
			l-1.506,0.941c-0.467,0.292-1.229,0.291-1.695,0l-1.504-0.94c-0.467-0.292-1.229-0.292-1.695,0l-1.502,0.94
			c-0.466,0.292-1.229,0.292-1.695,0l-2.352-1.47v-2.99l2.352,1.47c0.467,0.292,1.229,0.292,1.695,0l1.502-0.939
			c0.467-0.291,1.229-0.291,1.695,0l1.504,0.939c0.466,0.292,1.229,0.292,1.695,0l1.506-0.94c0.467-0.292,1.231-0.292,1.697,0
			l1.502,0.939c0.467,0.292,1.231,0.292,1.697,0l1.506-0.94c0.467-0.292,1.231-0.292,1.696,0l1.505,0.94
			c0.467,0.292,1.23,0.292,1.696,0l1.507-0.94c0.467-0.292,1.23-0.292,1.697,0l1.506,0.94c0.466,0.292,1.229,0.292,1.695,0
			l1.508-0.94c0.467-0.292,1.23-0.292,1.697,0l1.508,0.941c0.467,0.291,1.23,0.291,1.697,0l1.508-0.941
			c0.467-0.291,1.23-0.291,1.696,0l1.505,0.94c0.467,0.292,1.231,0.292,1.697,0l1.508-0.941c0.467-0.291,1.23-0.291,1.697,0
			l1.508,0.941c0.467,0.291,1.23,0.291,1.697,0l1.509-0.941c0.467-0.291,1.23-0.292,1.697,0l1.514,0.942
			c0.467,0.291,1.23,0.291,1.697,0l2.362-1.471V59.131z"/>
		<path class="st0" d="M57.613,61.319c-0.4,0-0.801-0.098-1.113-0.292l-1.514-0.942c-0.306-0.191-0.862-0.189-1.168,0l-1.509,0.941
			c-0.625,0.389-1.602,0.389-2.227,0l-1.508-0.941c-0.305-0.19-0.863-0.19-1.168,0l-1.508,0.941c-0.624,0.389-1.601,0.39-2.227,0
			l-1.505-0.941c-0.307-0.19-0.862-0.191-1.167,0l-1.508,0.941c-0.625,0.389-1.602,0.389-2.227,0l-1.508-0.941
			c-0.305-0.191-0.861-0.19-1.168,0l-1.508,0.94c-0.623,0.39-1.601,0.39-2.226,0l-1.505-0.94c-0.307-0.191-0.861-0.191-1.168,0
			l-1.507,0.94c-0.623,0.39-1.601,0.39-2.226,0l-1.505-0.941c-0.306-0.191-0.861-0.19-1.167,0l-1.506,0.94
			c-0.623,0.39-1.603,0.39-2.228-0.001l-1.502-0.939c-0.306-0.192-0.861-0.191-1.167,0l-1.506,0.94
			c-0.623,0.389-1.601,0.39-2.226-0.001l-1.503-0.939c-0.305-0.19-0.861-0.191-1.166,0l-1.501,0.939
			c-0.625,0.391-1.602,0.391-2.227,0l-2.351-1.47c-0.146-0.091-0.235-0.251-0.235-0.424v-2.99c0-0.182,0.099-0.349,0.258-0.438
			c0.159-0.087,0.354-0.083,0.507,0.014l2.352,1.47c0.307,0.19,0.86,0.19,1.165,0l1.502-0.939c0.625-0.39,1.603-0.389,2.226,0
			l1.504,0.94c0.307,0.191,0.861,0.19,1.166,0l1.506-0.94c0.623-0.39,1.603-0.39,2.228,0.001l1.502,0.939
			c0.305,0.192,0.86,0.191,1.167,0l1.506-0.94c0.625-0.39,1.602-0.39,2.227,0l1.504,0.94c0.306,0.19,0.86,0.191,1.166,0l1.508-0.941
			c0.625-0.39,1.602-0.39,2.227,0l1.506,0.94c0.307,0.191,0.86,0.191,1.165,0l1.509-0.941c0.625-0.39,1.602-0.389,2.227,0
			l1.508,0.941c0.305,0.19,0.863,0.19,1.168,0l1.508-0.941c0.627-0.39,1.604-0.389,2.227,0.001l1.504,0.94
			c0.308,0.191,0.864,0.19,1.168,0l1.508-0.941c0.625-0.389,1.602-0.389,2.227,0l1.508,0.941c0.305,0.19,0.863,0.19,1.168,0
			l1.509-0.941c0.624-0.389,1.603-0.39,2.227,0l1.514,0.942c0.305,0.19,0.863,0.19,1.168,0l2.362-1.471
			c0.155-0.096,0.349-0.101,0.508-0.013c0.158,0.088,0.257,0.255,0.257,0.437v2.99c0,0.173-0.089,0.333-0.235,0.424l-2.362,1.471
			C58.414,61.222,58.014,61.319,57.613,61.319z M54.403,58.944c0.4,0,0.801,0.097,1.112,0.292l1.514,0.942
			c0.305,0.19,0.863,0.19,1.168,0l2.127-1.325v-1.812l-1.598,0.995c-0.625,0.39-1.602,0.389-2.227,0l-1.514-0.942
			c-0.306-0.191-0.862-0.189-1.168,0l-1.509,0.941c-0.625,0.389-1.602,0.389-2.227,0l-1.508-0.941c-0.305-0.19-0.863-0.19-1.168,0
			l-1.508,0.941c-0.624,0.389-1.601,0.39-2.227,0l-1.505-0.941c-0.307-0.19-0.862-0.191-1.167,0l-1.508,0.941
			c-0.625,0.389-1.602,0.389-2.227,0l-1.508-0.941c-0.305-0.191-0.861-0.19-1.168,0l-1.508,0.94c-0.623,0.39-1.601,0.39-2.226,0
			l-1.505-0.94c-0.307-0.191-0.861-0.191-1.168,0l-1.507,0.94c-0.623,0.39-1.601,0.39-2.226,0l-1.505-0.941
			c-0.306-0.191-0.861-0.19-1.167,0l-1.506,0.94c-0.623,0.39-1.603,0.39-2.228-0.001l-1.502-0.939c-0.306-0.192-0.861-0.191-1.167,0
			l-1.506,0.94c-0.623,0.389-1.601,0.39-2.226-0.001l-1.503-0.939c-0.305-0.19-0.861-0.191-1.166,0l-1.501,0.939
			c-0.625,0.391-1.602,0.391-2.227,0l-1.586-0.991v1.811l2.116,1.323c0.307,0.19,0.86,0.19,1.165,0l1.502-0.939
			c0.625-0.39,1.603-0.389,2.226,0l1.504,0.94c0.307,0.191,0.861,0.19,1.166,0l1.506-0.94c0.623-0.39,1.603-0.39,2.228,0.001
			l1.502,0.939c0.305,0.192,0.86,0.191,1.167,0l1.506-0.94c0.625-0.39,1.602-0.39,2.227,0l1.504,0.94c0.306,0.19,0.86,0.191,1.166,0
			l1.508-0.941c0.625-0.39,1.602-0.39,2.227,0l1.506,0.94c0.307,0.191,0.86,0.191,1.165,0l1.509-0.941
			c0.625-0.39,1.602-0.389,2.227,0l1.508,0.941c0.305,0.19,0.863,0.19,1.168,0l1.508-0.941c0.627-0.39,1.604-0.389,2.227,0.001
			l1.504,0.94c0.308,0.191,0.864,0.19,1.168,0l1.508-0.941c0.625-0.389,1.602-0.389,2.227,0l1.508,0.941
			c0.305,0.19,0.863,0.19,1.168,0l1.509-0.941C53.602,59.042,54.002,58.944,54.403,58.944z"/>
		<path class="st12" d="M60.824,49.519l-2.362,1.471c-0.467,0.291-1.23,0.291-1.697,0l-1.514-0.942
			c-0.467-0.291-1.231-0.291-1.697,0l-1.509,0.941c-0.467,0.291-1.23,0.291-1.697,0l-1.508-0.941c-0.467-0.291-1.23-0.291-1.697,0
			l-1.508,0.941c-0.467,0.291-1.23,0.291-1.697,0l-1.505-0.94c-0.466-0.292-1.229-0.292-1.696,0l-1.508,0.941
			c-0.467,0.291-1.23,0.291-1.697,0l-1.508-0.941c-0.467-0.291-1.23-0.291-1.697,0l-1.508,0.94c-0.466,0.292-1.23,0.292-1.695,0
			l-1.506-0.94c-0.467-0.292-1.231-0.292-1.697,0l-1.507,0.94c-0.466,0.292-1.229,0.292-1.696,0l-1.505-0.94
			c-0.466-0.292-1.229-0.292-1.696,0l-1.506,0.94c-0.467,0.292-1.23,0.292-1.697,0l-1.502-0.939c-0.467-0.292-1.23-0.292-1.697,0
			l-1.506,0.94c-0.467,0.292-1.229,0.291-1.695,0l-1.504-0.939c-0.467-0.292-1.229-0.292-1.695,0l-1.502,0.939
			c-0.466,0.292-1.229,0.292-1.695,0l-2.352-1.47v-2.99l2.352,1.47c0.467,0.292,1.229,0.292,1.695,0l1.502-0.939
			c0.467-0.292,1.229-0.292,1.695,0l1.504,0.939c0.466,0.292,1.229,0.292,1.695,0l1.506-0.94c0.467-0.292,1.231-0.292,1.697,0
			l1.502,0.939c0.467,0.292,1.231,0.292,1.697,0l1.506-0.94c0.467-0.292,1.231-0.292,1.696,0l1.505,0.94
			c0.467,0.292,1.23,0.292,1.696,0l1.507-0.94c0.467-0.292,1.23-0.292,1.697,0l1.506,0.94c0.466,0.292,1.229,0.292,1.695,0
			l1.508-0.94c0.467-0.292,1.23-0.292,1.697,0L37.531,48c0.467,0.291,1.23,0.291,1.697,0l1.508-0.941
			c0.467-0.291,1.23-0.291,1.696,0l1.505,0.94c0.467,0.292,1.231,0.292,1.697,0l1.508-0.941c0.467-0.291,1.23-0.291,1.697,0
			L50.348,48c0.467,0.291,1.23,0.291,1.697,0l1.509-0.941c0.467-0.291,1.23-0.292,1.697-0.001L56.765,48
			c0.467,0.291,1.23,0.291,1.697,0l2.362-1.471V49.519z"/>
		<path class="st0" d="M57.613,51.707c-0.4,0-0.801-0.098-1.113-0.292l-1.514-0.942c-0.306-0.191-0.862-0.189-1.168,0l-1.509,0.941
			c-0.625,0.389-1.602,0.389-2.227,0l-1.508-0.941c-0.305-0.19-0.863-0.19-1.168,0l-1.508,0.941c-0.624,0.389-1.601,0.39-2.227,0
			l-1.505-0.941c-0.307-0.19-0.862-0.191-1.167,0l-1.508,0.941c-0.625,0.389-1.602,0.389-2.227,0l-1.508-0.941
			c-0.305-0.191-0.861-0.19-1.168,0l-1.508,0.94c-0.623,0.39-1.601,0.39-2.226,0l-1.505-0.94c-0.307-0.191-0.861-0.191-1.168,0
			l-1.507,0.94c-0.623,0.39-1.601,0.39-2.226,0l-1.505-0.941c-0.306-0.191-0.861-0.19-1.167,0l-1.506,0.94
			c-0.623,0.39-1.603,0.39-2.228-0.001l-1.502-0.939c-0.306-0.192-0.861-0.191-1.167,0l-1.506,0.94
			c-0.623,0.389-1.601,0.39-2.226-0.001l-1.503-0.939c-0.305-0.19-0.861-0.191-1.166,0l-1.501,0.939
			c-0.625,0.391-1.602,0.391-2.227,0l-2.351-1.47c-0.146-0.091-0.235-0.251-0.235-0.424v-2.99c0-0.182,0.099-0.349,0.258-0.438
			c0.159-0.087,0.354-0.083,0.507,0.014l2.352,1.47c0.307,0.19,0.86,0.19,1.165,0l1.502-0.939c0.625-0.39,1.603-0.389,2.226,0
			l1.504,0.94c0.307,0.191,0.861,0.19,1.166,0l1.506-0.94c0.623-0.39,1.603-0.39,2.228,0.001l1.502,0.939
			c0.305,0.192,0.86,0.191,1.167,0l1.506-0.94c0.625-0.39,1.602-0.39,2.227,0l1.504,0.94c0.306,0.19,0.86,0.191,1.166,0l1.508-0.941
			c0.625-0.39,1.602-0.39,2.227,0l1.506,0.94c0.307,0.191,0.86,0.191,1.165,0l1.509-0.941c0.625-0.39,1.602-0.389,2.227,0
			l1.508,0.941c0.305,0.19,0.863,0.19,1.168,0l1.508-0.941c0.627-0.39,1.604-0.389,2.227,0.001l1.504,0.94
			c0.308,0.191,0.864,0.19,1.168,0l1.508-0.941c0.625-0.389,1.602-0.389,2.227,0l1.508,0.941c0.305,0.19,0.863,0.19,1.168,0
			l1.509-0.941c0.624-0.389,1.603-0.39,2.227,0l1.514,0.942c0.305,0.19,0.863,0.19,1.168,0l2.362-1.471
			c0.155-0.096,0.349-0.101,0.508-0.013c0.158,0.088,0.257,0.255,0.257,0.437v2.99c0,0.173-0.089,0.333-0.235,0.424l-2.362,1.471
			C58.414,51.609,58.014,51.707,57.613,51.707z M54.403,49.332c0.4,0,0.801,0.097,1.112,0.292l1.514,0.942
			c0.305,0.19,0.863,0.19,1.168,0l2.127-1.325v-1.812l-1.598,0.995c-0.625,0.39-1.602,0.389-2.227,0l-1.514-0.942
			c-0.306-0.19-0.862-0.19-1.168,0l-1.509,0.941c-0.625,0.389-1.602,0.389-2.227,0l-1.508-0.941c-0.305-0.19-0.863-0.19-1.168,0
			l-1.508,0.941c-0.624,0.389-1.601,0.39-2.227,0l-1.505-0.941c-0.307-0.19-0.862-0.19-1.167,0l-1.508,0.941
			c-0.625,0.389-1.602,0.389-2.227,0l-1.508-0.941c-0.305-0.19-0.861-0.191-1.168,0l-1.508,0.94c-0.623,0.39-1.601,0.39-2.226,0
			l-1.505-0.94c-0.307-0.191-0.861-0.191-1.168,0l-1.507,0.94c-0.623,0.39-1.601,0.39-2.226,0l-1.505-0.941
			c-0.306-0.19-0.861-0.191-1.167,0l-1.506,0.94c-0.623,0.39-1.603,0.39-2.228-0.001l-1.502-0.939c-0.306-0.191-0.861-0.191-1.167,0
			l-1.506,0.94c-0.623,0.389-1.601,0.39-2.226-0.001l-1.503-0.939c-0.305-0.19-0.861-0.191-1.166,0l-1.501,0.939
			c-0.625,0.391-1.602,0.391-2.227,0l-1.586-0.991v1.811l2.116,1.323c0.307,0.19,0.86,0.19,1.165,0l1.502-0.939
			c0.625-0.39,1.603-0.389,2.226,0l1.504,0.94c0.307,0.191,0.861,0.19,1.166,0l1.506-0.94c0.623-0.39,1.603-0.39,2.228,0.001
			l1.502,0.939c0.305,0.192,0.86,0.191,1.167,0l1.506-0.94c0.625-0.39,1.602-0.39,2.227,0l1.504,0.94c0.306,0.19,0.86,0.191,1.166,0
			l1.508-0.941c0.625-0.39,1.602-0.39,2.227,0l1.506,0.94c0.307,0.191,0.86,0.191,1.165,0l1.509-0.941
			c0.625-0.39,1.602-0.389,2.227,0l1.508,0.941c0.305,0.19,0.863,0.19,1.168,0l1.508-0.941c0.627-0.39,1.604-0.389,2.227,0.001
			l1.504,0.94c0.308,0.191,0.864,0.19,1.168,0l1.508-0.941c0.625-0.389,1.602-0.389,2.227,0l1.508,0.941
			c0.305,0.19,0.863,0.19,1.168,0l1.509-0.941C53.602,49.429,54.002,49.332,54.403,49.332z"/>
		<path class="st12" d="M60.824,39.907l-2.362,1.471c-0.467,0.291-1.23,0.291-1.697,0l-1.514-0.942
			c-0.467-0.291-1.231-0.291-1.697,0l-1.509,0.941c-0.467,0.291-1.23,0.291-1.697,0l-1.508-0.941c-0.467-0.291-1.23-0.291-1.697,0
			l-1.508,0.941c-0.467,0.291-1.23,0.291-1.697,0l-1.505-0.94c-0.466-0.292-1.229-0.292-1.696,0l-1.508,0.941
			c-0.467,0.291-1.23,0.291-1.697,0l-1.508-0.941c-0.467-0.291-1.23-0.291-1.697,0l-1.508,0.94c-0.466,0.292-1.23,0.292-1.695,0
			l-1.506-0.94c-0.467-0.292-1.231-0.292-1.697,0l-1.507,0.94c-0.466,0.292-1.229,0.292-1.696,0l-1.505-0.94
			c-0.466-0.292-1.229-0.292-1.696,0l-1.506,0.94c-0.467,0.292-1.23,0.292-1.697,0l-1.502-0.939c-0.467-0.292-1.23-0.292-1.697,0
			l-1.506,0.94c-0.467,0.292-1.229,0.291-1.695,0l-1.504-0.939c-0.467-0.292-1.229-0.292-1.695,0l-1.502,0.939
			c-0.466,0.292-1.229,0.292-1.695,0l-2.352-1.47v-2.99l2.352,1.47c0.467,0.292,1.229,0.292,1.695,0l1.502-0.939
			c0.467-0.292,1.229-0.292,1.695,0l1.504,0.939c0.466,0.292,1.229,0.292,1.695,0l1.506-0.94c0.467-0.292,1.231-0.292,1.697,0
			l1.502,0.939c0.467,0.292,1.231,0.292,1.697,0l1.506-0.94c0.467-0.292,1.231-0.292,1.696,0l1.505,0.94
			c0.467,0.292,1.23,0.292,1.696,0l1.507-0.94c0.467-0.292,1.23-0.292,1.697,0l1.506,0.94c0.466,0.292,1.229,0.292,1.695,0
			l1.508-0.94c0.467-0.292,1.23-0.292,1.697,0l1.508,0.941c0.467,0.291,1.23,0.291,1.697,0l1.508-0.941
			c0.467-0.291,1.23-0.291,1.696,0l1.505,0.94c0.467,0.292,1.231,0.292,1.697,0l1.508-0.941c0.467-0.291,1.23-0.291,1.697,0
			l1.508,0.941c0.467,0.291,1.23,0.291,1.697,0l1.509-0.941c0.467-0.291,1.23-0.292,1.697,0l1.514,0.942
			c0.467,0.291,1.23,0.291,1.697,0l2.362-1.471V39.907z"/>
		<path class="st0" d="M57.613,42.094c-0.4,0-0.801-0.098-1.113-0.292l-1.514-0.942c-0.306-0.191-0.862-0.189-1.168,0l-1.509,0.941
			c-0.625,0.389-1.602,0.389-2.227,0l-1.508-0.941c-0.305-0.19-0.863-0.19-1.168,0l-1.508,0.941c-0.624,0.389-1.601,0.39-2.227,0
			l-1.505-0.941c-0.307-0.19-0.862-0.191-1.167,0l-1.508,0.941c-0.625,0.389-1.602,0.389-2.227,0l-1.508-0.941
			c-0.305-0.191-0.861-0.19-1.168,0l-1.508,0.94c-0.623,0.39-1.601,0.39-2.226,0l-1.505-0.94c-0.307-0.191-0.861-0.191-1.168,0
			l-1.507,0.94c-0.623,0.39-1.601,0.39-2.226,0l-1.505-0.941c-0.306-0.191-0.861-0.19-1.167,0l-1.506,0.94
			c-0.623,0.39-1.603,0.39-2.228-0.001l-1.502-0.939c-0.306-0.192-0.861-0.191-1.167,0l-1.506,0.94
			c-0.623,0.389-1.601,0.39-2.226-0.001l-1.503-0.939c-0.305-0.19-0.861-0.191-1.166,0L7.477,41.8c-0.625,0.391-1.602,0.391-2.227,0
			l-2.351-1.47c-0.146-0.091-0.235-0.251-0.235-0.424v-2.99c0-0.182,0.099-0.349,0.258-0.438c0.159-0.087,0.354-0.083,0.507,0.014
			l2.352,1.47c0.307,0.19,0.86,0.19,1.165,0l1.502-0.939c0.625-0.39,1.603-0.389,2.226,0l1.504,0.94c0.307,0.191,0.861,0.19,1.166,0
			l1.506-0.94c0.623-0.39,1.603-0.39,2.228,0.001l1.502,0.939c0.305,0.192,0.86,0.191,1.167,0l1.506-0.94
			c0.625-0.39,1.602-0.39,2.227,0l1.504,0.94c0.306,0.19,0.86,0.191,1.166,0l1.508-0.941c0.625-0.39,1.602-0.39,2.227,0l1.506,0.94
			c0.307,0.191,0.86,0.191,1.165,0l1.509-0.941c0.625-0.39,1.602-0.389,2.227,0l1.508,0.941c0.305,0.19,0.863,0.19,1.168,0
			l1.508-0.941c0.627-0.39,1.604-0.389,2.227,0.001l1.504,0.94c0.308,0.191,0.864,0.19,1.168,0l1.508-0.941
			c0.625-0.389,1.602-0.389,2.227,0l1.508,0.941c0.305,0.19,0.863,0.19,1.168,0l1.509-0.941c0.624-0.389,1.603-0.39,2.227,0
			l1.514,0.942c0.305,0.19,0.863,0.19,1.168,0l2.362-1.471c0.155-0.096,0.349-0.101,0.508-0.013
			c0.158,0.088,0.257,0.255,0.257,0.437v2.99c0,0.173-0.089,0.333-0.235,0.424l-2.362,1.471
			C58.414,41.997,58.014,42.094,57.613,42.094z M54.403,39.72c0.4,0,0.801,0.097,1.112,0.292l1.514,0.942
			c0.305,0.19,0.863,0.19,1.168,0l2.127-1.325v-1.812l-1.598,0.995c-0.625,0.39-1.602,0.389-2.227,0l-1.514-0.942
			c-0.306-0.191-0.862-0.189-1.168,0l-1.509,0.941c-0.625,0.389-1.602,0.389-2.227,0l-1.508-0.941c-0.305-0.19-0.863-0.19-1.168,0
			l-1.508,0.941c-0.624,0.389-1.601,0.39-2.227,0l-1.505-0.941c-0.307-0.19-0.862-0.191-1.167,0l-1.508,0.941
			c-0.625,0.389-1.602,0.389-2.227,0l-1.508-0.941c-0.305-0.191-0.861-0.19-1.168,0l-1.508,0.94c-0.623,0.39-1.601,0.39-2.226,0
			l-1.505-0.94c-0.307-0.191-0.861-0.191-1.168,0l-1.507,0.94c-0.623,0.39-1.601,0.39-2.226,0l-1.505-0.941
			c-0.306-0.191-0.861-0.19-1.167,0l-1.506,0.94c-0.623,0.39-1.603,0.39-2.228-0.001l-1.502-0.939c-0.306-0.192-0.861-0.191-1.167,0
			l-1.506,0.94c-0.623,0.389-1.601,0.39-2.226-0.001l-1.503-0.939c-0.305-0.19-0.861-0.191-1.166,0L7.477,38.81
			c-0.625,0.391-1.602,0.391-2.227,0l-1.586-0.991v1.811l2.116,1.323c0.307,0.19,0.86,0.19,1.165,0l1.502-0.939
			c0.625-0.39,1.603-0.389,2.226,0l1.504,0.94c0.307,0.191,0.861,0.19,1.166,0l1.506-0.94c0.623-0.39,1.603-0.39,2.228,0.001
			l1.502,0.939c0.305,0.192,0.86,0.191,1.167,0l1.506-0.94c0.625-0.39,1.602-0.39,2.227,0l1.504,0.94c0.306,0.19,0.86,0.191,1.166,0
			l1.508-0.941c0.625-0.39,1.602-0.39,2.227,0l1.506,0.94c0.307,0.191,0.86,0.191,1.165,0l1.509-0.941
			c0.625-0.39,1.602-0.389,2.227,0l1.508,0.941c0.305,0.19,0.863,0.19,1.168,0l1.508-0.941c0.627-0.39,1.604-0.389,2.227,0.001
			l1.504,0.94c0.308,0.191,0.864,0.19,1.168,0l1.508-0.941c0.625-0.389,1.602-0.389,2.227,0l1.508,0.941
			c0.305,0.19,0.863,0.19,1.168,0l1.509-0.941C53.602,39.817,54.002,39.72,54.403,39.72z"/>
	</g>
</g>
</svg>
