<?xml version="1.0" encoding="utf-8"?>
<!-- Generator: Adobe Illustrator 25.2.1, SVG Export Plug-In . SVG Version: 6.00 Build 0)  -->
<svg version="1.1" id="Layer_1" xmlns="http://www.w3.org/2000/svg" xmlns:xlink="http://www.w3.org/1999/xlink" x="0px" y="0px"
	 viewBox="0 0 48 48" style="enable-background:new 0 0 48 48;" xml:space="preserve">
<style type="text/css">
	.st0{fill:#7D7D7C;}
</style>
<g>
	<circle class="st0" cx="24" cy="24" r="8"/>
	<path class="st0" d="M42.8,22.8h-2.7c-0.6-8-7-14.3-14.9-14.9V5.2C25.2,4.5,24.7,4,24,4c-0.7,0-1.2,0.5-1.2,1.2v2.7
		c-8,0.6-14.3,7-14.9,14.9H5.2C4.5,22.8,4,23.3,4,24c0,0.7,0.5,1.2,1.2,1.2h2.7c0.6,8,7,14.3,14.9,14.9v2.7c0,0.7,0.5,1.2,1.2,1.2
		c0.7,0,1.2-0.5,1.2-1.2v-2.7c8-0.6,14.3-7,14.9-14.9h2.7c0.7,0,1.2-0.5,1.2-1.2C44,23.3,43.5,22.8,42.8,22.8z M24,37.8
		c-7.6,0-13.8-6.2-13.8-13.8S16.4,10.2,24,10.2c7.6,0,13.8,6.2,13.8,13.8C37.8,31.6,31.6,37.8,24,37.8z"/>
</g>
</svg>
