<svg xmlns="http://www.w3.org/2000/svg" xmlns:xlink="http://www.w3.org/1999/xlink" viewBox="0 0 1320 1100"><defs><style>.cls-1,.cls-11{fill:#fff;}.cls-2{opacity:0.3;}.cls-3{fill:url(#Безымянный_градиент_13);}.cls-4{opacity:0.6;}.cls-5{fill:#ffea00;}.cls-6{fill:url(#Безымянный_градиент_13-2);}.cls-7{fill:url(#Безымянный_градиент_2);}.cls-8{fill:url(#Безымянный_градиент_12);}.cls-9{fill:url(#Безымянный_градиент_10);}.cls-10{fill:url(#Безымянный_градиент_2-2);}.cls-11{opacity:0.75;}</style><linearGradient id="Безымянный_градиент_13" x1="352.92" y1="210.22" x2="923.04" y2="780.35" gradientUnits="userSpaceOnUse"><stop offset="0" stop-color="#ffb500"/><stop offset="1" stop-color="#ffea00"/></linearGradient><linearGradient id="Безымянный_градиент_13-2" x1="263.85" y1="969.35" x2="936.72" y2="296.48" xlink:href="#Безымянный_градиент_13"/><linearGradient id="Безымянный_градиент_2" x1="415.8" y1="1019.33" x2="415.8" y2="803.13" gradientUnits="userSpaceOnUse"><stop offset="0" stop-color="#ffb500"/><stop offset="0.21" stop-color="#fc0"/><stop offset="0.44" stop-color="#fd0"/><stop offset="0.69" stop-color="#ffe700"/><stop offset="1" stop-color="#ffea00"/></linearGradient><linearGradient id="Безымянный_градиент_12" x1="2702.8" y1="-481.21" x2="2547.23" y2="-636.79" gradientTransform="translate(3120.02 -350) rotate(180)" gradientUnits="userSpaceOnUse"><stop offset="0" stop-color="#ffea00"/><stop offset="0.21" stop-color="#ffd300"/><stop offset="0.44" stop-color="#ffc200"/><stop offset="0.69" stop-color="#ffb800"/><stop offset="1" stop-color="#ffb500"/></linearGradient><linearGradient id="Безымянный_градиент_10" x1="1006.11" y1="709.11" x2="1083.89" y2="786.89" gradientUnits="userSpaceOnUse"><stop offset="0" stop-color="#ffb500"/><stop offset="0.31" stop-color="#ffb800"/><stop offset="0.56" stop-color="#ffc200"/><stop offset="0.79" stop-color="#ffd300"/><stop offset="1" stop-color="#ffea00"/></linearGradient><linearGradient id="Безымянный_градиент_2-2" x1="2421.21" y1="-444.4" x2="2421.21" y2="-881.51" gradientTransform="translate(2738.02 0) rotate(180)" xlink:href="#Безымянный_градиент_2"/></defs><g id="Layer_2" data-name="Layer 2"><g id="Layer_1-2" data-name="Layer 1"><rect class="cls-1" width="1320" height="1100"/><g class="cls-2"><path class="cls-3" d="M1207.64,394.85c-20-127-140.49-137.84-255.94-108.79-220.91,55.59-303.28-32.87-455.26-74.84C316.86,161.63,154.28,358.78,295.76,579c51.3,79.84,71.75,160.66,80.46,267.25C398.17,1115,622,1082.24,740,954.89c101.25-109.25,87.87-158,235.75-270.14C1090.91,597.43,1229.86,536,1207.64,394.85Z"/></g><g class="cls-4"><path class="cls-5" d="M792,137.5a5.52,5.52,0,0,0,5.39-4.38c-3.45.33-6.91.77-10.34,1.28A5.49,5.49,0,0,0,792,137.5Z"/><path class="cls-5" d="M825,137.5a5.47,5.47,0,0,0,5.48-5.21c-3.68-.2-7.33-.29-11-.29A5.5,5.5,0,0,0,825,137.5Z"/><path class="cls-5" d="M858,137.5a5.32,5.32,0,0,0,3.56-1.32c-2.79-.55-5.56-1.06-8.36-1.5A5.5,5.5,0,0,0,858,137.5Z"/><path class="cls-5" d="M698.23,166.48c-2.13,1.27-4.27,2.57-6.35,3.91a5,5,0,0,0,1,.11A5.51,5.51,0,0,0,698.23,166.48Z"/><path class="cls-5" d="M725.94,159.5a5.5,5.5,0,1,0,5.5,5.5A5.5,5.5,0,0,0,725.94,159.5Z"/><path class="cls-5" d="M742.44,154a5.5,5.5,0,0,0,5.5-5.5,5.44,5.44,0,0,0-1.91-4.16c-3,1-6,2.11-9,3.26h0a6.44,6.44,0,0,0-.07.9A5.5,5.5,0,0,0,742.44,154Z"/><path class="cls-5" d="M759,159.5a5.5,5.5,0,1,0,5.5,5.5A5.5,5.5,0,0,0,759,159.5Z"/><path class="cls-5" d="M775.45,143a5.5,5.5,0,1,0,5.51,5.5A5.5,5.5,0,0,0,775.45,143Z"/><path class="cls-5" d="M792,159.5a5.5,5.5,0,1,0,5.5,5.5A5.5,5.5,0,0,0,792,159.5Z"/><path class="cls-5" d="M808.46,143a5.5,5.5,0,1,0,5.51,5.5A5.5,5.5,0,0,0,808.46,143Z"/><path class="cls-5" d="M825,159.5a5.5,5.5,0,1,0,5.5,5.5A5.5,5.5,0,0,0,825,159.5Z"/><path class="cls-5" d="M841.47,143a5.5,5.5,0,1,0,5.5,5.5A5.5,5.5,0,0,0,841.47,143Z"/><path class="cls-5" d="M858,159.5a5.5,5.5,0,1,0,5.5,5.5A5.5,5.5,0,0,0,858,159.5Z"/><path class="cls-5" d="M874.48,143a5.5,5.5,0,1,0,5.51,5.5A5.5,5.5,0,0,0,874.48,143Z"/><path class="cls-5" d="M891,159.5a5.5,5.5,0,1,0,5.5,5.5A5.5,5.5,0,0,0,891,159.5Z"/><path class="cls-5" d="M907.49,154a5.57,5.57,0,0,0,3.63-1.36c-3-1.46-6.07-2.8-9.13-4.07A5.5,5.5,0,0,0,907.49,154Z"/><path class="cls-5" d="M924,170.5a5.5,5.5,0,0,0,5.5-5.5,5.39,5.39,0,0,0-1.19-3.41c-1.21-.7-2.42-1.39-3.63-2a5.19,5.19,0,0,0-.68-.05,5.5,5.5,0,0,0,0,11Z"/><path class="cls-5" d="M659.92,203.5a5.49,5.49,0,0,0,1.85-10.67q-3.66,3.16-7.2,6.47A5.48,5.48,0,0,0,659.92,203.5Z"/><path class="cls-5" d="M676.42,187a5.49,5.49,0,0,0,4.23-9c-3,2.11-5.92,4.31-8.8,6.56A5.49,5.49,0,0,0,676.42,187Z"/><path class="cls-5" d="M692.93,192.5a5.5,5.5,0,1,0,5.5,5.5A5.5,5.5,0,0,0,692.93,192.5Z"/><path class="cls-5" d="M709.44,176a5.5,5.5,0,1,0,5.5,5.5A5.51,5.51,0,0,0,709.44,176Z"/><path class="cls-5" d="M725.94,192.5a5.5,5.5,0,1,0,5.5,5.5A5.5,5.5,0,0,0,725.94,192.5Z"/><path class="cls-5" d="M742.44,176a5.5,5.5,0,1,0,5.5,5.5A5.5,5.5,0,0,0,742.44,176Z"/><path class="cls-5" d="M759,192.5a5.5,5.5,0,1,0,5.5,5.5A5.5,5.5,0,0,0,759,192.5Z"/><path class="cls-5" d="M775.45,176a5.5,5.5,0,1,0,5.51,5.5A5.5,5.5,0,0,0,775.45,176Z"/><path class="cls-5" d="M792,192.5a5.5,5.5,0,1,0,5.5,5.5A5.5,5.5,0,0,0,792,192.5Z"/><path class="cls-5" d="M808.46,176a5.5,5.5,0,1,0,5.51,5.5A5.5,5.5,0,0,0,808.46,176Z"/><path class="cls-5" d="M825,192.5a5.5,5.5,0,1,0,5.5,5.5A5.5,5.5,0,0,0,825,192.5Z"/><path class="cls-5" d="M841.47,176a5.5,5.5,0,1,0,5.5,5.5A5.5,5.5,0,0,0,841.47,176Z"/><path class="cls-5" d="M858,192.5a5.5,5.5,0,1,0,5.5,5.5A5.5,5.5,0,0,0,858,192.5Z"/><path class="cls-5" d="M874.48,176a5.5,5.5,0,1,0,5.51,5.5A5.5,5.5,0,0,0,874.48,176Z"/><path class="cls-5" d="M891,192.5a5.5,5.5,0,1,0,5.5,5.5A5.5,5.5,0,0,0,891,192.5Z"/><path class="cls-5" d="M907.49,176a5.5,5.5,0,1,0,5.5,5.5A5.5,5.5,0,0,0,907.49,176Z"/><path class="cls-5" d="M924,192.5a5.5,5.5,0,1,0,5.5,5.5A5.5,5.5,0,0,0,924,192.5Z"/><path class="cls-5" d="M940.5,176a5.5,5.5,0,1,0,5.5,5.5A5.5,5.5,0,0,0,940.5,176Z"/><path class="cls-5" d="M957,192.5a5.5,5.5,0,1,0,5.5,5.5A5.51,5.51,0,0,0,957,192.5Z"/><path class="cls-5" d="M626.91,236.5a5.51,5.51,0,0,0,2.64-10.34c-2.35,2.73-4.73,5.41-7.11,8.06A5.48,5.48,0,0,0,626.91,236.5Z"/><path class="cls-5" d="M643.42,220a5.5,5.5,0,0,0,1.21-10.87c-2.2,2.31-4.36,4.67-6.45,7A5.49,5.49,0,0,0,643.42,220Z"/><path class="cls-5" d="M659.92,225.5a5.5,5.5,0,1,0,5.5,5.5A5.5,5.5,0,0,0,659.92,225.5Z"/><path class="cls-5" d="M676.42,209a5.5,5.5,0,1,0,5.51,5.5A5.51,5.51,0,0,0,676.42,209Z"/><path class="cls-5" d="M692.93,225.5a5.5,5.5,0,1,0,5.5,5.5A5.5,5.5,0,0,0,692.93,225.5Z"/><path class="cls-5" d="M709.44,209a5.5,5.5,0,1,0,5.5,5.5A5.51,5.51,0,0,0,709.44,209Z"/><path class="cls-5" d="M725.94,225.5a5.5,5.5,0,1,0,5.5,5.5A5.5,5.5,0,0,0,725.94,225.5Z"/><path class="cls-5" d="M742.44,209a5.5,5.5,0,1,0,5.5,5.5A5.51,5.51,0,0,0,742.44,209Z"/><path class="cls-5" d="M759,225.5a5.5,5.5,0,1,0,5.5,5.5A5.5,5.5,0,0,0,759,225.5Z"/><path class="cls-5" d="M775.45,209a5.5,5.5,0,1,0,5.51,5.5A5.51,5.51,0,0,0,775.45,209Z"/><path class="cls-5" d="M792,225.5a5.5,5.5,0,1,0,5.5,5.5A5.5,5.5,0,0,0,792,225.5Z"/><path class="cls-5" d="M808.46,209a5.5,5.5,0,1,0,5.51,5.5A5.51,5.51,0,0,0,808.46,209Z"/><path class="cls-5" d="M825,225.5a5.5,5.5,0,1,0,5.5,5.5A5.5,5.5,0,0,0,825,225.5Z"/><path class="cls-5" d="M841.47,209a5.5,5.5,0,1,0,5.5,5.5A5.5,5.5,0,0,0,841.47,209Z"/><path class="cls-5" d="M858,225.5a5.5,5.5,0,1,0,5.5,5.5A5.5,5.5,0,0,0,858,225.5Z"/><path class="cls-5" d="M874.48,209a5.5,5.5,0,1,0,5.51,5.5A5.51,5.51,0,0,0,874.48,209Z"/><path class="cls-5" d="M891,225.5a5.5,5.5,0,1,0,5.5,5.5A5.5,5.5,0,0,0,891,225.5Z"/><path class="cls-5" d="M907.49,209a5.5,5.5,0,1,0,5.5,5.5A5.5,5.5,0,0,0,907.49,209Z"/><path class="cls-5" d="M924,225.5a5.5,5.5,0,1,0,5.5,5.5A5.5,5.5,0,0,0,924,225.5Z"/><path class="cls-5" d="M940.5,209a5.5,5.5,0,1,0,5.5,5.5A5.5,5.5,0,0,0,940.5,209Z"/><path class="cls-5" d="M957,225.5a5.5,5.5,0,1,0,5.5,5.5A5.51,5.51,0,0,0,957,225.5Z"/><path class="cls-5" d="M973.51,209a5.5,5.5,0,1,0,5.5,5.5A5.5,5.5,0,0,0,973.51,209Z"/><path class="cls-5" d="M990,225.5a5.5,5.5,0,1,0,5.5,5.5A5.51,5.51,0,0,0,990,225.5Z"/><path class="cls-5" d="M599.4,264a5.56,5.56,0,0,0-1.71-4q-3.93,3.83-8,7.57A5.5,5.5,0,0,0,599.4,264Z"/><path class="cls-5" d="M615.91,247.5a5.4,5.4,0,0,0-1.9-4.13q-3.75,4-7.59,7.92a5.5,5.5,0,0,0,9.49-3.79Z"/><path class="cls-5" d="M626.91,258.5a5.5,5.5,0,1,0,5.5,5.5A5.5,5.5,0,0,0,626.91,258.5Z"/><path class="cls-5" d="M643.42,242a5.5,5.5,0,1,0,5.5,5.5A5.5,5.5,0,0,0,643.42,242Z"/><path class="cls-5" d="M659.92,258.5a5.5,5.5,0,1,0,5.5,5.5A5.5,5.5,0,0,0,659.92,258.5Z"/><path class="cls-5" d="M676.42,242a5.5,5.5,0,1,0,5.51,5.5A5.51,5.51,0,0,0,676.42,242Z"/><path class="cls-5" d="M692.93,258.5a5.5,5.5,0,1,0,5.5,5.5A5.5,5.5,0,0,0,692.93,258.5Z"/><path class="cls-5" d="M709.44,242a5.5,5.5,0,1,0,5.5,5.5A5.51,5.51,0,0,0,709.44,242Z"/><path class="cls-5" d="M725.94,258.5a5.5,5.5,0,1,0,5.5,5.5A5.5,5.5,0,0,0,725.94,258.5Z"/><path class="cls-5" d="M742.44,242a5.5,5.5,0,1,0,5.5,5.5A5.51,5.51,0,0,0,742.44,242Z"/><path class="cls-5" d="M759,258.5a5.5,5.5,0,1,0,5.5,5.5A5.5,5.5,0,0,0,759,258.5Z"/><path class="cls-5" d="M775.45,242a5.5,5.5,0,1,0,5.51,5.5A5.51,5.51,0,0,0,775.45,242Z"/><path class="cls-5" d="M792,258.5a5.5,5.5,0,1,0,5.5,5.5A5.5,5.5,0,0,0,792,258.5Z"/><path class="cls-5" d="M808.46,242a5.5,5.5,0,1,0,5.51,5.5A5.51,5.51,0,0,0,808.46,242Z"/><path class="cls-5" d="M825,258.5a5.5,5.5,0,1,0,5.5,5.5A5.5,5.5,0,0,0,825,258.5Z"/><path class="cls-5" d="M841.47,242a5.5,5.5,0,1,0,5.5,5.5A5.5,5.5,0,0,0,841.47,242Z"/><path class="cls-5" d="M858,258.5a5.5,5.5,0,1,0,5.5,5.5A5.5,5.5,0,0,0,858,258.5Z"/><path class="cls-5" d="M874.48,242a5.5,5.5,0,1,0,5.51,5.5A5.51,5.51,0,0,0,874.48,242Z"/><path class="cls-5" d="M891,258.5a5.5,5.5,0,1,0,5.5,5.5A5.5,5.5,0,0,0,891,258.5Z"/><path class="cls-5" d="M907.49,242a5.5,5.5,0,1,0,5.5,5.5A5.5,5.5,0,0,0,907.49,242Z"/><path class="cls-5" d="M924,258.5a5.5,5.5,0,1,0,5.5,5.5A5.5,5.5,0,0,0,924,258.5Z"/><path class="cls-5" d="M940.5,242a5.5,5.5,0,1,0,5.5,5.5A5.5,5.5,0,0,0,940.5,242Z"/><path class="cls-5" d="M957,258.5a5.5,5.5,0,1,0,5.5,5.5A5.51,5.51,0,0,0,957,258.5Z"/><path class="cls-5" d="M973.51,242a5.5,5.5,0,1,0,5.5,5.5A5.5,5.5,0,0,0,973.51,242Z"/><path class="cls-5" d="M990,258.5a5.5,5.5,0,1,0,5.5,5.5A5.51,5.51,0,0,0,990,258.5Z"/><path class="cls-5" d="M1006.52,242a5.5,5.5,0,1,0,5.5,5.5A5.5,5.5,0,0,0,1006.52,242Z"/><path class="cls-5" d="M1023,258.5a5.5,5.5,0,1,0,5.51,5.5A5.51,5.51,0,0,0,1023,258.5Z"/><path class="cls-5" d="M560.89,302.5a5.49,5.49,0,0,0,.66-10.95h0c-2,1.56-4,3.1-6.07,4.62a4.5,4.5,0,0,0-.07.83A5.5,5.5,0,0,0,560.89,302.5Z"/><path class="cls-5" d="M577.4,286a5.49,5.49,0,0,0,3-10.07q-4,3.49-8,6.88A5.52,5.52,0,0,0,577.4,286Z"/><path class="cls-5" d="M593.9,291.5a5.5,5.5,0,1,0,5.5,5.5A5.5,5.5,0,0,0,593.9,291.5Z"/><path class="cls-5" d="M610.41,275a5.5,5.5,0,1,0,5.5,5.5A5.51,5.51,0,0,0,610.41,275Z"/><path class="cls-5" d="M626.91,291.5a5.5,5.5,0,1,0,5.5,5.5A5.5,5.5,0,0,0,626.91,291.5Z"/><path class="cls-5" d="M643.42,275a5.5,5.5,0,1,0,5.5,5.5A5.5,5.5,0,0,0,643.42,275Z"/><path class="cls-5" d="M659.92,291.5a5.5,5.5,0,1,0,5.5,5.5A5.5,5.5,0,0,0,659.92,291.5Z"/><path class="cls-5" d="M676.42,275a5.5,5.5,0,1,0,5.51,5.5A5.51,5.51,0,0,0,676.42,275Z"/><path class="cls-5" d="M692.93,291.5a5.5,5.5,0,1,0,5.5,5.5A5.5,5.5,0,0,0,692.93,291.5Z"/><path class="cls-5" d="M709.44,275a5.5,5.5,0,1,0,5.5,5.5A5.51,5.51,0,0,0,709.44,275Z"/><path class="cls-5" d="M725.94,291.5a5.5,5.5,0,1,0,5.5,5.5A5.5,5.5,0,0,0,725.94,291.5Z"/><path class="cls-5" d="M742.44,275a5.5,5.5,0,1,0,5.5,5.5A5.51,5.51,0,0,0,742.44,275Z"/><path class="cls-5" d="M759,291.5a5.5,5.5,0,1,0,5.5,5.5A5.5,5.5,0,0,0,759,291.5Z"/><path class="cls-5" d="M775.45,275a5.5,5.5,0,1,0,5.51,5.5A5.51,5.51,0,0,0,775.45,275Z"/><path class="cls-5" d="M792,291.5a5.5,5.5,0,1,0,5.5,5.5A5.5,5.5,0,0,0,792,291.5Z"/><path class="cls-5" d="M808.46,275a5.5,5.5,0,1,0,5.51,5.5A5.51,5.51,0,0,0,808.46,275Z"/><path class="cls-5" d="M825,291.5a5.5,5.5,0,1,0,5.5,5.5A5.5,5.5,0,0,0,825,291.5Z"/><path class="cls-5" d="M841.47,275a5.5,5.5,0,1,0,5.5,5.5A5.5,5.5,0,0,0,841.47,275Z"/><path class="cls-5" d="M858,291.5a5.5,5.5,0,1,0,5.5,5.5A5.5,5.5,0,0,0,858,291.5Z"/><path class="cls-5" d="M874.48,275a5.5,5.5,0,1,0,5.51,5.5A5.51,5.51,0,0,0,874.48,275Z"/><path class="cls-5" d="M891,291.5a5.5,5.5,0,1,0,5.5,5.5A5.5,5.5,0,0,0,891,291.5Z"/><path class="cls-5" d="M907.49,275a5.5,5.5,0,1,0,5.5,5.5A5.5,5.5,0,0,0,907.49,275Z"/><path class="cls-5" d="M924,291.5a5.5,5.5,0,1,0,5.5,5.5A5.5,5.5,0,0,0,924,291.5Z"/><path class="cls-5" d="M940.5,275a5.5,5.5,0,1,0,5.5,5.5A5.5,5.5,0,0,0,940.5,275Z"/><path class="cls-5" d="M957,291.5a5.5,5.5,0,1,0,5.5,5.5A5.51,5.51,0,0,0,957,291.5Z"/><path class="cls-5" d="M973.51,275a5.5,5.5,0,1,0,5.5,5.5A5.5,5.5,0,0,0,973.51,275Z"/><path class="cls-5" d="M990,291.5a5.5,5.5,0,1,0,5.5,5.5A5.51,5.51,0,0,0,990,291.5Z"/><path class="cls-5" d="M1006.52,275a5.5,5.5,0,1,0,5.5,5.5A5.5,5.5,0,0,0,1006.52,275Z"/><path class="cls-5" d="M1023,291.5a5.5,5.5,0,1,0,5.51,5.5A5.51,5.51,0,0,0,1023,291.5Z"/><path class="cls-5" d="M1039.53,286a5.42,5.42,0,0,0,2.66-.68c-1.69-3.28-3.43-6.51-5.19-9.7a5.5,5.5,0,0,0,2.53,10.38Z"/><path class="cls-5" d="M500.37,330.16q-4.35,2.2-8.8,4.25a5.5,5.5,0,0,0,8.8-4.25Z"/><path class="cls-5" d="M527.88,324.51a5.5,5.5,0,1,0,5.5,5.5A5.5,5.5,0,0,0,527.88,324.51Z"/><path class="cls-5" d="M544.39,308a5.51,5.51,0,1,0,5.5,5.51A5.51,5.51,0,0,0,544.39,308Z"/><path class="cls-5" d="M560.89,324.51a5.5,5.5,0,1,0,5.5,5.5A5.5,5.5,0,0,0,560.89,324.51Z"/><path class="cls-5" d="M577.4,308a5.51,5.51,0,1,0,5.5,5.51A5.51,5.51,0,0,0,577.4,308Z"/><path class="cls-5" d="M593.9,324.51a5.5,5.5,0,1,0,5.5,5.5A5.5,5.5,0,0,0,593.9,324.51Z"/><path class="cls-5" d="M610.41,308a5.51,5.51,0,1,0,5.5,5.51A5.51,5.51,0,0,0,610.41,308Z"/><path class="cls-5" d="M626.91,324.51a5.5,5.5,0,1,0,5.5,5.5A5.5,5.5,0,0,0,626.91,324.51Z"/><path class="cls-5" d="M643.42,308a5.51,5.51,0,1,0,5.5,5.51A5.51,5.51,0,0,0,643.42,308Z"/><path class="cls-5" d="M659.92,324.51a5.5,5.5,0,1,0,5.5,5.5A5.5,5.5,0,0,0,659.92,324.51Z"/><path class="cls-5" d="M676.42,308a5.51,5.51,0,1,0,5.51,5.51A5.51,5.51,0,0,0,676.42,308Z"/><path class="cls-5" d="M692.93,324.51a5.5,5.5,0,1,0,5.5,5.5A5.5,5.5,0,0,0,692.93,324.51Z"/><path class="cls-5" d="M709.44,308a5.51,5.51,0,1,0,5.5,5.51A5.51,5.51,0,0,0,709.44,308Z"/><path class="cls-5" d="M725.94,324.51a5.5,5.5,0,1,0,5.5,5.5A5.5,5.5,0,0,0,725.94,324.51Z"/><path class="cls-5" d="M742.44,308a5.51,5.51,0,1,0,5.5,5.51A5.51,5.51,0,0,0,742.44,308Z"/><path class="cls-5" d="M759,324.51a5.5,5.5,0,1,0,5.5,5.5A5.5,5.5,0,0,0,759,324.51Z"/><path class="cls-5" d="M775.45,308a5.51,5.51,0,1,0,5.51,5.51A5.51,5.51,0,0,0,775.45,308Z"/><path class="cls-5" d="M792,324.51a5.5,5.5,0,1,0,5.5,5.5A5.5,5.5,0,0,0,792,324.51Z"/><path class="cls-5" d="M808.46,308a5.51,5.51,0,1,0,5.51,5.51A5.51,5.51,0,0,0,808.46,308Z"/><path class="cls-5" d="M825,324.51a5.5,5.5,0,1,0,5.5,5.5A5.5,5.5,0,0,0,825,324.51Z"/><path class="cls-5" d="M841.47,308a5.51,5.51,0,1,0,5.5,5.51A5.51,5.51,0,0,0,841.47,308Z"/><path class="cls-5" d="M858,324.51a5.5,5.5,0,1,0,5.5,5.5A5.5,5.5,0,0,0,858,324.51Z"/><path class="cls-5" d="M874.48,308a5.51,5.51,0,1,0,5.51,5.51A5.51,5.51,0,0,0,874.48,308Z"/><path class="cls-5" d="M891,324.51a5.5,5.5,0,1,0,5.5,5.5A5.5,5.5,0,0,0,891,324.51Z"/><path class="cls-5" d="M907.49,308a5.51,5.51,0,1,0,5.5,5.51A5.51,5.51,0,0,0,907.49,308Z"/><path class="cls-5" d="M924,324.51a5.5,5.5,0,1,0,5.5,5.5A5.5,5.5,0,0,0,924,324.51Z"/><path class="cls-5" d="M940.5,308a5.51,5.51,0,1,0,5.5,5.51A5.51,5.51,0,0,0,940.5,308Z"/><path class="cls-5" d="M957,324.51a5.5,5.5,0,1,0,5.5,5.5A5.51,5.51,0,0,0,957,324.51Z"/><path class="cls-5" d="M973.51,308a5.51,5.51,0,1,0,5.5,5.51A5.51,5.51,0,0,0,973.51,308Z"/><path class="cls-5" d="M990,324.51a5.5,5.5,0,1,0,5.5,5.5A5.51,5.51,0,0,0,990,324.51Z"/><path class="cls-5" d="M1006.52,308a5.51,5.51,0,1,0,5.5,5.51A5.51,5.51,0,0,0,1006.52,308Z"/><path class="cls-5" d="M1023,324.51a5.5,5.5,0,1,0,5.51,5.5A5.5,5.5,0,0,0,1023,324.51Z"/><path class="cls-5" d="M1039.53,308a5.51,5.51,0,1,0,5.5,5.51A5.51,5.51,0,0,0,1039.53,308Z"/><path class="cls-5" d="M1056,324.51a5.5,5.5,0,1,0,5.51,5.5A5.5,5.5,0,0,0,1056,324.51Z"/><path class="cls-5" d="M395.84,368.51a5.51,5.51,0,0,0,5.51-5.5V363c-3.53.68-7.09,1.32-10.68,1.89A5.47,5.47,0,0,0,395.84,368.51Z"/><path class="cls-5" d="M428.85,357.51a5.5,5.5,0,1,0,5.51,5.5A5.5,5.5,0,0,0,428.85,357.51Z"/><circle class="cls-5" cx="461.86" cy="363.01" r="5.5"/><path class="cls-5" d="M478.37,341a5.5,5.5,0,1,0,5.5,5.5A5.5,5.5,0,0,0,478.37,341Z"/><path class="cls-5" d="M494.87,357.51a5.5,5.5,0,1,0,5.5,5.5A5.5,5.5,0,0,0,494.87,357.51Z"/><path class="cls-5" d="M511.38,341a5.5,5.5,0,1,0,5.5,5.5A5.5,5.5,0,0,0,511.38,341Z"/><path class="cls-5" d="M527.88,357.51a5.5,5.5,0,1,0,5.5,5.5A5.5,5.5,0,0,0,527.88,357.51Z"/><path class="cls-5" d="M544.39,341a5.5,5.5,0,1,0,5.5,5.5A5.5,5.5,0,0,0,544.39,341Z"/><path class="cls-5" d="M560.89,357.51a5.5,5.5,0,1,0,5.5,5.5A5.5,5.5,0,0,0,560.89,357.51Z"/><path class="cls-5" d="M577.4,341a5.5,5.5,0,1,0,5.5,5.5A5.51,5.51,0,0,0,577.4,341Z"/><path class="cls-5" d="M593.9,357.51a5.5,5.5,0,1,0,5.5,5.5A5.5,5.5,0,0,0,593.9,357.51Z"/><path class="cls-5" d="M610.41,341a5.5,5.5,0,1,0,5.5,5.5A5.51,5.51,0,0,0,610.41,341Z"/><path class="cls-5" d="M626.91,357.51a5.5,5.5,0,1,0,5.5,5.5A5.5,5.5,0,0,0,626.91,357.51Z"/><path class="cls-5" d="M643.42,341a5.5,5.5,0,1,0,5.5,5.5A5.5,5.5,0,0,0,643.42,341Z"/><path class="cls-5" d="M659.92,357.51a5.5,5.5,0,1,0,5.5,5.5A5.5,5.5,0,0,0,659.92,357.51Z"/><path class="cls-5" d="M676.42,341a5.5,5.5,0,1,0,5.51,5.5A5.5,5.5,0,0,0,676.42,341Z"/><path class="cls-5" d="M692.93,357.51a5.5,5.5,0,1,0,5.5,5.5A5.5,5.5,0,0,0,692.93,357.51Z"/><path class="cls-5" d="M709.44,341a5.5,5.5,0,1,0,5.5,5.5A5.51,5.51,0,0,0,709.44,341Z"/><path class="cls-5" d="M725.94,357.51a5.5,5.5,0,1,0,5.5,5.5A5.5,5.5,0,0,0,725.94,357.51Z"/><path class="cls-5" d="M742.44,341a5.5,5.5,0,1,0,5.5,5.5A5.5,5.5,0,0,0,742.44,341Z"/><path class="cls-5" d="M759,357.51a5.5,5.5,0,1,0,5.5,5.5A5.5,5.5,0,0,0,759,357.51Z"/><path class="cls-5" d="M775.45,341a5.5,5.5,0,1,0,5.51,5.5A5.5,5.5,0,0,0,775.45,341Z"/><path class="cls-5" d="M792,357.51a5.5,5.5,0,1,0,5.5,5.5A5.5,5.5,0,0,0,792,357.51Z"/><path class="cls-5" d="M808.46,341a5.5,5.5,0,1,0,5.51,5.5A5.5,5.5,0,0,0,808.46,341Z"/><path class="cls-5" d="M825,357.51a5.5,5.5,0,1,0,5.5,5.5A5.5,5.5,0,0,0,825,357.51Z"/><path class="cls-5" d="M841.47,341a5.5,5.5,0,1,0,5.5,5.5A5.5,5.5,0,0,0,841.47,341Z"/><path class="cls-5" d="M858,357.51a5.5,5.5,0,1,0,5.5,5.5A5.5,5.5,0,0,0,858,357.51Z"/><path class="cls-5" d="M874.48,341a5.5,5.5,0,1,0,5.51,5.5A5.5,5.5,0,0,0,874.48,341Z"/><path class="cls-5" d="M891,357.51a5.5,5.5,0,1,0,5.5,5.5A5.5,5.5,0,0,0,891,357.51Z"/><path class="cls-5" d="M907.49,341a5.5,5.5,0,1,0,5.5,5.5A5.5,5.5,0,0,0,907.49,341Z"/><path class="cls-5" d="M924,357.51a5.5,5.5,0,1,0,5.5,5.5A5.5,5.5,0,0,0,924,357.51Z"/><path class="cls-5" d="M940.5,341a5.5,5.5,0,1,0,5.5,5.5A5.5,5.5,0,0,0,940.5,341Z"/><path class="cls-5" d="M957,357.51a5.5,5.5,0,1,0,5.5,5.5A5.51,5.51,0,0,0,957,357.51Z"/><path class="cls-5" d="M973.51,341a5.5,5.5,0,1,0,5.5,5.5A5.5,5.5,0,0,0,973.51,341Z"/><path class="cls-5" d="M990,357.51a5.5,5.5,0,1,0,5.5,5.5A5.51,5.51,0,0,0,990,357.51Z"/><path class="cls-5" d="M1006.52,341a5.5,5.5,0,1,0,5.5,5.5A5.5,5.5,0,0,0,1006.52,341Z"/><path class="cls-5" d="M1023,357.51a5.5,5.5,0,1,0,5.51,5.5A5.5,5.5,0,0,0,1023,357.51Z"/><path class="cls-5" d="M1039.53,341a5.5,5.5,0,1,0,5.5,5.5A5.5,5.5,0,0,0,1039.53,341Z"/><path class="cls-5" d="M1056,357.51a5.5,5.5,0,1,0,5.51,5.5A5.5,5.5,0,0,0,1056,357.51Z"/><path class="cls-5" d="M197.79,390.51a5.5,5.5,0,1,0,5.5,5.5A5.5,5.5,0,0,0,197.79,390.51Z"/><path class="cls-5" d="M219.68,380.54c-3,1-6.05,2-9,3.13a5.5,5.5,0,0,0,9-3.13Z"/><path class="cls-5" d="M230.8,390.51a5.5,5.5,0,1,0,5.5,5.5A5.51,5.51,0,0,0,230.8,390.51Z"/><path class="cls-5" d="M247.3,374a5.5,5.5,0,1,0,5.5,5.5A5.5,5.5,0,0,0,247.3,374Z"/><path class="cls-5" d="M263.81,390.51a5.5,5.5,0,1,0,5.5,5.5A5.51,5.51,0,0,0,263.81,390.51Z"/><path class="cls-5" d="M280.31,374a5.5,5.5,0,1,0,5.5,5.5A5.5,5.5,0,0,0,280.31,374Z"/><path class="cls-5" d="M296.82,390.51a5.5,5.5,0,1,0,5.5,5.5A5.51,5.51,0,0,0,296.82,390.51Z"/><path class="cls-5" d="M313.32,374a5.5,5.5,0,1,0,5.5,5.5A5.5,5.5,0,0,0,313.32,374Z"/><path class="cls-5" d="M329.83,390.51a5.5,5.5,0,1,0,5.5,5.5A5.51,5.51,0,0,0,329.83,390.51Z"/><path class="cls-5" d="M346.33,374a5.5,5.5,0,1,0,5.5,5.5A5.5,5.5,0,0,0,346.33,374Z"/><path class="cls-5" d="M362.84,390.51a5.5,5.5,0,1,0,5.5,5.5A5.51,5.51,0,0,0,362.84,390.51Z"/><path class="cls-5" d="M379.34,374a5.5,5.5,0,1,0,5.5,5.5A5.5,5.5,0,0,0,379.34,374Z"/><path class="cls-5" d="M395.84,390.51a5.5,5.5,0,1,0,5.51,5.5A5.5,5.5,0,0,0,395.84,390.51Z"/><path class="cls-5" d="M412.35,374a5.5,5.5,0,1,0,5.5,5.5A5.5,5.5,0,0,0,412.35,374Z"/><path class="cls-5" d="M428.85,390.51a5.5,5.5,0,1,0,5.51,5.5A5.5,5.5,0,0,0,428.85,390.51Z"/><path class="cls-5" d="M445.36,374a5.5,5.5,0,1,0,5.5,5.5A5.5,5.5,0,0,0,445.36,374Z"/><circle class="cls-5" cx="461.86" cy="396.01" r="5.5"/><path class="cls-5" d="M478.37,374a5.5,5.5,0,1,0,5.5,5.5A5.5,5.5,0,0,0,478.37,374Z"/><path class="cls-5" d="M494.87,390.51a5.5,5.5,0,1,0,5.5,5.5A5.5,5.5,0,0,0,494.87,390.51Z"/><path class="cls-5" d="M511.38,374a5.5,5.5,0,1,0,5.5,5.5A5.5,5.5,0,0,0,511.38,374Z"/><path class="cls-5" d="M527.88,390.51a5.5,5.5,0,1,0,5.5,5.5A5.5,5.5,0,0,0,527.88,390.51Z"/><path class="cls-5" d="M544.39,374a5.5,5.5,0,1,0,5.5,5.5A5.5,5.5,0,0,0,544.39,374Z"/><path class="cls-5" d="M560.89,390.51a5.5,5.5,0,1,0,5.5,5.5A5.5,5.5,0,0,0,560.89,390.51Z"/><path class="cls-5" d="M577.4,374a5.5,5.5,0,1,0,5.5,5.5A5.51,5.51,0,0,0,577.4,374Z"/><path class="cls-5" d="M593.9,390.51a5.5,5.5,0,1,0,5.5,5.5A5.5,5.5,0,0,0,593.9,390.51Z"/><path class="cls-5" d="M610.41,374a5.5,5.5,0,1,0,5.5,5.5A5.51,5.51,0,0,0,610.41,374Z"/><path class="cls-5" d="M626.91,390.51a5.5,5.5,0,1,0,5.5,5.5A5.5,5.5,0,0,0,626.91,390.51Z"/><path class="cls-5" d="M643.42,374a5.5,5.5,0,1,0,5.5,5.5A5.5,5.5,0,0,0,643.42,374Z"/><path class="cls-5" d="M659.92,390.51a5.5,5.5,0,1,0,5.5,5.5A5.5,5.5,0,0,0,659.92,390.51Z"/><path class="cls-5" d="M676.42,374a5.5,5.5,0,1,0,5.51,5.5A5.5,5.5,0,0,0,676.42,374Z"/><path class="cls-5" d="M692.93,390.51a5.5,5.5,0,1,0,5.5,5.5A5.5,5.5,0,0,0,692.93,390.51Z"/><path class="cls-5" d="M709.44,374a5.5,5.5,0,1,0,5.5,5.5A5.51,5.51,0,0,0,709.44,374Z"/><path class="cls-5" d="M725.94,390.51a5.5,5.5,0,1,0,5.5,5.5A5.5,5.5,0,0,0,725.94,390.51Z"/><path class="cls-5" d="M742.44,374a5.5,5.5,0,1,0,5.5,5.5A5.5,5.5,0,0,0,742.44,374Z"/><path class="cls-5" d="M759,390.51a5.5,5.5,0,1,0,5.5,5.5A5.5,5.5,0,0,0,759,390.51Z"/><path class="cls-5" d="M775.45,374a5.5,5.5,0,1,0,5.51,5.5A5.5,5.5,0,0,0,775.45,374Z"/><path class="cls-5" d="M792,390.51a5.5,5.5,0,1,0,5.5,5.5A5.5,5.5,0,0,0,792,390.51Z"/><path class="cls-5" d="M808.46,374a5.5,5.5,0,1,0,5.51,5.5A5.5,5.5,0,0,0,808.46,374Z"/><path class="cls-5" d="M825,390.51a5.5,5.5,0,1,0,5.5,5.5A5.5,5.5,0,0,0,825,390.51Z"/><path class="cls-5" d="M841.47,374a5.5,5.5,0,1,0,5.5,5.5A5.5,5.5,0,0,0,841.47,374Z"/><path class="cls-5" d="M858,390.51a5.5,5.5,0,1,0,5.5,5.5A5.5,5.5,0,0,0,858,390.51Z"/><path class="cls-5" d="M874.48,374a5.5,5.5,0,1,0,5.51,5.5A5.5,5.5,0,0,0,874.48,374Z"/><path class="cls-5" d="M891,390.51a5.5,5.5,0,1,0,5.5,5.5A5.5,5.5,0,0,0,891,390.51Z"/><path class="cls-5" d="M907.49,374a5.5,5.5,0,1,0,5.5,5.5A5.5,5.5,0,0,0,907.49,374Z"/><path class="cls-5" d="M924,390.51a5.5,5.5,0,1,0,5.5,5.5A5.5,5.5,0,0,0,924,390.51Z"/><path class="cls-5" d="M940.5,374a5.5,5.5,0,1,0,5.5,5.5A5.5,5.5,0,0,0,940.5,374Z"/><path class="cls-5" d="M957,390.51a5.5,5.5,0,1,0,5.5,5.5A5.51,5.51,0,0,0,957,390.51Z"/><path class="cls-5" d="M973.51,374a5.5,5.5,0,1,0,5.5,5.5A5.5,5.5,0,0,0,973.51,374Z"/><path class="cls-5" d="M990,390.51a5.5,5.5,0,1,0,5.5,5.5A5.51,5.51,0,0,0,990,390.51Z"/><path class="cls-5" d="M1006.52,374a5.5,5.5,0,1,0,5.5,5.5A5.5,5.5,0,0,0,1006.52,374Z"/><path class="cls-5" d="M1023,390.51a5.5,5.5,0,1,0,5.51,5.5A5.5,5.5,0,0,0,1023,390.51Z"/><path class="cls-5" d="M1039.53,374a5.5,5.5,0,1,0,5.5,5.5A5.5,5.5,0,0,0,1039.53,374Z"/><path class="cls-5" d="M1056,390.51a5.5,5.5,0,1,0,5.51,5.5A5.5,5.5,0,0,0,1056,390.51Z"/><path class="cls-5" d="M1072.54,385a5.51,5.51,0,0,0,4.88-2.95v0c-.54-2.33-1.12-4.69-1.69-7v0a5.5,5.5,0,1,0-3.19,10Z"/><path class="cls-5" d="M164.78,423.51a5.5,5.5,0,1,0,5.5,5.5A5.5,5.5,0,0,0,164.78,423.51Z"/><path class="cls-5" d="M181.28,407a5.5,5.5,0,1,0,5.5,5.5A5.5,5.5,0,0,0,181.28,407Z"/><path class="cls-5" d="M197.79,423.51a5.5,5.5,0,1,0,5.5,5.5A5.5,5.5,0,0,0,197.79,423.51Z"/><path class="cls-5" d="M214.29,407a5.5,5.5,0,1,0,5.5,5.5A5.5,5.5,0,0,0,214.29,407Z"/><path class="cls-5" d="M230.8,423.51a5.5,5.5,0,1,0,5.5,5.5A5.51,5.51,0,0,0,230.8,423.51Z"/><path class="cls-5" d="M247.3,407a5.5,5.5,0,1,0,5.5,5.5A5.5,5.5,0,0,0,247.3,407Z"/><path class="cls-5" d="M263.81,423.51a5.5,5.5,0,1,0,5.5,5.5A5.51,5.51,0,0,0,263.81,423.51Z"/><path class="cls-5" d="M280.31,407a5.5,5.5,0,1,0,5.5,5.5A5.5,5.5,0,0,0,280.31,407Z"/><path class="cls-5" d="M296.82,423.51a5.5,5.5,0,1,0,5.5,5.5A5.51,5.51,0,0,0,296.82,423.51Z"/><path class="cls-5" d="M313.32,407a5.5,5.5,0,1,0,5.5,5.5A5.5,5.5,0,0,0,313.32,407Z"/><path class="cls-5" d="M329.83,423.51a5.5,5.5,0,1,0,5.5,5.5A5.51,5.51,0,0,0,329.83,423.51Z"/><path class="cls-5" d="M346.33,407a5.5,5.5,0,1,0,5.5,5.5A5.5,5.5,0,0,0,346.33,407Z"/><path class="cls-5" d="M362.84,423.51a5.5,5.5,0,1,0,5.5,5.5A5.51,5.51,0,0,0,362.84,423.51Z"/><path class="cls-5" d="M379.34,407a5.5,5.5,0,1,0,5.5,5.5A5.5,5.5,0,0,0,379.34,407Z"/><path class="cls-5" d="M395.84,423.51a5.5,5.5,0,1,0,5.51,5.5A5.5,5.5,0,0,0,395.84,423.51Z"/><path class="cls-5" d="M412.35,407a5.5,5.5,0,1,0,5.5,5.5A5.5,5.5,0,0,0,412.35,407Z"/><path class="cls-5" d="M428.85,423.51a5.5,5.5,0,1,0,5.51,5.5A5.5,5.5,0,0,0,428.85,423.51Z"/><path class="cls-5" d="M445.36,407a5.5,5.5,0,1,0,5.5,5.5A5.5,5.5,0,0,0,445.36,407Z"/><path class="cls-5" d="M461.86,423.51a5.5,5.5,0,1,0,5.51,5.5A5.5,5.5,0,0,0,461.86,423.51Z"/><path class="cls-5" d="M478.37,407a5.5,5.5,0,1,0,5.5,5.5A5.5,5.5,0,0,0,478.37,407Z"/><path class="cls-5" d="M494.87,423.51a5.5,5.5,0,1,0,5.5,5.5A5.5,5.5,0,0,0,494.87,423.51Z"/><path class="cls-5" d="M511.38,407a5.5,5.5,0,1,0,5.5,5.5A5.5,5.5,0,0,0,511.38,407Z"/><path class="cls-5" d="M527.88,423.51a5.5,5.5,0,1,0,5.5,5.5A5.5,5.5,0,0,0,527.88,423.51Z"/><path class="cls-5" d="M544.39,407a5.5,5.5,0,1,0,5.5,5.5A5.5,5.5,0,0,0,544.39,407Z"/><path class="cls-5" d="M560.89,423.51a5.5,5.5,0,1,0,5.5,5.5A5.5,5.5,0,0,0,560.89,423.51Z"/><path class="cls-5" d="M577.4,407a5.5,5.5,0,1,0,5.5,5.5A5.51,5.51,0,0,0,577.4,407Z"/><path class="cls-5" d="M593.9,423.51a5.5,5.5,0,1,0,5.5,5.5A5.5,5.5,0,0,0,593.9,423.51Z"/><path class="cls-5" d="M610.41,407a5.5,5.5,0,1,0,5.5,5.5A5.51,5.51,0,0,0,610.41,407Z"/><path class="cls-5" d="M626.91,423.51a5.5,5.5,0,1,0,5.5,5.5A5.5,5.5,0,0,0,626.91,423.51Z"/><path class="cls-5" d="M643.42,407a5.5,5.5,0,1,0,5.5,5.5A5.5,5.5,0,0,0,643.42,407Z"/><path class="cls-5" d="M659.92,423.51a5.5,5.5,0,1,0,5.5,5.5A5.5,5.5,0,0,0,659.92,423.51Z"/><path class="cls-5" d="M676.42,407a5.5,5.5,0,1,0,5.51,5.5A5.5,5.5,0,0,0,676.42,407Z"/><path class="cls-5" d="M692.93,423.51a5.5,5.5,0,1,0,5.5,5.5A5.5,5.5,0,0,0,692.93,423.51Z"/><path class="cls-5" d="M709.44,407a5.5,5.5,0,1,0,5.5,5.5A5.51,5.51,0,0,0,709.44,407Z"/><path class="cls-5" d="M725.94,423.51a5.5,5.5,0,1,0,5.5,5.5A5.5,5.5,0,0,0,725.94,423.51Z"/><path class="cls-5" d="M742.44,407a5.5,5.5,0,1,0,5.5,5.5A5.5,5.5,0,0,0,742.44,407Z"/><path class="cls-5" d="M759,423.51a5.5,5.5,0,1,0,5.5,5.5A5.5,5.5,0,0,0,759,423.51Z"/><path class="cls-5" d="M775.45,407a5.5,5.5,0,1,0,5.51,5.5A5.5,5.5,0,0,0,775.45,407Z"/><path class="cls-5" d="M792,423.51a5.5,5.5,0,1,0,5.5,5.5A5.5,5.5,0,0,0,792,423.51Z"/><path class="cls-5" d="M808.46,407a5.5,5.5,0,1,0,5.51,5.5A5.5,5.5,0,0,0,808.46,407Z"/><path class="cls-5" d="M825,423.51a5.5,5.5,0,1,0,5.5,5.5A5.5,5.5,0,0,0,825,423.51Z"/><path class="cls-5" d="M841.47,407a5.5,5.5,0,1,0,5.5,5.5A5.5,5.5,0,0,0,841.47,407Z"/><path class="cls-5" d="M858,423.51a5.5,5.5,0,1,0,5.5,5.5A5.5,5.5,0,0,0,858,423.51Z"/><path class="cls-5" d="M874.48,407a5.5,5.5,0,1,0,5.51,5.5A5.5,5.5,0,0,0,874.48,407Z"/><path class="cls-5" d="M891,423.51a5.5,5.5,0,1,0,5.5,5.5A5.5,5.5,0,0,0,891,423.51Z"/><path class="cls-5" d="M907.49,407a5.5,5.5,0,1,0,5.5,5.5A5.5,5.5,0,0,0,907.49,407Z"/><path class="cls-5" d="M924,423.51a5.5,5.5,0,1,0,5.5,5.5A5.5,5.5,0,0,0,924,423.51Z"/><path class="cls-5" d="M940.5,407a5.5,5.5,0,1,0,5.5,5.5A5.5,5.5,0,0,0,940.5,407Z"/><path class="cls-5" d="M957,423.51a5.5,5.5,0,1,0,5.5,5.5A5.51,5.51,0,0,0,957,423.51Z"/><path class="cls-5" d="M973.51,407a5.5,5.5,0,1,0,5.5,5.5A5.5,5.5,0,0,0,973.51,407Z"/><path class="cls-5" d="M990,423.51a5.5,5.5,0,1,0,5.5,5.5A5.51,5.51,0,0,0,990,423.51Z"/><path class="cls-5" d="M1006.52,407a5.5,5.5,0,1,0,5.5,5.5A5.5,5.5,0,0,0,1006.52,407Z"/><path class="cls-5" d="M1023,423.51a5.5,5.5,0,1,0,5.51,5.5A5.5,5.5,0,0,0,1023,423.51Z"/><path class="cls-5" d="M1039.53,407a5.5,5.5,0,1,0,5.5,5.5A5.5,5.5,0,0,0,1039.53,407Z"/><path class="cls-5" d="M1056,423.51a5.5,5.5,0,1,0,5.51,5.5A5.5,5.5,0,0,0,1056,423.51Z"/><path class="cls-5" d="M1072.54,407a5.5,5.5,0,1,0,5.5,5.5A5.5,5.5,0,0,0,1072.54,407Z"/><path class="cls-5" d="M1086.25,433.74c-.33-2.91-.66-5.79-1.06-8.67a5.56,5.56,0,0,0-1.65,3.94A5.45,5.45,0,0,0,1086.25,433.74Z"/><path class="cls-5" d="M131.77,467.51a5.5,5.5,0,1,0-5.5-5.5A5.5,5.5,0,0,0,131.77,467.51Z"/><path class="cls-5" d="M148.27,440a5.5,5.5,0,1,0,5.51,5.5A5.5,5.5,0,0,0,148.27,440Z"/><path class="cls-5" d="M164.78,456.51a5.5,5.5,0,1,0,5.5,5.5A5.5,5.5,0,0,0,164.78,456.51Z"/><path class="cls-5" d="M181.28,440a5.5,5.5,0,1,0,5.5,5.5A5.5,5.5,0,0,0,181.28,440Z"/><path class="cls-5" d="M197.79,456.51a5.5,5.5,0,1,0,5.5,5.5A5.5,5.5,0,0,0,197.79,456.51Z"/><path class="cls-5" d="M214.29,440a5.5,5.5,0,1,0,5.5,5.5A5.5,5.5,0,0,0,214.29,440Z"/><path class="cls-5" d="M230.8,456.51a5.5,5.5,0,1,0,5.5,5.5A5.51,5.51,0,0,0,230.8,456.51Z"/><path class="cls-5" d="M247.3,440a5.5,5.5,0,1,0,5.5,5.5A5.5,5.5,0,0,0,247.3,440Z"/><path class="cls-5" d="M263.81,456.51a5.5,5.5,0,1,0,5.5,5.5A5.51,5.51,0,0,0,263.81,456.51Z"/><path class="cls-5" d="M280.31,440a5.5,5.5,0,1,0,5.5,5.5A5.5,5.5,0,0,0,280.31,440Z"/><path class="cls-5" d="M296.82,456.51a5.5,5.5,0,1,0,5.5,5.5A5.51,5.51,0,0,0,296.82,456.51Z"/><path class="cls-5" d="M313.32,440a5.5,5.5,0,1,0,5.5,5.5A5.5,5.5,0,0,0,313.32,440Z"/><path class="cls-5" d="M329.83,456.51a5.5,5.5,0,1,0,5.5,5.5A5.51,5.51,0,0,0,329.83,456.51Z"/><path class="cls-5" d="M346.33,440a5.5,5.5,0,1,0,5.5,5.5A5.5,5.5,0,0,0,346.33,440Z"/><path class="cls-5" d="M362.84,456.51a5.5,5.5,0,1,0,5.5,5.5A5.51,5.51,0,0,0,362.84,456.51Z"/><path class="cls-5" d="M379.34,440a5.5,5.5,0,1,0,5.5,5.5A5.5,5.5,0,0,0,379.34,440Z"/><path class="cls-5" d="M395.84,456.51a5.5,5.5,0,1,0,5.51,5.5A5.5,5.5,0,0,0,395.84,456.51Z"/><path class="cls-5" d="M412.35,440a5.5,5.5,0,1,0,5.5,5.5A5.5,5.5,0,0,0,412.35,440Z"/><path class="cls-5" d="M428.85,456.51a5.5,5.5,0,1,0,5.51,5.5A5.5,5.5,0,0,0,428.85,456.51Z"/><path class="cls-5" d="M445.36,440a5.5,5.5,0,1,0,5.5,5.5A5.5,5.5,0,0,0,445.36,440Z"/><path class="cls-5" d="M461.86,456.51a5.5,5.5,0,1,0,5.51,5.5A5.5,5.5,0,0,0,461.86,456.51Z"/><path class="cls-5" d="M478.37,440a5.5,5.5,0,1,0,5.5,5.5A5.5,5.5,0,0,0,478.37,440Z"/><path class="cls-5" d="M494.87,456.51a5.5,5.5,0,1,0,5.5,5.5A5.5,5.5,0,0,0,494.87,456.51Z"/><path class="cls-5" d="M511.38,440a5.5,5.5,0,1,0,5.5,5.5A5.5,5.5,0,0,0,511.38,440Z"/><path class="cls-5" d="M527.88,456.51a5.5,5.5,0,1,0,5.5,5.5A5.5,5.5,0,0,0,527.88,456.51Z"/><path class="cls-5" d="M544.39,440a5.5,5.5,0,1,0,5.5,5.5A5.5,5.5,0,0,0,544.39,440Z"/><path class="cls-5" d="M560.89,456.51a5.5,5.5,0,1,0,5.5,5.5A5.5,5.5,0,0,0,560.89,456.51Z"/><path class="cls-5" d="M577.4,440a5.5,5.5,0,1,0,5.5,5.5A5.51,5.51,0,0,0,577.4,440Z"/><path class="cls-5" d="M593.9,456.51a5.5,5.5,0,1,0,5.5,5.5A5.5,5.5,0,0,0,593.9,456.51Z"/><path class="cls-5" d="M610.41,440a5.5,5.5,0,1,0,5.5,5.5A5.51,5.51,0,0,0,610.41,440Z"/><path class="cls-5" d="M626.91,456.51a5.5,5.5,0,1,0,5.5,5.5A5.5,5.5,0,0,0,626.91,456.51Z"/><path class="cls-5" d="M643.42,440a5.5,5.5,0,1,0,5.5,5.5A5.5,5.5,0,0,0,643.42,440Z"/><path class="cls-5" d="M659.92,456.51a5.5,5.5,0,1,0,5.5,5.5A5.5,5.5,0,0,0,659.92,456.51Z"/><path class="cls-5" d="M676.42,440a5.5,5.5,0,1,0,5.51,5.5A5.5,5.5,0,0,0,676.42,440Z"/><path class="cls-5" d="M692.93,456.51a5.5,5.5,0,1,0,5.5,5.5A5.5,5.5,0,0,0,692.93,456.51Z"/><path class="cls-5" d="M709.44,440a5.5,5.5,0,1,0,5.5,5.5A5.51,5.51,0,0,0,709.44,440Z"/><path class="cls-5" d="M725.94,456.51a5.5,5.5,0,1,0,5.5,5.5A5.5,5.5,0,0,0,725.94,456.51Z"/><path class="cls-5" d="M742.44,440a5.5,5.5,0,1,0,5.5,5.5A5.5,5.5,0,0,0,742.44,440Z"/><path class="cls-5" d="M759,456.51a5.5,5.5,0,1,0,5.5,5.5A5.5,5.5,0,0,0,759,456.51Z"/><path class="cls-5" d="M775.45,440a5.5,5.5,0,1,0,5.51,5.5A5.5,5.5,0,0,0,775.45,440Z"/><path class="cls-5" d="M792,456.51a5.5,5.5,0,1,0,5.5,5.5A5.5,5.5,0,0,0,792,456.51Z"/><path class="cls-5" d="M808.46,440a5.5,5.5,0,1,0,5.51,5.5A5.5,5.5,0,0,0,808.46,440Z"/><path class="cls-5" d="M825,456.51a5.5,5.5,0,1,0,5.5,5.5A5.5,5.5,0,0,0,825,456.51Z"/><path class="cls-5" d="M841.47,440a5.5,5.5,0,1,0,5.5,5.5A5.5,5.5,0,0,0,841.47,440Z"/><path class="cls-5" d="M858,456.51a5.5,5.5,0,1,0,5.5,5.5A5.5,5.5,0,0,0,858,456.51Z"/><path class="cls-5" d="M874.48,440a5.5,5.5,0,1,0,5.51,5.5A5.5,5.5,0,0,0,874.48,440Z"/><path class="cls-5" d="M891,456.51a5.5,5.5,0,1,0,5.5,5.5A5.5,5.5,0,0,0,891,456.51Z"/><path class="cls-5" d="M907.49,440a5.5,5.5,0,1,0,5.5,5.5A5.5,5.5,0,0,0,907.49,440Z"/><path class="cls-5" d="M924,456.51a5.5,5.5,0,1,0,5.5,5.5A5.5,5.5,0,0,0,924,456.51Z"/><path class="cls-5" d="M940.5,440a5.5,5.5,0,1,0,5.5,5.5A5.5,5.5,0,0,0,940.5,440Z"/><path class="cls-5" d="M957,456.51a5.5,5.5,0,1,0,5.5,5.5A5.51,5.51,0,0,0,957,456.51Z"/><path class="cls-5" d="M973.51,440a5.5,5.5,0,1,0,5.5,5.5A5.5,5.5,0,0,0,973.51,440Z"/><path class="cls-5" d="M990,456.51a5.5,5.5,0,1,0,5.5,5.5A5.51,5.51,0,0,0,990,456.51Z"/><path class="cls-5" d="M1006.52,440a5.5,5.5,0,1,0,5.5,5.5A5.5,5.5,0,0,0,1006.52,440Z"/><path class="cls-5" d="M1023,456.51a5.5,5.5,0,1,0,5.51,5.5A5.5,5.5,0,0,0,1023,456.51Z"/><path class="cls-5" d="M1039.53,440a5.5,5.5,0,1,0,5.5,5.5A5.5,5.5,0,0,0,1039.53,440Z"/><path class="cls-5" d="M1056,456.51a5.5,5.5,0,1,0,5.51,5.5A5.5,5.5,0,0,0,1056,456.51Z"/><path class="cls-5" d="M1072.54,440a5.5,5.5,0,1,0,5.5,5.5A5.5,5.5,0,0,0,1072.54,440Z"/><path class="cls-5" d="M1088.74,467.49c-.11-3.65-.31-7.28-.53-10.91a5.49,5.49,0,0,0,.53,10.91Z"/><path class="cls-5" d="M115.26,473a5.14,5.14,0,0,0-1.3.15q-1.81,4-3.41,8.19a5.5,5.5,0,1,0,4.71-8.34Z"/><path class="cls-5" d="M131.77,500.51a5.5,5.5,0,1,0-5.5-5.5A5.5,5.5,0,0,0,131.77,500.51Z"/><path class="cls-5" d="M148.27,473a5.5,5.5,0,1,0,5.51,5.5A5.5,5.5,0,0,0,148.27,473Z"/><path class="cls-5" d="M164.78,489.51a5.5,5.5,0,1,0,5.5,5.5A5.5,5.5,0,0,0,164.78,489.51Z"/><path class="cls-5" d="M181.28,473a5.5,5.5,0,1,0,5.5,5.5A5.5,5.5,0,0,0,181.28,473Z"/><path class="cls-5" d="M197.79,489.51a5.5,5.5,0,1,0,5.5,5.5A5.5,5.5,0,0,0,197.79,489.51Z"/><path class="cls-5" d="M214.29,473a5.5,5.5,0,1,0,5.5,5.5A5.5,5.5,0,0,0,214.29,473Z"/><path class="cls-5" d="M230.8,489.51a5.5,5.5,0,1,0,5.5,5.5A5.51,5.51,0,0,0,230.8,489.51Z"/><path class="cls-5" d="M247.3,473a5.5,5.5,0,1,0,5.5,5.5A5.5,5.5,0,0,0,247.3,473Z"/><path class="cls-5" d="M263.81,489.51a5.5,5.5,0,1,0,5.5,5.5A5.51,5.51,0,0,0,263.81,489.51Z"/><path class="cls-5" d="M280.31,473a5.5,5.5,0,1,0,5.5,5.5A5.5,5.5,0,0,0,280.31,473Z"/><path class="cls-5" d="M296.82,489.51a5.5,5.5,0,1,0,5.5,5.5A5.51,5.51,0,0,0,296.82,489.51Z"/><path class="cls-5" d="M313.32,473a5.5,5.5,0,1,0,5.5,5.5A5.5,5.5,0,0,0,313.32,473Z"/><path class="cls-5" d="M329.83,489.51a5.5,5.5,0,1,0,5.5,5.5A5.51,5.51,0,0,0,329.83,489.51Z"/><path class="cls-5" d="M346.33,473a5.5,5.5,0,1,0,5.5,5.5A5.5,5.5,0,0,0,346.33,473Z"/><path class="cls-5" d="M362.84,489.51a5.5,5.5,0,1,0,5.5,5.5A5.51,5.51,0,0,0,362.84,489.51Z"/><path class="cls-5" d="M379.34,473a5.5,5.5,0,1,0,5.5,5.5A5.5,5.5,0,0,0,379.34,473Z"/><path class="cls-5" d="M395.84,489.51a5.5,5.5,0,1,0,5.51,5.5A5.5,5.5,0,0,0,395.84,489.51Z"/><path class="cls-5" d="M412.35,473a5.5,5.5,0,1,0,5.5,5.5A5.5,5.5,0,0,0,412.35,473Z"/><path class="cls-5" d="M428.85,489.51a5.5,5.5,0,1,0,5.51,5.5A5.5,5.5,0,0,0,428.85,489.51Z"/><path class="cls-5" d="M445.36,473a5.5,5.5,0,1,0,5.5,5.5A5.5,5.5,0,0,0,445.36,473Z"/><path class="cls-5" d="M461.86,489.51a5.5,5.5,0,1,0,5.51,5.5A5.5,5.5,0,0,0,461.86,489.51Z"/><path class="cls-5" d="M478.37,473a5.5,5.5,0,1,0,5.5,5.5A5.5,5.5,0,0,0,478.37,473Z"/><path class="cls-5" d="M494.87,489.51a5.5,5.5,0,1,0,5.5,5.5A5.5,5.5,0,0,0,494.87,489.51Z"/><path class="cls-5" d="M511.38,473a5.5,5.5,0,1,0,5.5,5.5A5.5,5.5,0,0,0,511.38,473Z"/><path class="cls-5" d="M527.88,489.51a5.5,5.5,0,1,0,5.5,5.5A5.5,5.5,0,0,0,527.88,489.51Z"/><path class="cls-5" d="M544.39,473a5.5,5.5,0,1,0,5.5,5.5A5.5,5.5,0,0,0,544.39,473Z"/><path class="cls-5" d="M560.89,489.51a5.5,5.5,0,1,0,5.5,5.5A5.5,5.5,0,0,0,560.89,489.51Z"/><path class="cls-5" d="M577.4,473a5.5,5.5,0,1,0,5.5,5.5A5.51,5.51,0,0,0,577.4,473Z"/><path class="cls-5" d="M593.9,489.51a5.5,5.5,0,1,0,5.5,5.5A5.5,5.5,0,0,0,593.9,489.51Z"/><path class="cls-5" d="M610.41,473a5.5,5.5,0,1,0,5.5,5.5A5.51,5.51,0,0,0,610.41,473Z"/><path class="cls-5" d="M626.91,489.51a5.5,5.5,0,1,0,5.5,5.5A5.5,5.5,0,0,0,626.91,489.51Z"/><path class="cls-5" d="M643.42,473a5.5,5.5,0,1,0,5.5,5.5A5.5,5.5,0,0,0,643.42,473Z"/><path class="cls-5" d="M659.92,489.51a5.5,5.5,0,1,0,5.5,5.5A5.5,5.5,0,0,0,659.92,489.51Z"/><path class="cls-5" d="M676.42,473a5.5,5.5,0,1,0,5.51,5.5A5.5,5.5,0,0,0,676.42,473Z"/><path class="cls-5" d="M692.93,489.51a5.5,5.5,0,1,0,5.5,5.5A5.5,5.5,0,0,0,692.93,489.51Z"/><path class="cls-5" d="M709.44,473a5.5,5.5,0,1,0,5.5,5.5A5.51,5.51,0,0,0,709.44,473Z"/><path class="cls-5" d="M725.94,489.51a5.5,5.5,0,1,0,5.5,5.5A5.5,5.5,0,0,0,725.94,489.51Z"/><path class="cls-5" d="M742.44,473a5.5,5.5,0,1,0,5.5,5.5A5.5,5.5,0,0,0,742.44,473Z"/><path class="cls-5" d="M759,489.51a5.5,5.5,0,1,0,5.5,5.5A5.5,5.5,0,0,0,759,489.51Z"/><path class="cls-5" d="M775.45,473a5.5,5.5,0,1,0,5.51,5.5A5.5,5.5,0,0,0,775.45,473Z"/><path class="cls-5" d="M792,489.51a5.5,5.5,0,1,0,5.5,5.5A5.5,5.5,0,0,0,792,489.51Z"/><path class="cls-5" d="M808.46,473a5.5,5.5,0,1,0,5.51,5.5A5.5,5.5,0,0,0,808.46,473Z"/><path class="cls-5" d="M825,489.51a5.5,5.5,0,1,0,5.5,5.5A5.5,5.5,0,0,0,825,489.51Z"/><path class="cls-5" d="M841.47,473a5.5,5.5,0,1,0,5.5,5.5A5.5,5.5,0,0,0,841.47,473Z"/><path class="cls-5" d="M858,489.51a5.5,5.5,0,1,0,5.5,5.5A5.5,5.5,0,0,0,858,489.51Z"/><path class="cls-5" d="M874.48,473a5.5,5.5,0,1,0,5.51,5.5A5.5,5.5,0,0,0,874.48,473Z"/><path class="cls-5" d="M891,489.51a5.5,5.5,0,1,0,5.5,5.5A5.5,5.5,0,0,0,891,489.51Z"/><path class="cls-5" d="M907.49,473a5.5,5.5,0,1,0,5.5,5.5A5.5,5.5,0,0,0,907.49,473Z"/><path class="cls-5" d="M924,489.51a5.5,5.5,0,1,0,5.5,5.5A5.5,5.5,0,0,0,924,489.51Z"/><path class="cls-5" d="M940.5,473a5.5,5.5,0,1,0,5.5,5.5A5.5,5.5,0,0,0,940.5,473Z"/><path class="cls-5" d="M957,489.51a5.5,5.5,0,1,0,5.5,5.5A5.51,5.51,0,0,0,957,489.51Z"/><path class="cls-5" d="M973.51,473a5.5,5.5,0,1,0,5.5,5.5A5.5,5.5,0,0,0,973.51,473Z"/><path class="cls-5" d="M990,489.51a5.5,5.5,0,1,0,5.5,5.5A5.51,5.51,0,0,0,990,489.51Z"/><path class="cls-5" d="M1006.52,473a5.5,5.5,0,1,0,5.5,5.5A5.5,5.5,0,0,0,1006.52,473Z"/><path class="cls-5" d="M1023,489.51a5.5,5.5,0,1,0,5.51,5.5A5.5,5.5,0,0,0,1023,489.51Z"/><path class="cls-5" d="M1039.53,473a5.5,5.5,0,1,0,5.5,5.5A5.5,5.5,0,0,0,1039.53,473Z"/><path class="cls-5" d="M1056,489.51a5.5,5.5,0,1,0,5.51,5.5A5.5,5.5,0,0,0,1056,489.51Z"/><path class="cls-5" d="M1072.54,473a5.5,5.5,0,1,0,5.5,5.5A5.5,5.5,0,0,0,1072.54,473Z"/><path class="cls-5" d="M1083.54,495a5.51,5.51,0,0,0,5.2,5.48c.13-3.68.22-7.33.26-11A5.51,5.51,0,0,0,1083.54,495Z"/><path class="cls-5" d="M100.19,522.71c-.44,3.54-.79,7.15-1,10.78a5.49,5.49,0,0,0,1-10.78Z"/><path class="cls-5" d="M115.26,506a5.5,5.5,0,1,0,5.5,5.5A5.5,5.5,0,0,0,115.26,506Z"/><path class="cls-5" d="M131.77,533.51a5.5,5.5,0,1,0-5.5-5.5A5.5,5.5,0,0,0,131.77,533.51Z"/><path class="cls-5" d="M148.27,506a5.5,5.5,0,1,0,5.51,5.5A5.5,5.5,0,0,0,148.27,506Z"/><path class="cls-5" d="M164.78,522.51a5.5,5.5,0,1,0,5.5,5.5A5.5,5.5,0,0,0,164.78,522.51Z"/><path class="cls-5" d="M181.28,506a5.5,5.5,0,1,0,5.5,5.5A5.5,5.5,0,0,0,181.28,506Z"/><path class="cls-5" d="M197.79,522.51a5.5,5.5,0,1,0,5.5,5.5A5.5,5.5,0,0,0,197.79,522.51Z"/><path class="cls-5" d="M214.29,506a5.5,5.5,0,1,0,5.5,5.5A5.5,5.5,0,0,0,214.29,506Z"/><path class="cls-5" d="M230.8,522.51a5.5,5.5,0,1,0,5.5,5.5A5.51,5.51,0,0,0,230.8,522.51Z"/><path class="cls-5" d="M247.3,506a5.5,5.5,0,1,0,5.5,5.5A5.5,5.5,0,0,0,247.3,506Z"/><path class="cls-5" d="M263.81,522.51a5.5,5.5,0,1,0,5.5,5.5A5.51,5.51,0,0,0,263.81,522.51Z"/><path class="cls-5" d="M280.31,506a5.5,5.5,0,1,0,5.5,5.5A5.5,5.5,0,0,0,280.31,506Z"/><path class="cls-5" d="M296.82,522.51a5.5,5.5,0,1,0,5.5,5.5A5.51,5.51,0,0,0,296.82,522.51Z"/><path class="cls-5" d="M313.32,506a5.5,5.5,0,1,0,5.5,5.5A5.5,5.5,0,0,0,313.32,506Z"/><path class="cls-5" d="M329.83,522.51a5.5,5.5,0,1,0,5.5,5.5A5.51,5.51,0,0,0,329.83,522.51Z"/><path class="cls-5" d="M346.33,506a5.5,5.5,0,1,0,5.5,5.5A5.5,5.5,0,0,0,346.33,506Z"/><path class="cls-5" d="M362.84,522.51a5.5,5.5,0,1,0,5.5,5.5A5.51,5.51,0,0,0,362.84,522.51Z"/><path class="cls-5" d="M379.34,506a5.5,5.5,0,1,0,5.5,5.5A5.5,5.5,0,0,0,379.34,506Z"/><path class="cls-5" d="M395.84,522.51a5.5,5.5,0,1,0,5.51,5.5A5.5,5.5,0,0,0,395.84,522.51Z"/><path class="cls-5" d="M412.35,506a5.5,5.5,0,1,0,5.5,5.5A5.5,5.5,0,0,0,412.35,506Z"/><path class="cls-5" d="M428.85,522.51a5.5,5.5,0,1,0,5.51,5.5A5.5,5.5,0,0,0,428.85,522.51Z"/><path class="cls-5" d="M445.36,506a5.5,5.5,0,1,0,5.5,5.5A5.5,5.5,0,0,0,445.36,506Z"/><circle class="cls-5" cx="461.86" cy="528.01" r="5.5"/><path class="cls-5" d="M478.37,506a5.5,5.5,0,1,0,5.5,5.5A5.5,5.5,0,0,0,478.37,506Z"/><path class="cls-5" d="M494.87,522.51a5.5,5.5,0,1,0,5.5,5.5A5.5,5.5,0,0,0,494.87,522.51Z"/><path class="cls-5" d="M511.38,506a5.5,5.5,0,1,0,5.5,5.5A5.5,5.5,0,0,0,511.38,506Z"/><path class="cls-5" d="M527.88,522.51a5.5,5.5,0,1,0,5.5,5.5A5.5,5.5,0,0,0,527.88,522.51Z"/><path class="cls-5" d="M544.39,506a5.5,5.5,0,1,0,5.5,5.5A5.5,5.5,0,0,0,544.39,506Z"/><path class="cls-5" d="M560.89,522.51a5.5,5.5,0,1,0,5.5,5.5A5.5,5.5,0,0,0,560.89,522.51Z"/><path class="cls-5" d="M577.4,506a5.5,5.5,0,1,0,5.5,5.5A5.51,5.51,0,0,0,577.4,506Z"/><path class="cls-5" d="M593.9,522.51a5.5,5.5,0,1,0,5.5,5.5A5.5,5.5,0,0,0,593.9,522.51Z"/><path class="cls-5" d="M610.41,506a5.5,5.5,0,1,0,5.5,5.5A5.51,5.51,0,0,0,610.41,506Z"/><path class="cls-5" d="M626.91,522.51a5.5,5.5,0,1,0,5.5,5.5A5.5,5.5,0,0,0,626.91,522.51Z"/><path class="cls-5" d="M643.42,506a5.5,5.5,0,1,0,5.5,5.5A5.5,5.5,0,0,0,643.42,506Z"/><path class="cls-5" d="M659.92,522.51a5.5,5.5,0,1,0,5.5,5.5A5.5,5.5,0,0,0,659.92,522.51Z"/><path class="cls-5" d="M676.42,506a5.5,5.5,0,1,0,5.51,5.5A5.5,5.5,0,0,0,676.42,506Z"/><path class="cls-5" d="M692.93,522.51a5.5,5.5,0,1,0,5.5,5.5A5.5,5.5,0,0,0,692.93,522.51Z"/><path class="cls-5" d="M709.44,506a5.5,5.5,0,1,0,5.5,5.5A5.51,5.51,0,0,0,709.44,506Z"/><path class="cls-5" d="M725.94,522.51a5.5,5.5,0,1,0,5.5,5.5A5.5,5.5,0,0,0,725.94,522.51Z"/><path class="cls-5" d="M742.44,506a5.5,5.5,0,1,0,5.5,5.5A5.5,5.5,0,0,0,742.44,506Z"/><path class="cls-5" d="M759,522.51a5.5,5.5,0,1,0,5.5,5.5A5.5,5.5,0,0,0,759,522.51Z"/><path class="cls-5" d="M775.45,506a5.5,5.5,0,1,0,5.51,5.5A5.5,5.5,0,0,0,775.45,506Z"/><path class="cls-5" d="M792,522.51a5.5,5.5,0,1,0,5.5,5.5A5.5,5.5,0,0,0,792,522.51Z"/><path class="cls-5" d="M808.46,506a5.5,5.5,0,1,0,5.51,5.5A5.5,5.5,0,0,0,808.46,506Z"/><path class="cls-5" d="M825,522.51a5.5,5.5,0,1,0,5.5,5.5A5.5,5.5,0,0,0,825,522.51Z"/><path class="cls-5" d="M841.47,506a5.5,5.5,0,1,0,5.5,5.5A5.5,5.5,0,0,0,841.47,506Z"/><path class="cls-5" d="M858,522.51a5.5,5.5,0,1,0,5.5,5.5A5.5,5.5,0,0,0,858,522.51Z"/><path class="cls-5" d="M874.48,506a5.5,5.5,0,1,0,5.51,5.5A5.5,5.5,0,0,0,874.48,506Z"/><path class="cls-5" d="M891,522.51a5.5,5.5,0,1,0,5.5,5.5A5.5,5.5,0,0,0,891,522.51Z"/><path class="cls-5" d="M907.49,506a5.5,5.5,0,1,0,5.5,5.5A5.5,5.5,0,0,0,907.49,506Z"/><path class="cls-5" d="M924,522.51a5.5,5.5,0,1,0,5.5,5.5A5.5,5.5,0,0,0,924,522.51Z"/><path class="cls-5" d="M940.5,506a5.5,5.5,0,1,0,5.5,5.5A5.5,5.5,0,0,0,940.5,506Z"/><path class="cls-5" d="M957,522.51a5.5,5.5,0,1,0,5.5,5.5A5.51,5.51,0,0,0,957,522.51Z"/><path class="cls-5" d="M973.51,506a5.5,5.5,0,1,0,5.5,5.5A5.5,5.5,0,0,0,973.51,506Z"/><path class="cls-5" d="M990,522.51a5.5,5.5,0,1,0,5.5,5.5A5.51,5.51,0,0,0,990,522.51Z"/><path class="cls-5" d="M1006.52,506a5.5,5.5,0,1,0,5.5,5.5A5.5,5.5,0,0,0,1006.52,506Z"/><path class="cls-5" d="M1023,522.51a5.5,5.5,0,1,0,5.51,5.5A5.5,5.5,0,0,0,1023,522.51Z"/><path class="cls-5" d="M1039.53,506a5.5,5.5,0,1,0,5.5,5.5A5.5,5.5,0,0,0,1039.53,506Z"/><path class="cls-5" d="M1056,522.51a5.5,5.5,0,1,0,5.51,5.5A5.5,5.5,0,0,0,1056,522.51Z"/><path class="cls-5" d="M1072.54,506a5.5,5.5,0,1,0,5.5,5.5A5.5,5.5,0,0,0,1072.54,506Z"/><path class="cls-5" d="M1083.54,528a5.53,5.53,0,0,0,2.8,4.8c.37-3.35.7-6.69,1-10A5.51,5.51,0,0,0,1083.54,528Z"/><path class="cls-5" d="M99,555.51c.18,3.59.44,7.24.84,10.89A5.5,5.5,0,0,0,99,555.51Z"/><path class="cls-5" d="M115.26,539a5.5,5.5,0,1,0,5.5,5.5A5.5,5.5,0,0,0,115.26,539Z"/><path class="cls-5" d="M131.77,566.51a5.5,5.5,0,1,0-5.5-5.5A5.5,5.5,0,0,0,131.77,566.51Z"/><path class="cls-5" d="M148.27,539a5.5,5.5,0,1,0,5.51,5.5A5.5,5.5,0,0,0,148.27,539Z"/><path class="cls-5" d="M164.78,555.51a5.5,5.5,0,1,0,5.5,5.5A5.5,5.5,0,0,0,164.78,555.51Z"/><path class="cls-5" d="M181.28,539a5.5,5.5,0,1,0,5.5,5.5A5.5,5.5,0,0,0,181.28,539Z"/><path class="cls-5" d="M197.79,555.51a5.5,5.5,0,1,0,5.5,5.5A5.5,5.5,0,0,0,197.79,555.51Z"/><path class="cls-5" d="M214.29,539a5.5,5.5,0,1,0,5.5,5.5A5.5,5.5,0,0,0,214.29,539Z"/><path class="cls-5" d="M230.8,555.51a5.5,5.5,0,1,0,5.5,5.5A5.51,5.51,0,0,0,230.8,555.51Z"/><path class="cls-5" d="M247.3,539a5.5,5.5,0,1,0,5.5,5.5A5.5,5.5,0,0,0,247.3,539Z"/><path class="cls-5" d="M263.81,555.51a5.5,5.5,0,1,0,5.5,5.5A5.51,5.51,0,0,0,263.81,555.51Z"/><path class="cls-5" d="M280.31,539a5.5,5.5,0,1,0,5.5,5.5A5.5,5.5,0,0,0,280.31,539Z"/><path class="cls-5" d="M296.82,555.51a5.5,5.5,0,1,0,5.5,5.5A5.51,5.51,0,0,0,296.82,555.51Z"/><path class="cls-5" d="M313.32,539a5.5,5.5,0,1,0,5.5,5.5A5.5,5.5,0,0,0,313.32,539Z"/><path class="cls-5" d="M329.83,555.51a5.5,5.5,0,1,0,5.5,5.5A5.51,5.51,0,0,0,329.83,555.51Z"/><path class="cls-5" d="M346.33,539a5.5,5.5,0,1,0,5.5,5.5A5.5,5.5,0,0,0,346.33,539Z"/><path class="cls-5" d="M362.84,555.51a5.5,5.5,0,1,0,5.5,5.5A5.51,5.51,0,0,0,362.84,555.51Z"/><path class="cls-5" d="M379.34,539a5.5,5.5,0,1,0,5.5,5.5A5.5,5.5,0,0,0,379.34,539Z"/><path class="cls-5" d="M395.84,555.51a5.5,5.5,0,1,0,5.51,5.5A5.51,5.51,0,0,0,395.84,555.51Z"/><path class="cls-5" d="M412.35,539a5.5,5.5,0,1,0,5.5,5.5A5.5,5.5,0,0,0,412.35,539Z"/><path class="cls-5" d="M428.85,555.51a5.5,5.5,0,1,0,5.51,5.5A5.51,5.51,0,0,0,428.85,555.51Z"/><path class="cls-5" d="M445.36,539a5.5,5.5,0,1,0,5.5,5.5A5.5,5.5,0,0,0,445.36,539Z"/><path class="cls-5" d="M461.86,555.51a5.5,5.5,0,1,0,5.51,5.5A5.51,5.51,0,0,0,461.86,555.51Z"/><path class="cls-5" d="M478.37,539a5.5,5.5,0,1,0,5.5,5.5A5.5,5.5,0,0,0,478.37,539Z"/><path class="cls-5" d="M494.87,555.51a5.5,5.5,0,1,0,5.5,5.5A5.51,5.51,0,0,0,494.87,555.51Z"/><path class="cls-5" d="M511.38,539a5.5,5.5,0,1,0,5.5,5.5A5.5,5.5,0,0,0,511.38,539Z"/><path class="cls-5" d="M527.88,555.51a5.5,5.5,0,1,0,5.5,5.5A5.5,5.5,0,0,0,527.88,555.51Z"/><path class="cls-5" d="M544.39,539a5.5,5.5,0,1,0,5.5,5.5A5.5,5.5,0,0,0,544.39,539Z"/><path class="cls-5" d="M560.89,555.51a5.5,5.5,0,1,0,5.5,5.5A5.5,5.5,0,0,0,560.89,555.51Z"/><path class="cls-5" d="M577.4,539a5.5,5.5,0,1,0,5.5,5.5A5.51,5.51,0,0,0,577.4,539Z"/><path class="cls-5" d="M593.9,555.51a5.5,5.5,0,1,0,5.5,5.5A5.5,5.5,0,0,0,593.9,555.51Z"/><path class="cls-5" d="M610.41,539a5.5,5.5,0,1,0,5.5,5.5A5.51,5.51,0,0,0,610.41,539Z"/><path class="cls-5" d="M626.91,555.51a5.5,5.5,0,1,0,5.5,5.5A5.5,5.5,0,0,0,626.91,555.51Z"/><path class="cls-5" d="M643.42,539a5.5,5.5,0,1,0,5.5,5.5A5.5,5.5,0,0,0,643.42,539Z"/><path class="cls-5" d="M659.92,555.51a5.5,5.5,0,1,0,5.5,5.5A5.5,5.5,0,0,0,659.92,555.51Z"/><path class="cls-5" d="M676.42,539a5.5,5.5,0,1,0,5.51,5.5A5.5,5.5,0,0,0,676.42,539Z"/><path class="cls-5" d="M692.93,555.51a5.5,5.5,0,1,0,5.5,5.5A5.5,5.5,0,0,0,692.93,555.51Z"/><path class="cls-5" d="M709.44,539a5.5,5.5,0,1,0,5.5,5.5A5.51,5.51,0,0,0,709.44,539Z"/><path class="cls-5" d="M725.94,555.51a5.5,5.5,0,1,0,5.5,5.5A5.5,5.5,0,0,0,725.94,555.51Z"/><path class="cls-5" d="M742.44,539a5.5,5.5,0,1,0,5.5,5.5A5.5,5.5,0,0,0,742.44,539Z"/><path class="cls-5" d="M759,555.51a5.5,5.5,0,1,0,5.5,5.5A5.5,5.5,0,0,0,759,555.51Z"/><path class="cls-5" d="M775.45,539a5.5,5.5,0,1,0,5.51,5.5A5.5,5.5,0,0,0,775.45,539Z"/><path class="cls-5" d="M792,555.51a5.5,5.5,0,1,0,5.5,5.5A5.5,5.5,0,0,0,792,555.51Z"/><path class="cls-5" d="M808.46,539a5.5,5.5,0,1,0,5.51,5.5A5.5,5.5,0,0,0,808.46,539Z"/><path class="cls-5" d="M825,555.51a5.5,5.5,0,1,0,5.5,5.5A5.5,5.5,0,0,0,825,555.51Z"/><path class="cls-5" d="M841.47,539a5.5,5.5,0,1,0,5.5,5.5A5.5,5.5,0,0,0,841.47,539Z"/><path class="cls-5" d="M858,555.51a5.5,5.5,0,1,0,5.5,5.5A5.5,5.5,0,0,0,858,555.51Z"/><path class="cls-5" d="M874.48,539a5.5,5.5,0,1,0,5.51,5.5A5.5,5.5,0,0,0,874.48,539Z"/><path class="cls-5" d="M891,555.51a5.5,5.5,0,1,0,5.5,5.5A5.5,5.5,0,0,0,891,555.51Z"/><path class="cls-5" d="M907.49,539a5.5,5.5,0,1,0,5.5,5.5A5.5,5.5,0,0,0,907.49,539Z"/><path class="cls-5" d="M924,555.51a5.5,5.5,0,1,0,5.5,5.5A5.5,5.5,0,0,0,924,555.51Z"/><path class="cls-5" d="M940.5,539a5.5,5.5,0,1,0,5.5,5.5A5.5,5.5,0,0,0,940.5,539Z"/><path class="cls-5" d="M957,555.51a5.5,5.5,0,1,0,5.5,5.5A5.51,5.51,0,0,0,957,555.51Z"/><path class="cls-5" d="M973.51,539a5.5,5.5,0,1,0,5.5,5.5A5.5,5.5,0,0,0,973.51,539Z"/><path class="cls-5" d="M990,555.51a5.5,5.5,0,1,0,5.5,5.5A5.51,5.51,0,0,0,990,555.51Z"/><path class="cls-5" d="M1006.52,539a5.5,5.5,0,1,0,5.5,5.5A5.5,5.5,0,0,0,1006.52,539Z"/><path class="cls-5" d="M1023,555.51a5.5,5.5,0,1,0,5.51,5.5A5.51,5.51,0,0,0,1023,555.51Z"/><path class="cls-5" d="M1039.53,539a5.5,5.5,0,1,0,5.5,5.5A5.5,5.5,0,0,0,1039.53,539Z"/><path class="cls-5" d="M1056,555.51a5.5,5.5,0,1,0,5.51,5.5A5.51,5.51,0,0,0,1056,555.51Z"/><path class="cls-5" d="M1072.54,539a5.5,5.5,0,1,0,5.5,5.5A5.5,5.5,0,0,0,1072.54,539Z"/><path class="cls-5" d="M115.26,572a5.5,5.5,0,1,0,5.5,5.5A5.5,5.5,0,0,0,115.26,572Z"/><path class="cls-5" d="M131.77,599.51a5.5,5.5,0,1,0-5.5-5.5A5.5,5.5,0,0,0,131.77,599.51Z"/><path class="cls-5" d="M148.27,572a5.5,5.5,0,1,0,5.51,5.5A5.5,5.5,0,0,0,148.27,572Z"/><path class="cls-5" d="M164.78,588.51a5.5,5.5,0,1,0,5.5,5.5A5.5,5.5,0,0,0,164.78,588.51Z"/><path class="cls-5" d="M181.28,572a5.5,5.5,0,1,0,5.5,5.5A5.5,5.5,0,0,0,181.28,572Z"/><path class="cls-5" d="M197.79,588.51a5.5,5.5,0,1,0,5.5,5.5A5.5,5.5,0,0,0,197.79,588.51Z"/><path class="cls-5" d="M214.29,572a5.5,5.5,0,1,0,5.5,5.5A5.5,5.5,0,0,0,214.29,572Z"/><path class="cls-5" d="M230.8,588.51a5.5,5.5,0,1,0,5.5,5.5A5.51,5.51,0,0,0,230.8,588.51Z"/><path class="cls-5" d="M247.3,572a5.5,5.5,0,1,0,5.5,5.5A5.5,5.5,0,0,0,247.3,572Z"/><path class="cls-5" d="M263.81,588.51a5.5,5.5,0,1,0,5.5,5.5A5.51,5.51,0,0,0,263.81,588.51Z"/><path class="cls-5" d="M280.31,572a5.5,5.5,0,1,0,5.5,5.5A5.5,5.5,0,0,0,280.31,572Z"/><path class="cls-5" d="M296.82,588.51a5.5,5.5,0,1,0,5.5,5.5A5.51,5.51,0,0,0,296.82,588.51Z"/><path class="cls-5" d="M313.32,572a5.5,5.5,0,1,0,5.5,5.5A5.5,5.5,0,0,0,313.32,572Z"/><path class="cls-5" d="M329.83,588.51a5.5,5.5,0,1,0,5.5,5.5A5.51,5.51,0,0,0,329.83,588.51Z"/><path class="cls-5" d="M346.33,572a5.5,5.5,0,1,0,5.5,5.5A5.5,5.5,0,0,0,346.33,572Z"/><path class="cls-5" d="M362.84,588.51a5.5,5.5,0,1,0,5.5,5.5A5.51,5.51,0,0,0,362.84,588.51Z"/><path class="cls-5" d="M379.34,572a5.5,5.5,0,1,0,5.5,5.5A5.5,5.5,0,0,0,379.34,572Z"/><path class="cls-5" d="M395.84,588.51a5.5,5.5,0,1,0,5.51,5.5A5.51,5.51,0,0,0,395.84,588.51Z"/><path class="cls-5" d="M412.35,572a5.5,5.5,0,1,0,5.5,5.5A5.5,5.5,0,0,0,412.35,572Z"/><path class="cls-5" d="M428.85,588.51a5.5,5.5,0,1,0,5.51,5.5A5.51,5.51,0,0,0,428.85,588.51Z"/><path class="cls-5" d="M445.36,572a5.5,5.5,0,1,0,5.5,5.5A5.5,5.5,0,0,0,445.36,572Z"/><path class="cls-5" d="M461.86,588.51a5.5,5.5,0,1,0,5.51,5.5A5.51,5.51,0,0,0,461.86,588.51Z"/><path class="cls-5" d="M478.37,572a5.5,5.5,0,1,0,5.5,5.5A5.5,5.5,0,0,0,478.37,572Z"/><path class="cls-5" d="M494.87,588.51a5.5,5.5,0,1,0,5.5,5.5A5.51,5.51,0,0,0,494.87,588.51Z"/><path class="cls-5" d="M511.38,572a5.5,5.5,0,1,0,5.5,5.5A5.5,5.5,0,0,0,511.38,572Z"/><path class="cls-5" d="M527.88,588.51a5.5,5.5,0,1,0,5.5,5.5A5.5,5.5,0,0,0,527.88,588.51Z"/><path class="cls-5" d="M544.39,572a5.5,5.5,0,1,0,5.5,5.5A5.5,5.5,0,0,0,544.39,572Z"/><path class="cls-5" d="M560.89,588.51a5.5,5.5,0,1,0,5.5,5.5A5.5,5.5,0,0,0,560.89,588.51Z"/><path class="cls-5" d="M577.4,572a5.5,5.5,0,1,0,5.5,5.5A5.51,5.51,0,0,0,577.4,572Z"/><path class="cls-5" d="M593.9,588.51a5.5,5.5,0,1,0,5.5,5.5A5.5,5.5,0,0,0,593.9,588.51Z"/><path class="cls-5" d="M610.41,572a5.5,5.5,0,1,0,5.5,5.5A5.51,5.51,0,0,0,610.41,572Z"/><path class="cls-5" d="M626.91,588.51a5.5,5.5,0,1,0,5.5,5.5A5.5,5.5,0,0,0,626.91,588.51Z"/><path class="cls-5" d="M643.42,572a5.5,5.5,0,1,0,5.5,5.5A5.5,5.5,0,0,0,643.42,572Z"/><path class="cls-5" d="M659.92,588.51a5.5,5.5,0,1,0,5.5,5.5A5.5,5.5,0,0,0,659.92,588.51Z"/><path class="cls-5" d="M676.42,572a5.5,5.5,0,1,0,5.51,5.5A5.51,5.51,0,0,0,676.42,572Z"/><path class="cls-5" d="M692.93,588.51a5.5,5.5,0,1,0,5.5,5.5A5.5,5.5,0,0,0,692.93,588.51Z"/><path class="cls-5" d="M709.44,572a5.5,5.5,0,1,0,5.5,5.5A5.51,5.51,0,0,0,709.44,572Z"/><path class="cls-5" d="M725.94,588.51a5.5,5.5,0,1,0,5.5,5.5A5.5,5.5,0,0,0,725.94,588.51Z"/><path class="cls-5" d="M742.44,572a5.5,5.5,0,1,0,5.5,5.5A5.51,5.51,0,0,0,742.44,572Z"/><path class="cls-5" d="M759,588.51a5.5,5.5,0,1,0,5.5,5.5A5.5,5.5,0,0,0,759,588.51Z"/><path class="cls-5" d="M775.45,572a5.5,5.5,0,1,0,5.51,5.5A5.51,5.51,0,0,0,775.45,572Z"/><path class="cls-5" d="M792,588.51a5.5,5.5,0,1,0,5.5,5.5A5.5,5.5,0,0,0,792,588.51Z"/><path class="cls-5" d="M808.46,572a5.5,5.5,0,1,0,5.51,5.5A5.51,5.51,0,0,0,808.46,572Z"/><path class="cls-5" d="M825,588.51a5.5,5.5,0,1,0,5.5,5.5A5.5,5.5,0,0,0,825,588.51Z"/><path class="cls-5" d="M841.47,572a5.5,5.5,0,1,0,5.5,5.5A5.5,5.5,0,0,0,841.47,572Z"/><path class="cls-5" d="M858,588.51a5.5,5.5,0,1,0,5.5,5.5A5.5,5.5,0,0,0,858,588.51Z"/><path class="cls-5" d="M874.48,572a5.5,5.5,0,1,0,5.51,5.5A5.51,5.51,0,0,0,874.48,572Z"/><path class="cls-5" d="M891,588.51a5.5,5.5,0,1,0,5.5,5.5A5.5,5.5,0,0,0,891,588.51Z"/><path class="cls-5" d="M907.49,572a5.5,5.5,0,1,0,5.5,5.5A5.5,5.5,0,0,0,907.49,572Z"/><path class="cls-5" d="M924,588.51a5.5,5.5,0,1,0,5.5,5.5A5.5,5.5,0,0,0,924,588.51Z"/><path class="cls-5" d="M940.5,572a5.5,5.5,0,1,0,5.5,5.5A5.5,5.5,0,0,0,940.5,572Z"/><path class="cls-5" d="M957,588.51a5.5,5.5,0,1,0,5.5,5.5A5.51,5.51,0,0,0,957,588.51Z"/><path class="cls-5" d="M973.51,572a5.5,5.5,0,1,0,5.5,5.5A5.5,5.5,0,0,0,973.51,572Z"/><path class="cls-5" d="M990,588.51a5.5,5.5,0,1,0,5.5,5.5A5.51,5.51,0,0,0,990,588.51Z"/><path class="cls-5" d="M1006.52,572a5.5,5.5,0,1,0,5.5,5.5A5.5,5.5,0,0,0,1006.52,572Z"/><path class="cls-5" d="M1023,588.51a5.5,5.5,0,1,0,5.51,5.5A5.51,5.51,0,0,0,1023,588.51Z"/><path class="cls-5" d="M1039.53,572a5.5,5.5,0,1,0,5.5,5.5A5.5,5.5,0,0,0,1039.53,572Z"/><path class="cls-5" d="M1056,588.51a5.5,5.5,0,1,0,5.51,5.5A5.51,5.51,0,0,0,1056,588.51Z"/><path class="cls-5" d="M1072.54,572a5.5,5.5,0,1,0,5.5,5.5A5.5,5.5,0,0,0,1072.54,572Z"/><path class="cls-5" d="M115.26,605a5.5,5.5,0,1,0,5.5,5.5A5.5,5.5,0,0,0,115.26,605Z"/><path class="cls-5" d="M137.27,627a5.5,5.5,0,1,0-5.5,5.5A5.5,5.5,0,0,0,137.27,627Z"/><path class="cls-5" d="M148.27,605a5.5,5.5,0,1,0,5.51,5.5A5.5,5.5,0,0,0,148.27,605Z"/><path class="cls-5" d="M164.78,621.51a5.5,5.5,0,1,0,5.5,5.5A5.5,5.5,0,0,0,164.78,621.51Z"/><path class="cls-5" d="M181.28,605a5.5,5.5,0,1,0,5.5,5.5A5.5,5.5,0,0,0,181.28,605Z"/><path class="cls-5" d="M197.79,621.51a5.5,5.5,0,1,0,5.5,5.5A5.5,5.5,0,0,0,197.79,621.51Z"/><path class="cls-5" d="M214.29,605a5.5,5.5,0,1,0,5.5,5.5A5.5,5.5,0,0,0,214.29,605Z"/><path class="cls-5" d="M230.8,621.51a5.5,5.5,0,1,0,5.5,5.5A5.51,5.51,0,0,0,230.8,621.51Z"/><path class="cls-5" d="M247.3,605a5.5,5.5,0,1,0,5.5,5.5A5.5,5.5,0,0,0,247.3,605Z"/><path class="cls-5" d="M263.81,621.51a5.5,5.5,0,1,0,5.5,5.5A5.51,5.51,0,0,0,263.81,621.51Z"/><path class="cls-5" d="M280.31,605a5.5,5.5,0,1,0,5.5,5.5A5.5,5.5,0,0,0,280.31,605Z"/><path class="cls-5" d="M296.82,621.51a5.5,5.5,0,1,0,5.5,5.5A5.51,5.51,0,0,0,296.82,621.51Z"/><path class="cls-5" d="M313.32,605a5.5,5.5,0,1,0,5.5,5.5A5.5,5.5,0,0,0,313.32,605Z"/><path class="cls-5" d="M329.83,621.51a5.5,5.5,0,1,0,5.5,5.5A5.51,5.51,0,0,0,329.83,621.51Z"/><path class="cls-5" d="M346.33,605a5.5,5.5,0,1,0,5.5,5.5A5.5,5.5,0,0,0,346.33,605Z"/><path class="cls-5" d="M362.84,621.51a5.5,5.5,0,1,0,5.5,5.5A5.51,5.51,0,0,0,362.84,621.51Z"/><path class="cls-5" d="M379.34,605a5.5,5.5,0,1,0,5.5,5.5A5.5,5.5,0,0,0,379.34,605Z"/><path class="cls-5" d="M395.84,621.51a5.5,5.5,0,1,0,5.51,5.5A5.51,5.51,0,0,0,395.84,621.51Z"/><path class="cls-5" d="M412.35,605a5.5,5.5,0,1,0,5.5,5.5A5.5,5.5,0,0,0,412.35,605Z"/><path class="cls-5" d="M428.85,621.51a5.5,5.5,0,1,0,5.51,5.5A5.51,5.51,0,0,0,428.85,621.51Z"/><path class="cls-5" d="M445.36,605a5.5,5.5,0,1,0,5.5,5.5A5.5,5.5,0,0,0,445.36,605Z"/><path class="cls-5" d="M461.86,621.51a5.5,5.5,0,1,0,5.51,5.5A5.51,5.51,0,0,0,461.86,621.51Z"/><path class="cls-5" d="M478.37,605a5.5,5.5,0,1,0,5.5,5.5A5.5,5.5,0,0,0,478.37,605Z"/><path class="cls-5" d="M494.87,621.51a5.5,5.5,0,1,0,5.5,5.5A5.51,5.51,0,0,0,494.87,621.51Z"/><path class="cls-5" d="M511.38,605a5.5,5.5,0,1,0,5.5,5.5A5.5,5.5,0,0,0,511.38,605Z"/><path class="cls-5" d="M527.88,621.51a5.5,5.5,0,1,0,5.5,5.5A5.5,5.5,0,0,0,527.88,621.51Z"/><path class="cls-5" d="M544.39,605a5.5,5.5,0,1,0,5.5,5.5A5.5,5.5,0,0,0,544.39,605Z"/><path class="cls-5" d="M560.89,621.51a5.5,5.5,0,1,0,5.5,5.5A5.5,5.5,0,0,0,560.89,621.51Z"/><path class="cls-5" d="M577.4,605a5.5,5.5,0,1,0,5.5,5.5A5.51,5.51,0,0,0,577.4,605Z"/><path class="cls-5" d="M593.9,621.51a5.5,5.5,0,1,0,5.5,5.5A5.5,5.5,0,0,0,593.9,621.51Z"/><path class="cls-5" d="M610.41,605a5.5,5.5,0,1,0,5.5,5.5A5.51,5.51,0,0,0,610.41,605Z"/><path class="cls-5" d="M626.91,621.51a5.5,5.5,0,1,0,5.5,5.5A5.5,5.5,0,0,0,626.91,621.51Z"/><path class="cls-5" d="M643.42,605a5.5,5.5,0,1,0,5.5,5.5A5.5,5.5,0,0,0,643.42,605Z"/><path class="cls-5" d="M659.92,621.51a5.5,5.5,0,1,0,5.5,5.5A5.5,5.5,0,0,0,659.92,621.51Z"/><path class="cls-5" d="M676.42,605a5.5,5.5,0,1,0,5.51,5.5A5.51,5.51,0,0,0,676.42,605Z"/><path class="cls-5" d="M692.93,621.51a5.5,5.5,0,1,0,5.5,5.5A5.5,5.5,0,0,0,692.93,621.51Z"/><path class="cls-5" d="M709.44,605a5.5,5.5,0,1,0,5.5,5.5A5.51,5.51,0,0,0,709.44,605Z"/><path class="cls-5" d="M725.94,621.51a5.5,5.5,0,1,0,5.5,5.5A5.5,5.5,0,0,0,725.94,621.51Z"/><path class="cls-5" d="M742.44,605a5.5,5.5,0,1,0,5.5,5.5A5.51,5.51,0,0,0,742.44,605Z"/><path class="cls-5" d="M759,621.51a5.5,5.5,0,1,0,5.5,5.5A5.5,5.5,0,0,0,759,621.51Z"/><path class="cls-5" d="M775.45,605a5.5,5.5,0,1,0,5.51,5.5A5.51,5.51,0,0,0,775.45,605Z"/><path class="cls-5" d="M792,621.51a5.5,5.5,0,1,0,5.5,5.5A5.5,5.5,0,0,0,792,621.51Z"/><path class="cls-5" d="M808.46,605a5.5,5.5,0,1,0,5.51,5.5A5.51,5.51,0,0,0,808.46,605Z"/><path class="cls-5" d="M825,621.51a5.5,5.5,0,1,0,5.5,5.5A5.5,5.5,0,0,0,825,621.51Z"/><path class="cls-5" d="M841.47,605a5.5,5.5,0,1,0,5.5,5.5A5.5,5.5,0,0,0,841.47,605Z"/><path class="cls-5" d="M858,621.51a5.5,5.5,0,1,0,5.5,5.5A5.5,5.5,0,0,0,858,621.51Z"/><path class="cls-5" d="M874.48,605a5.5,5.5,0,1,0,5.51,5.5A5.51,5.51,0,0,0,874.48,605Z"/><path class="cls-5" d="M891,621.51a5.5,5.5,0,1,0,5.5,5.5A5.5,5.5,0,0,0,891,621.51Z"/><path class="cls-5" d="M907.49,605a5.5,5.5,0,1,0,5.5,5.5A5.5,5.5,0,0,0,907.49,605Z"/><path class="cls-5" d="M924,621.51a5.5,5.5,0,1,0,5.5,5.5A5.5,5.5,0,0,0,924,621.51Z"/><path class="cls-5" d="M940.5,605a5.5,5.5,0,1,0,5.5,5.5A5.5,5.5,0,0,0,940.5,605Z"/><path class="cls-5" d="M957,621.51a5.5,5.5,0,1,0,5.5,5.5A5.51,5.51,0,0,0,957,621.51Z"/><path class="cls-5" d="M973.51,605a5.5,5.5,0,1,0,5.5,5.5A5.5,5.5,0,0,0,973.51,605Z"/><path class="cls-5" d="M990,621.51a5.5,5.5,0,1,0,5.5,5.5A5.51,5.51,0,0,0,990,621.51Z"/><path class="cls-5" d="M1006.52,605a5.5,5.5,0,1,0,5.5,5.5A5.5,5.5,0,0,0,1006.52,605Z"/><path class="cls-5" d="M1023,621.51a5.5,5.5,0,1,0,5.51,5.5A5.51,5.51,0,0,0,1023,621.51Z"/><path class="cls-5" d="M1039.53,605a5.5,5.5,0,1,0,5.5,5.5A5.5,5.5,0,0,0,1039.53,605Z"/><path class="cls-5" d="M1056,621.51a5.5,5.5,0,1,0,5.51,5.5A5.51,5.51,0,0,0,1056,621.51Z"/><path class="cls-5" d="M1067,610.51a5.52,5.52,0,0,0,2,4.21c1-3.24,2-6.45,3-9.69A5.54,5.54,0,0,0,1067,610.51Z"/><path class="cls-5" d="M131.77,654.52A5.51,5.51,0,0,0,128,656q2.42,4.65,5.06,9.33a5.49,5.49,0,0,0-1.25-10.84Z"/><path class="cls-5" d="M148.27,638a5.5,5.5,0,1,0,5.51,5.5A5.5,5.5,0,0,0,148.27,638Z"/><path class="cls-5" d="M164.78,654.52a5.5,5.5,0,1,0,5.5,5.5A5.5,5.5,0,0,0,164.78,654.52Z"/><path class="cls-5" d="M181.28,638a5.5,5.5,0,1,0,5.5,5.5A5.5,5.5,0,0,0,181.28,638Z"/><path class="cls-5" d="M197.79,654.52a5.5,5.5,0,1,0,5.5,5.5A5.5,5.5,0,0,0,197.79,654.52Z"/><path class="cls-5" d="M214.29,638a5.5,5.5,0,1,0,5.5,5.5A5.5,5.5,0,0,0,214.29,638Z"/><path class="cls-5" d="M230.8,654.52a5.5,5.5,0,1,0,5.5,5.5A5.51,5.51,0,0,0,230.8,654.52Z"/><path class="cls-5" d="M247.3,638a5.5,5.5,0,1,0,5.5,5.5A5.5,5.5,0,0,0,247.3,638Z"/><path class="cls-5" d="M263.81,654.52a5.5,5.5,0,1,0,5.5,5.5A5.51,5.51,0,0,0,263.81,654.52Z"/><path class="cls-5" d="M280.31,638a5.5,5.5,0,1,0,5.5,5.5A5.5,5.5,0,0,0,280.31,638Z"/><path class="cls-5" d="M296.82,654.52a5.5,5.5,0,1,0,5.5,5.5A5.51,5.51,0,0,0,296.82,654.52Z"/><path class="cls-5" d="M313.32,638a5.5,5.5,0,1,0,5.5,5.5A5.5,5.5,0,0,0,313.32,638Z"/><path class="cls-5" d="M329.83,654.52a5.5,5.5,0,1,0,5.5,5.5A5.51,5.51,0,0,0,329.83,654.52Z"/><path class="cls-5" d="M346.33,638a5.5,5.5,0,1,0,5.5,5.5A5.5,5.5,0,0,0,346.33,638Z"/><path class="cls-5" d="M362.84,654.52a5.5,5.5,0,1,0,5.5,5.5A5.51,5.51,0,0,0,362.84,654.52Z"/><path class="cls-5" d="M379.34,638a5.5,5.5,0,1,0,5.5,5.5A5.5,5.5,0,0,0,379.34,638Z"/><path class="cls-5" d="M395.84,654.52a5.5,5.5,0,1,0,5.51,5.5A5.5,5.5,0,0,0,395.84,654.52Z"/><path class="cls-5" d="M412.35,638a5.5,5.5,0,1,0,5.5,5.5A5.5,5.5,0,0,0,412.35,638Z"/><path class="cls-5" d="M428.85,654.52a5.5,5.5,0,1,0,5.51,5.5A5.5,5.5,0,0,0,428.85,654.52Z"/><path class="cls-5" d="M445.36,638a5.5,5.5,0,1,0,5.5,5.5A5.5,5.5,0,0,0,445.36,638Z"/><circle class="cls-5" cx="461.86" cy="660.02" r="5.5"/><path class="cls-5" d="M478.37,638a5.5,5.5,0,1,0,5.5,5.5A5.5,5.5,0,0,0,478.37,638Z"/><path class="cls-5" d="M494.87,654.52a5.5,5.5,0,1,0,5.5,5.5A5.5,5.5,0,0,0,494.87,654.52Z"/><path class="cls-5" d="M511.38,638a5.5,5.5,0,1,0,5.5,5.5A5.5,5.5,0,0,0,511.38,638Z"/><path class="cls-5" d="M527.88,654.52a5.5,5.5,0,1,0,5.5,5.5A5.5,5.5,0,0,0,527.88,654.52Z"/><path class="cls-5" d="M544.39,638a5.5,5.5,0,1,0,5.5,5.5A5.5,5.5,0,0,0,544.39,638Z"/><path class="cls-5" d="M560.89,654.52a5.5,5.5,0,1,0,5.5,5.5A5.5,5.5,0,0,0,560.89,654.52Z"/><path class="cls-5" d="M577.4,638a5.5,5.5,0,1,0,5.5,5.5A5.51,5.51,0,0,0,577.4,638Z"/><path class="cls-5" d="M593.9,654.52a5.5,5.5,0,1,0,5.5,5.5A5.5,5.5,0,0,0,593.9,654.52Z"/><path class="cls-5" d="M610.41,638a5.5,5.5,0,1,0,5.5,5.5A5.51,5.51,0,0,0,610.41,638Z"/><path class="cls-5" d="M626.91,654.52a5.5,5.5,0,1,0,5.5,5.5A5.5,5.5,0,0,0,626.91,654.52Z"/><path class="cls-5" d="M643.42,638a5.5,5.5,0,1,0,5.5,5.5A5.5,5.5,0,0,0,643.42,638Z"/><path class="cls-5" d="M659.92,654.52a5.5,5.5,0,1,0,5.5,5.5A5.5,5.5,0,0,0,659.92,654.52Z"/><path class="cls-5" d="M676.42,638a5.5,5.5,0,1,0,5.51,5.5A5.51,5.51,0,0,0,676.42,638Z"/><path class="cls-5" d="M692.93,654.52a5.5,5.5,0,1,0,5.5,5.5A5.5,5.5,0,0,0,692.93,654.52Z"/><path class="cls-5" d="M709.44,638a5.5,5.5,0,1,0,5.5,5.5A5.51,5.51,0,0,0,709.44,638Z"/><path class="cls-5" d="M725.94,654.52a5.5,5.5,0,1,0,5.5,5.5A5.5,5.5,0,0,0,725.94,654.52Z"/><path class="cls-5" d="M742.44,638a5.5,5.5,0,1,0,5.5,5.5A5.51,5.51,0,0,0,742.44,638Z"/><path class="cls-5" d="M759,654.52a5.5,5.5,0,1,0,5.5,5.5A5.5,5.5,0,0,0,759,654.52Z"/><path class="cls-5" d="M775.45,638a5.5,5.5,0,1,0,5.51,5.5A5.51,5.51,0,0,0,775.45,638Z"/><path class="cls-5" d="M792,654.52a5.5,5.5,0,1,0,5.5,5.5A5.5,5.5,0,0,0,792,654.52Z"/><path class="cls-5" d="M808.46,638a5.5,5.5,0,1,0,5.51,5.5A5.51,5.51,0,0,0,808.46,638Z"/><path class="cls-5" d="M825,654.52a5.5,5.5,0,1,0,5.5,5.5A5.5,5.5,0,0,0,825,654.52Z"/><path class="cls-5" d="M841.47,638a5.5,5.5,0,1,0,5.5,5.5A5.5,5.5,0,0,0,841.47,638Z"/><path class="cls-5" d="M858,654.52a5.5,5.5,0,1,0,5.5,5.5A5.5,5.5,0,0,0,858,654.52Z"/><path class="cls-5" d="M874.48,638a5.5,5.5,0,1,0,5.51,5.5A5.51,5.51,0,0,0,874.48,638Z"/><path class="cls-5" d="M891,654.52a5.5,5.5,0,1,0,5.5,5.5A5.5,5.5,0,0,0,891,654.52Z"/><path class="cls-5" d="M907.49,638a5.5,5.5,0,1,0,5.5,5.5A5.5,5.5,0,0,0,907.49,638Z"/><path class="cls-5" d="M924,654.52a5.5,5.5,0,1,0,5.5,5.5A5.5,5.5,0,0,0,924,654.52Z"/><path class="cls-5" d="M940.5,638a5.5,5.5,0,1,0,5.5,5.5A5.5,5.5,0,0,0,940.5,638Z"/><path class="cls-5" d="M957,654.52a5.5,5.5,0,1,0,5.5,5.5A5.51,5.51,0,0,0,957,654.52Z"/><path class="cls-5" d="M973.51,638a5.5,5.5,0,1,0,5.5,5.5A5.5,5.5,0,0,0,973.51,638Z"/><path class="cls-5" d="M990,654.52a5.5,5.5,0,1,0,5.5,5.5A5.51,5.51,0,0,0,990,654.52Z"/><path class="cls-5" d="M1006.52,638a5.5,5.5,0,1,0,5.5,5.5A5.5,5.5,0,0,0,1006.52,638Z"/><path class="cls-5" d="M1023,654.52a5.5,5.5,0,1,0,5.51,5.5A5.5,5.5,0,0,0,1023,654.52Z"/><path class="cls-5" d="M1039.53,638a5.5,5.5,0,1,0,5.5,5.5A5.5,5.5,0,0,0,1039.53,638Z"/><path class="cls-5" d="M1050.53,660a5.58,5.58,0,0,0,.29,1.75c1-2.26,2.07-4.53,3-6.79A5.47,5.47,0,0,0,1050.53,660Z"/><path class="cls-5" d="M148.27,671a5.5,5.5,0,1,0,5.51,5.5A5.5,5.5,0,0,0,148.27,671Z"/><path class="cls-5" d="M164.78,687.52a5.5,5.5,0,1,0,5.5,5.5A5.5,5.5,0,0,0,164.78,687.52Z"/><path class="cls-5" d="M181.28,671a5.5,5.5,0,1,0,5.5,5.5A5.5,5.5,0,0,0,181.28,671Z"/><path class="cls-5" d="M197.79,687.52a5.5,5.5,0,1,0,5.5,5.5A5.5,5.5,0,0,0,197.79,687.52Z"/><path class="cls-5" d="M214.29,671a5.5,5.5,0,1,0,5.5,5.5A5.5,5.5,0,0,0,214.29,671Z"/><path class="cls-5" d="M230.8,687.52a5.5,5.5,0,1,0,5.5,5.5A5.51,5.51,0,0,0,230.8,687.52Z"/><path class="cls-5" d="M247.3,671a5.5,5.5,0,1,0,5.5,5.5A5.5,5.5,0,0,0,247.3,671Z"/><path class="cls-5" d="M263.81,687.52a5.5,5.5,0,1,0,5.5,5.5A5.51,5.51,0,0,0,263.81,687.52Z"/><path class="cls-5" d="M280.31,671a5.5,5.5,0,1,0,5.5,5.5A5.5,5.5,0,0,0,280.31,671Z"/><path class="cls-5" d="M296.82,687.52a5.5,5.5,0,1,0,5.5,5.5A5.51,5.51,0,0,0,296.82,687.52Z"/><path class="cls-5" d="M313.32,671a5.5,5.5,0,1,0,5.5,5.5A5.5,5.5,0,0,0,313.32,671Z"/><path class="cls-5" d="M329.83,687.52a5.5,5.5,0,1,0,5.5,5.5A5.51,5.51,0,0,0,329.83,687.52Z"/><path class="cls-5" d="M346.33,671a5.5,5.5,0,1,0,5.5,5.5A5.5,5.5,0,0,0,346.33,671Z"/><path class="cls-5" d="M362.84,687.52a5.5,5.5,0,1,0,5.5,5.5A5.51,5.51,0,0,0,362.84,687.52Z"/><path class="cls-5" d="M379.34,671a5.5,5.5,0,1,0,5.5,5.5A5.5,5.5,0,0,0,379.34,671Z"/><path class="cls-5" d="M395.84,687.52a5.5,5.5,0,1,0,5.51,5.5A5.5,5.5,0,0,0,395.84,687.52Z"/><path class="cls-5" d="M412.35,671a5.5,5.5,0,1,0,5.5,5.5A5.5,5.5,0,0,0,412.35,671Z"/><path class="cls-5" d="M428.85,687.52a5.5,5.5,0,1,0,5.51,5.5A5.5,5.5,0,0,0,428.85,687.52Z"/><path class="cls-5" d="M445.36,671a5.5,5.5,0,1,0,5.5,5.5A5.5,5.5,0,0,0,445.36,671Z"/><path class="cls-5" d="M461.86,687.52a5.5,5.5,0,1,0,5.51,5.5A5.5,5.5,0,0,0,461.86,687.52Z"/><path class="cls-5" d="M478.37,671a5.5,5.5,0,1,0,5.5,5.5A5.5,5.5,0,0,0,478.37,671Z"/><path class="cls-5" d="M494.87,687.52a5.5,5.5,0,1,0,5.5,5.5A5.5,5.5,0,0,0,494.87,687.52Z"/><path class="cls-5" d="M511.38,671a5.5,5.5,0,1,0,5.5,5.5A5.5,5.5,0,0,0,511.38,671Z"/><path class="cls-5" d="M527.88,687.52a5.5,5.5,0,1,0,5.5,5.5A5.5,5.5,0,0,0,527.88,687.52Z"/><path class="cls-5" d="M544.39,671a5.5,5.5,0,1,0,5.5,5.5A5.5,5.5,0,0,0,544.39,671Z"/><path class="cls-5" d="M560.89,687.52a5.5,5.5,0,1,0,5.5,5.5A5.5,5.5,0,0,0,560.89,687.52Z"/><path class="cls-5" d="M577.4,671a5.5,5.5,0,1,0,5.5,5.5A5.51,5.51,0,0,0,577.4,671Z"/><path class="cls-5" d="M593.9,687.52a5.5,5.5,0,1,0,5.5,5.5A5.5,5.5,0,0,0,593.9,687.52Z"/><path class="cls-5" d="M610.41,671a5.5,5.5,0,1,0,5.5,5.5A5.51,5.51,0,0,0,610.41,671Z"/><path class="cls-5" d="M626.91,687.52a5.5,5.5,0,1,0,5.5,5.5A5.5,5.5,0,0,0,626.91,687.52Z"/><path class="cls-5" d="M643.42,671a5.5,5.5,0,1,0,5.5,5.5A5.5,5.5,0,0,0,643.42,671Z"/><path class="cls-5" d="M659.92,687.52a5.5,5.5,0,1,0,5.5,5.5A5.5,5.5,0,0,0,659.92,687.52Z"/><path class="cls-5" d="M676.42,671a5.5,5.5,0,1,0,5.51,5.5A5.5,5.5,0,0,0,676.42,671Z"/><path class="cls-5" d="M692.93,687.52a5.5,5.5,0,1,0,5.5,5.5A5.5,5.5,0,0,0,692.93,687.52Z"/><path class="cls-5" d="M709.44,671a5.5,5.5,0,1,0,5.5,5.5A5.51,5.51,0,0,0,709.44,671Z"/><path class="cls-5" d="M725.94,687.52a5.5,5.5,0,1,0,5.5,5.5A5.5,5.5,0,0,0,725.94,687.52Z"/><path class="cls-5" d="M742.44,671a5.5,5.5,0,1,0,5.5,5.5A5.5,5.5,0,0,0,742.44,671Z"/><path class="cls-5" d="M759,687.52a5.5,5.5,0,1,0,5.5,5.5A5.5,5.5,0,0,0,759,687.52Z"/><path class="cls-5" d="M775.45,671a5.5,5.5,0,1,0,5.51,5.5A5.5,5.5,0,0,0,775.45,671Z"/><path class="cls-5" d="M792,687.52a5.5,5.5,0,1,0,5.5,5.5A5.5,5.5,0,0,0,792,687.52Z"/><path class="cls-5" d="M808.46,671a5.5,5.5,0,1,0,5.51,5.5A5.5,5.5,0,0,0,808.46,671Z"/><path class="cls-5" d="M825,687.52a5.5,5.5,0,1,0,5.5,5.5A5.5,5.5,0,0,0,825,687.52Z"/><path class="cls-5" d="M841.47,671a5.5,5.5,0,1,0,5.5,5.5A5.5,5.5,0,0,0,841.47,671Z"/><path class="cls-5" d="M858,687.52a5.5,5.5,0,1,0,5.5,5.5A5.5,5.5,0,0,0,858,687.52Z"/><path class="cls-5" d="M874.48,671a5.5,5.5,0,1,0,5.51,5.5A5.5,5.5,0,0,0,874.48,671Z"/><path class="cls-5" d="M891,687.52a5.5,5.5,0,1,0,5.5,5.5A5.5,5.5,0,0,0,891,687.52Z"/><path class="cls-5" d="M907.49,671a5.5,5.5,0,1,0,5.5,5.5A5.5,5.5,0,0,0,907.49,671Z"/><path class="cls-5" d="M924,687.52a5.5,5.5,0,1,0,5.5,5.5A5.5,5.5,0,0,0,924,687.52Z"/><path class="cls-5" d="M940.5,671a5.5,5.5,0,1,0,5.5,5.5A5.5,5.5,0,0,0,940.5,671Z"/><path class="cls-5" d="M957,687.52a5.5,5.5,0,1,0,5.5,5.5A5.51,5.51,0,0,0,957,687.52Z"/><path class="cls-5" d="M973.51,671a5.5,5.5,0,1,0,5.5,5.5A5.5,5.5,0,0,0,973.51,671Z"/><path class="cls-5" d="M990,687.52a5.5,5.5,0,1,0,5.5,5.5A5.51,5.51,0,0,0,990,687.52Z"/><path class="cls-5" d="M1006.52,671a5.5,5.5,0,1,0,5.5,5.5A5.5,5.5,0,0,0,1006.52,671Z"/><path class="cls-5" d="M1023,687.52a5.5,5.5,0,1,0,5.51,5.5A5.5,5.5,0,0,0,1023,687.52Z"/><path class="cls-5" d="M1039.53,671a5.5,5.5,0,0,0,0,11,5.92,5.92,0,0,0,1.41-.18v0c1.28-2.4,2.51-4.82,3.72-7.26A5.46,5.46,0,0,0,1039.53,671Z"/><path class="cls-5" d="M181.28,704a5.5,5.5,0,1,0,5.5,5.5A5.5,5.5,0,0,0,181.28,704Z"/><path class="cls-5" d="M197.79,720.52a5.5,5.5,0,1,0,5.5,5.5A5.5,5.5,0,0,0,197.79,720.52Z"/><path class="cls-5" d="M214.29,704a5.5,5.5,0,1,0,5.5,5.5A5.5,5.5,0,0,0,214.29,704Z"/><path class="cls-5" d="M230.8,720.52a5.5,5.5,0,1,0,5.5,5.5A5.51,5.51,0,0,0,230.8,720.52Z"/><path class="cls-5" d="M247.3,704a5.5,5.5,0,1,0,5.5,5.5A5.5,5.5,0,0,0,247.3,704Z"/><path class="cls-5" d="M263.81,720.52a5.5,5.5,0,1,0,5.5,5.5A5.51,5.51,0,0,0,263.81,720.52Z"/><path class="cls-5" d="M280.31,704a5.5,5.5,0,1,0,5.5,5.5A5.5,5.5,0,0,0,280.31,704Z"/><path class="cls-5" d="M296.82,720.52a5.5,5.5,0,1,0,5.5,5.5A5.51,5.51,0,0,0,296.82,720.52Z"/><path class="cls-5" d="M313.32,704a5.5,5.5,0,1,0,5.5,5.5A5.5,5.5,0,0,0,313.32,704Z"/><path class="cls-5" d="M329.83,720.52a5.5,5.5,0,1,0,5.5,5.5A5.51,5.51,0,0,0,329.83,720.52Z"/><path class="cls-5" d="M346.33,704a5.5,5.5,0,1,0,5.5,5.5A5.5,5.5,0,0,0,346.33,704Z"/><path class="cls-5" d="M362.84,720.52a5.5,5.5,0,1,0,5.5,5.5A5.51,5.51,0,0,0,362.84,720.52Z"/><path class="cls-5" d="M379.34,704a5.5,5.5,0,1,0,5.5,5.5A5.5,5.5,0,0,0,379.34,704Z"/><path class="cls-5" d="M395.84,720.52a5.5,5.5,0,1,0,5.51,5.5A5.5,5.5,0,0,0,395.84,720.52Z"/><path class="cls-5" d="M412.35,704a5.5,5.5,0,1,0,5.5,5.5A5.5,5.5,0,0,0,412.35,704Z"/><path class="cls-5" d="M428.85,720.52a5.5,5.5,0,1,0,5.51,5.5A5.5,5.5,0,0,0,428.85,720.52Z"/><path class="cls-5" d="M445.36,704a5.5,5.5,0,1,0,5.5,5.5A5.5,5.5,0,0,0,445.36,704Z"/><circle class="cls-5" cx="461.86" cy="726.02" r="5.5"/><path class="cls-5" d="M478.37,704a5.5,5.5,0,1,0,5.5,5.5A5.5,5.5,0,0,0,478.37,704Z"/><path class="cls-5" d="M494.87,720.52a5.5,5.5,0,1,0,5.5,5.5A5.5,5.5,0,0,0,494.87,720.52Z"/><path class="cls-5" d="M511.38,704a5.5,5.5,0,1,0,5.5,5.5A5.5,5.5,0,0,0,511.38,704Z"/><path class="cls-5" d="M527.88,720.52a5.5,5.5,0,1,0,5.5,5.5A5.5,5.5,0,0,0,527.88,720.52Z"/><path class="cls-5" d="M544.39,704a5.5,5.5,0,1,0,5.5,5.5A5.5,5.5,0,0,0,544.39,704Z"/><path class="cls-5" d="M560.89,720.52a5.5,5.5,0,1,0,5.5,5.5A5.5,5.5,0,0,0,560.89,720.52Z"/><path class="cls-5" d="M577.4,704a5.5,5.5,0,1,0,5.5,5.5A5.51,5.51,0,0,0,577.4,704Z"/><path class="cls-5" d="M593.9,720.52a5.5,5.5,0,1,0,5.5,5.5A5.5,5.5,0,0,0,593.9,720.52Z"/><path class="cls-5" d="M610.41,704a5.5,5.5,0,1,0,5.5,5.5A5.51,5.51,0,0,0,610.41,704Z"/><path class="cls-5" d="M626.91,720.52a5.5,5.5,0,1,0,5.5,5.5A5.5,5.5,0,0,0,626.91,720.52Z"/><path class="cls-5" d="M643.42,704a5.5,5.5,0,1,0,5.5,5.5A5.5,5.5,0,0,0,643.42,704Z"/><path class="cls-5" d="M659.92,720.52a5.5,5.5,0,1,0,5.5,5.5A5.5,5.5,0,0,0,659.92,720.52Z"/><path class="cls-5" d="M676.42,704a5.5,5.5,0,1,0,5.51,5.5A5.5,5.5,0,0,0,676.42,704Z"/><path class="cls-5" d="M692.93,720.52a5.5,5.5,0,1,0,5.5,5.5A5.5,5.5,0,0,0,692.93,720.52Z"/><path class="cls-5" d="M709.44,704a5.5,5.5,0,1,0,5.5,5.5A5.51,5.51,0,0,0,709.44,704Z"/><path class="cls-5" d="M725.94,720.52a5.5,5.5,0,1,0,5.5,5.5A5.5,5.5,0,0,0,725.94,720.52Z"/><path class="cls-5" d="M742.44,704a5.5,5.5,0,1,0,5.5,5.5A5.5,5.5,0,0,0,742.44,704Z"/><path class="cls-5" d="M759,720.52a5.5,5.5,0,1,0,5.5,5.5A5.5,5.5,0,0,0,759,720.52Z"/><path class="cls-5" d="M775.45,704a5.5,5.5,0,1,0,5.51,5.5A5.5,5.5,0,0,0,775.45,704Z"/><path class="cls-5" d="M792,720.52a5.5,5.5,0,1,0,5.5,5.5A5.5,5.5,0,0,0,792,720.52Z"/><path class="cls-5" d="M808.46,704a5.5,5.5,0,1,0,5.51,5.5A5.5,5.5,0,0,0,808.46,704Z"/><path class="cls-5" d="M825,720.52a5.5,5.5,0,1,0,5.5,5.5A5.5,5.5,0,0,0,825,720.52Z"/><path class="cls-5" d="M841.47,704a5.5,5.5,0,1,0,5.5,5.5A5.5,5.5,0,0,0,841.47,704Z"/><path class="cls-5" d="M858,720.52a5.5,5.5,0,1,0,5.5,5.5A5.5,5.5,0,0,0,858,720.52Z"/><path class="cls-5" d="M874.48,704a5.5,5.5,0,1,0,5.51,5.5A5.5,5.5,0,0,0,874.48,704Z"/><path class="cls-5" d="M891,720.52a5.5,5.5,0,1,0,5.5,5.5A5.5,5.5,0,0,0,891,720.52Z"/><path class="cls-5" d="M907.49,704a5.5,5.5,0,1,0,5.5,5.5A5.5,5.5,0,0,0,907.49,704Z"/><path class="cls-5" d="M924,720.52a5.5,5.5,0,1,0,5.5,5.5A5.5,5.5,0,0,0,924,720.52Z"/><path class="cls-5" d="M940.5,704a5.5,5.5,0,1,0,5.5,5.5A5.5,5.5,0,0,0,940.5,704Z"/><path class="cls-5" d="M957,720.52a5.5,5.5,0,1,0,5.5,5.5A5.51,5.51,0,0,0,957,720.52Z"/><path class="cls-5" d="M973.51,704a5.5,5.5,0,1,0,5.5,5.5A5.5,5.5,0,0,0,973.51,704Z"/><path class="cls-5" d="M990,720.52a5.5,5.5,0,1,0,5.5,5.5A5.51,5.51,0,0,0,990,720.52Z"/><path class="cls-5" d="M1006.52,704a5.5,5.5,0,1,0,5.5,5.5A5.5,5.5,0,0,0,1006.52,704Z"/><path class="cls-5" d="M214.29,737a5.5,5.5,0,1,0,5.5,5.5A5.5,5.5,0,0,0,214.29,737Z"/><path class="cls-5" d="M230.8,753.52a5.5,5.5,0,1,0,5.5,5.5A5.51,5.51,0,0,0,230.8,753.52Z"/><path class="cls-5" d="M247.3,737a5.5,5.5,0,1,0,5.5,5.5A5.5,5.5,0,0,0,247.3,737Z"/><path class="cls-5" d="M263.81,753.52a5.5,5.5,0,1,0,5.5,5.5A5.51,5.51,0,0,0,263.81,753.52Z"/><path class="cls-5" d="M280.31,737a5.5,5.5,0,1,0,5.5,5.5A5.5,5.5,0,0,0,280.31,737Z"/><path class="cls-5" d="M296.82,753.52a5.5,5.5,0,1,0,5.5,5.5A5.51,5.51,0,0,0,296.82,753.52Z"/><path class="cls-5" d="M313.32,737a5.5,5.5,0,1,0,5.5,5.5A5.5,5.5,0,0,0,313.32,737Z"/><path class="cls-5" d="M329.83,753.52a5.5,5.5,0,1,0,5.5,5.5A5.51,5.51,0,0,0,329.83,753.52Z"/><path class="cls-5" d="M346.33,737a5.5,5.5,0,1,0,5.5,5.5A5.5,5.5,0,0,0,346.33,737Z"/><path class="cls-5" d="M362.84,753.52a5.5,5.5,0,1,0,5.5,5.5A5.51,5.51,0,0,0,362.84,753.52Z"/><path class="cls-5" d="M379.34,737a5.5,5.5,0,1,0,5.5,5.5A5.5,5.5,0,0,0,379.34,737Z"/><path class="cls-5" d="M395.84,753.52a5.5,5.5,0,1,0,5.51,5.5A5.5,5.5,0,0,0,395.84,753.52Z"/><path class="cls-5" d="M412.35,737a5.5,5.5,0,1,0,5.5,5.5A5.5,5.5,0,0,0,412.35,737Z"/><path class="cls-5" d="M428.85,753.52a5.5,5.5,0,1,0,5.51,5.5A5.5,5.5,0,0,0,428.85,753.52Z"/><path class="cls-5" d="M445.36,737a5.5,5.5,0,1,0,5.5,5.5A5.5,5.5,0,0,0,445.36,737Z"/><circle class="cls-5" cx="461.86" cy="759.02" r="5.5"/><path class="cls-5" d="M478.37,737a5.5,5.5,0,1,0,5.5,5.5A5.5,5.5,0,0,0,478.37,737Z"/><path class="cls-5" d="M494.87,753.52a5.5,5.5,0,1,0,5.5,5.5A5.5,5.5,0,0,0,494.87,753.52Z"/><path class="cls-5" d="M511.38,737a5.5,5.5,0,1,0,5.5,5.5A5.5,5.5,0,0,0,511.38,737Z"/><path class="cls-5" d="M527.88,753.52a5.5,5.5,0,1,0,5.5,5.5A5.5,5.5,0,0,0,527.88,753.52Z"/><path class="cls-5" d="M544.39,737a5.5,5.5,0,1,0,5.5,5.5A5.5,5.5,0,0,0,544.39,737Z"/><path class="cls-5" d="M560.89,753.52a5.5,5.5,0,1,0,5.5,5.5A5.5,5.5,0,0,0,560.89,753.52Z"/><path class="cls-5" d="M577.4,737a5.5,5.5,0,1,0,5.5,5.5A5.51,5.51,0,0,0,577.4,737Z"/><path class="cls-5" d="M593.9,753.52a5.5,5.5,0,1,0,5.5,5.5A5.5,5.5,0,0,0,593.9,753.52Z"/><path class="cls-5" d="M610.41,737a5.5,5.5,0,1,0,5.5,5.5A5.51,5.51,0,0,0,610.41,737Z"/><path class="cls-5" d="M626.91,753.52a5.5,5.5,0,1,0,5.5,5.5A5.5,5.5,0,0,0,626.91,753.52Z"/><path class="cls-5" d="M643.42,737a5.5,5.5,0,1,0,5.5,5.5A5.5,5.5,0,0,0,643.42,737Z"/><path class="cls-5" d="M659.92,753.52a5.5,5.5,0,1,0,5.5,5.5A5.5,5.5,0,0,0,659.92,753.52Z"/><path class="cls-5" d="M676.42,737a5.5,5.5,0,1,0,5.51,5.5A5.5,5.5,0,0,0,676.42,737Z"/><path class="cls-5" d="M692.93,753.52a5.5,5.5,0,1,0,5.5,5.5A5.5,5.5,0,0,0,692.93,753.52Z"/><path class="cls-5" d="M709.44,737a5.5,5.5,0,1,0,5.5,5.5A5.51,5.51,0,0,0,709.44,737Z"/><path class="cls-5" d="M725.94,753.52a5.5,5.5,0,1,0,5.5,5.5A5.5,5.5,0,0,0,725.94,753.52Z"/><path class="cls-5" d="M742.44,737a5.5,5.5,0,1,0,5.5,5.5A5.5,5.5,0,0,0,742.44,737Z"/><path class="cls-5" d="M759,753.52a5.5,5.5,0,1,0,5.5,5.5A5.5,5.5,0,0,0,759,753.52Z"/><path class="cls-5" d="M775.45,737a5.5,5.5,0,1,0,5.51,5.5A5.5,5.5,0,0,0,775.45,737Z"/><path class="cls-5" d="M792,753.52a5.5,5.5,0,1,0,5.5,5.5A5.5,5.5,0,0,0,792,753.52Z"/><path class="cls-5" d="M808.46,737a5.5,5.5,0,1,0,5.51,5.5A5.5,5.5,0,0,0,808.46,737Z"/><path class="cls-5" d="M825,753.52a5.5,5.5,0,1,0,5.5,5.5A5.5,5.5,0,0,0,825,753.52Z"/><path class="cls-5" d="M841.47,737a5.5,5.5,0,1,0,5.5,5.5A5.5,5.5,0,0,0,841.47,737Z"/><path class="cls-5" d="M858,753.52a5.5,5.5,0,1,0,5.5,5.5A5.5,5.5,0,0,0,858,753.52Z"/><path class="cls-5" d="M874.48,737a5.5,5.5,0,1,0,5.51,5.5A5.5,5.5,0,0,0,874.48,737Z"/><path class="cls-5" d="M891,753.52a5.5,5.5,0,1,0,5.5,5.5A5.5,5.5,0,0,0,891,753.52Z"/><path class="cls-5" d="M907.49,737a5.5,5.5,0,1,0,5.5,5.5A5.5,5.5,0,0,0,907.49,737Z"/><path class="cls-5" d="M924,753.52a5.5,5.5,0,1,0,5.5,5.5A5.5,5.5,0,0,0,924,753.52Z"/><path class="cls-5" d="M940.5,737a5.5,5.5,0,1,0,5.5,5.5A5.5,5.5,0,0,0,940.5,737Z"/><path class="cls-5" d="M957,753.52a5.5,5.5,0,1,0,5.5,5.5A5.51,5.51,0,0,0,957,753.52Z"/><path class="cls-5" d="M973.51,737a5.5,5.5,0,1,0,5.5,5.5A5.5,5.5,0,0,0,973.51,737Z"/><path class="cls-5" d="M984.51,759a5.36,5.36,0,0,0,1,3.19c2.33-2.69,4.66-5.39,6.91-8.12a5.38,5.38,0,0,0-2.44-.57A5.51,5.51,0,0,0,984.51,759Z"/><path class="cls-5" d="M1001,742.52a5.14,5.14,0,0,0,.07.88c1.67-2.11,3.28-4.23,4.86-6.36A5.51,5.51,0,0,0,1001,742.52Z"/><path class="cls-5" d="M247.3,770a5.5,5.5,0,1,0,5.5,5.5A5.5,5.5,0,0,0,247.3,770Z"/><path class="cls-5" d="M263.81,786.52a5.5,5.5,0,1,0,5.5,5.5A5.51,5.51,0,0,0,263.81,786.52Z"/><path class="cls-5" d="M280.31,770a5.5,5.5,0,1,0,5.5,5.5A5.5,5.5,0,0,0,280.31,770Z"/><path class="cls-5" d="M296.82,786.52a5.5,5.5,0,1,0,5.5,5.5A5.51,5.51,0,0,0,296.82,786.52Z"/><path class="cls-5" d="M313.32,770a5.5,5.5,0,1,0,5.5,5.5A5.5,5.5,0,0,0,313.32,770Z"/><path class="cls-5" d="M329.83,786.52a5.5,5.5,0,1,0,5.5,5.5A5.51,5.51,0,0,0,329.83,786.52Z"/><path class="cls-5" d="M346.33,770a5.5,5.5,0,1,0,5.5,5.5A5.5,5.5,0,0,0,346.33,770Z"/><path class="cls-5" d="M362.84,786.52a5.5,5.5,0,1,0,5.5,5.5A5.51,5.51,0,0,0,362.84,786.52Z"/><path class="cls-5" d="M379.34,770a5.5,5.5,0,1,0,5.5,5.5A5.5,5.5,0,0,0,379.34,770Z"/><path class="cls-5" d="M395.84,786.52a5.5,5.5,0,1,0,5.51,5.5A5.5,5.5,0,0,0,395.84,786.52Z"/><path class="cls-5" d="M412.35,770a5.5,5.5,0,1,0,5.5,5.5A5.5,5.5,0,0,0,412.35,770Z"/><path class="cls-5" d="M428.85,786.52a5.5,5.5,0,1,0,5.51,5.5A5.5,5.5,0,0,0,428.85,786.52Z"/><path class="cls-5" d="M445.36,770a5.5,5.5,0,1,0,5.5,5.5A5.5,5.5,0,0,0,445.36,770Z"/><circle class="cls-5" cx="461.86" cy="792.02" r="5.5"/><path class="cls-5" d="M478.37,770a5.5,5.5,0,1,0,5.5,5.5A5.5,5.5,0,0,0,478.37,770Z"/><path class="cls-5" d="M494.87,786.52a5.5,5.5,0,1,0,5.5,5.5A5.5,5.5,0,0,0,494.87,786.52Z"/><path class="cls-5" d="M511.38,770a5.5,5.5,0,1,0,5.5,5.5A5.5,5.5,0,0,0,511.38,770Z"/><path class="cls-5" d="M527.88,786.52a5.5,5.5,0,1,0,5.5,5.5A5.5,5.5,0,0,0,527.88,786.52Z"/><path class="cls-5" d="M544.39,770a5.5,5.5,0,1,0,5.5,5.5A5.5,5.5,0,0,0,544.39,770Z"/><path class="cls-5" d="M560.89,786.52a5.5,5.5,0,1,0,5.5,5.5A5.5,5.5,0,0,0,560.89,786.52Z"/><path class="cls-5" d="M577.4,770a5.5,5.5,0,1,0,5.5,5.5A5.51,5.51,0,0,0,577.4,770Z"/><path class="cls-5" d="M593.9,786.52a5.5,5.5,0,1,0,5.5,5.5A5.5,5.5,0,0,0,593.9,786.52Z"/><path class="cls-5" d="M610.41,770a5.5,5.5,0,1,0,5.5,5.5A5.51,5.51,0,0,0,610.41,770Z"/><path class="cls-5" d="M626.91,786.52a5.5,5.5,0,1,0,5.5,5.5A5.5,5.5,0,0,0,626.91,786.52Z"/><path class="cls-5" d="M643.42,770a5.5,5.5,0,1,0,5.5,5.5A5.5,5.5,0,0,0,643.42,770Z"/><path class="cls-5" d="M659.92,786.52a5.5,5.5,0,1,0,5.5,5.5A5.5,5.5,0,0,0,659.92,786.52Z"/><path class="cls-5" d="M676.42,770a5.5,5.5,0,1,0,5.51,5.5A5.5,5.5,0,0,0,676.42,770Z"/><path class="cls-5" d="M692.93,786.52a5.5,5.5,0,1,0,5.5,5.5A5.5,5.5,0,0,0,692.93,786.52Z"/><path class="cls-5" d="M709.44,770a5.5,5.5,0,1,0,5.5,5.5A5.51,5.51,0,0,0,709.44,770Z"/><path class="cls-5" d="M725.94,786.52a5.5,5.5,0,1,0,5.5,5.5A5.5,5.5,0,0,0,725.94,786.52Z"/><path class="cls-5" d="M742.44,770a5.5,5.5,0,1,0,5.5,5.5A5.5,5.5,0,0,0,742.44,770Z"/><path class="cls-5" d="M759,786.52a5.5,5.5,0,1,0,5.5,5.5A5.5,5.5,0,0,0,759,786.52Z"/><path class="cls-5" d="M775.45,770a5.5,5.5,0,1,0,5.51,5.5A5.5,5.5,0,0,0,775.45,770Z"/><path class="cls-5" d="M792,786.52a5.5,5.5,0,1,0,5.5,5.5A5.5,5.5,0,0,0,792,786.52Z"/><path class="cls-5" d="M808.46,770a5.5,5.5,0,1,0,5.51,5.5A5.5,5.5,0,0,0,808.46,770Z"/><path class="cls-5" d="M825,786.52a5.5,5.5,0,1,0,5.5,5.5A5.5,5.5,0,0,0,825,786.52Z"/><path class="cls-5" d="M841.47,770a5.5,5.5,0,1,0,5.5,5.5A5.5,5.5,0,0,0,841.47,770Z"/><path class="cls-5" d="M858,786.52a5.5,5.5,0,1,0,5.5,5.5A5.5,5.5,0,0,0,858,786.52Z"/><path class="cls-5" d="M874.48,770a5.5,5.5,0,1,0,5.51,5.5A5.5,5.5,0,0,0,874.48,770Z"/><path class="cls-5" d="M891,786.52a5.5,5.5,0,1,0,5.5,5.5A5.5,5.5,0,0,0,891,786.52Z"/><path class="cls-5" d="M907.49,770a5.5,5.5,0,1,0,5.5,5.5A5.5,5.5,0,0,0,907.49,770Z"/><path class="cls-5" d="M924,786.52a5.5,5.5,0,1,0,5.5,5.5A5.5,5.5,0,0,0,924,786.52Z"/><path class="cls-5" d="M940.5,770a5.5,5.5,0,1,0,5.5,5.5A5.5,5.5,0,0,0,940.5,770Z"/><path class="cls-5" d="M951.5,792a5.37,5.37,0,0,0,1.37,3.61c2.71-2.47,5.37-5,8-7.55A5.52,5.52,0,0,0,951.5,792Z"/><path class="cls-5" d="M968,775.52a5.55,5.55,0,0,0,1.58,3.87q3.9-4,7.6-8a5.5,5.5,0,0,0-9.18,4.09Z"/><path class="cls-5" d="M280.31,803a5.5,5.5,0,1,0,5.5,5.5A5.5,5.5,0,0,0,280.31,803Z"/><path class="cls-5" d="M296.82,819.52a5.51,5.51,0,0,0-5.51,5.5,5.69,5.69,0,0,0,.42,2.09c1.74,1.17,3.46,2.31,5.2,3.41a5.5,5.5,0,0,0-.11-11Z"/><path class="cls-5" d="M313.32,803a5.5,5.5,0,1,0,5.5,5.5A5.5,5.5,0,0,0,313.32,803Z"/><path class="cls-5" d="M329.83,819.52a5.5,5.5,0,1,0,5.5,5.5A5.51,5.51,0,0,0,329.83,819.52Z"/><path class="cls-5" d="M346.33,803a5.5,5.5,0,1,0,5.5,5.5A5.5,5.5,0,0,0,346.33,803Z"/><path class="cls-5" d="M362.84,819.52a5.5,5.5,0,1,0,5.5,5.5A5.51,5.51,0,0,0,362.84,819.52Z"/><path class="cls-5" d="M379.34,803a5.5,5.5,0,1,0,5.5,5.5A5.5,5.5,0,0,0,379.34,803Z"/><path class="cls-5" d="M395.84,819.52a5.5,5.5,0,1,0,5.51,5.5A5.5,5.5,0,0,0,395.84,819.52Z"/><path class="cls-5" d="M412.35,803a5.5,5.5,0,1,0,5.5,5.5A5.5,5.5,0,0,0,412.35,803Z"/><path class="cls-5" d="M428.85,819.52a5.5,5.5,0,1,0,5.51,5.5A5.5,5.5,0,0,0,428.85,819.52Z"/><path class="cls-5" d="M445.36,803a5.5,5.5,0,1,0,5.5,5.5A5.5,5.5,0,0,0,445.36,803Z"/><circle class="cls-5" cx="461.86" cy="825.02" r="5.5"/><path class="cls-5" d="M478.37,803a5.5,5.5,0,1,0,5.5,5.5A5.5,5.5,0,0,0,478.37,803Z"/><path class="cls-5" d="M494.87,819.52a5.5,5.5,0,1,0,5.5,5.5A5.5,5.5,0,0,0,494.87,819.52Z"/><path class="cls-5" d="M511.38,803a5.5,5.5,0,1,0,5.5,5.5A5.5,5.5,0,0,0,511.38,803Z"/><path class="cls-5" d="M527.88,819.52a5.5,5.5,0,1,0,5.5,5.5A5.5,5.5,0,0,0,527.88,819.52Z"/><path class="cls-5" d="M544.39,803a5.5,5.5,0,1,0,5.5,5.5A5.5,5.5,0,0,0,544.39,803Z"/><path class="cls-5" d="M560.89,819.52a5.5,5.5,0,1,0,5.5,5.5A5.5,5.5,0,0,0,560.89,819.52Z"/><path class="cls-5" d="M577.4,803a5.5,5.5,0,1,0,5.5,5.5A5.51,5.51,0,0,0,577.4,803Z"/><path class="cls-5" d="M593.9,819.52a5.5,5.5,0,1,0,5.5,5.5A5.5,5.5,0,0,0,593.9,819.52Z"/><path class="cls-5" d="M610.41,803a5.5,5.5,0,1,0,5.5,5.5A5.51,5.51,0,0,0,610.41,803Z"/><path class="cls-5" d="M626.91,819.52a5.5,5.5,0,1,0,5.5,5.5A5.5,5.5,0,0,0,626.91,819.52Z"/><path class="cls-5" d="M643.42,803a5.5,5.5,0,1,0,5.5,5.5A5.5,5.5,0,0,0,643.42,803Z"/><path class="cls-5" d="M659.92,819.52a5.5,5.5,0,1,0,5.5,5.5A5.5,5.5,0,0,0,659.92,819.52Z"/><path class="cls-5" d="M676.42,803a5.5,5.5,0,1,0,5.51,5.5A5.5,5.5,0,0,0,676.42,803Z"/><path class="cls-5" d="M692.93,819.52a5.5,5.5,0,1,0,5.5,5.5A5.5,5.5,0,0,0,692.93,819.52Z"/><path class="cls-5" d="M709.44,803a5.5,5.5,0,1,0,5.5,5.5A5.51,5.51,0,0,0,709.44,803Z"/><path class="cls-5" d="M725.94,819.52a5.5,5.5,0,1,0,5.5,5.5A5.5,5.5,0,0,0,725.94,819.52Z"/><path class="cls-5" d="M742.44,803a5.5,5.5,0,1,0,5.5,5.5A5.5,5.5,0,0,0,742.44,803Z"/><path class="cls-5" d="M759,819.52a5.5,5.5,0,1,0,5.5,5.5A5.5,5.5,0,0,0,759,819.52Z"/><path class="cls-5" d="M775.45,803a5.5,5.5,0,1,0,5.51,5.5A5.5,5.5,0,0,0,775.45,803Z"/><path class="cls-5" d="M792,819.52a5.5,5.5,0,1,0,5.5,5.5A5.5,5.5,0,0,0,792,819.52Z"/><path class="cls-5" d="M808.46,803a5.5,5.5,0,1,0,5.51,5.5A5.5,5.5,0,0,0,808.46,803Z"/><path class="cls-5" d="M825,819.52a5.5,5.5,0,1,0,5.5,5.5A5.5,5.5,0,0,0,825,819.52Z"/><path class="cls-5" d="M841.47,803a5.5,5.5,0,1,0,5.5,5.5A5.5,5.5,0,0,0,841.47,803Z"/><path class="cls-5" d="M858,819.52a5.5,5.5,0,1,0,5.5,5.5A5.5,5.5,0,0,0,858,819.52Z"/><path class="cls-5" d="M874.48,803a5.5,5.5,0,1,0,5.51,5.5A5.5,5.5,0,0,0,874.48,803Z"/><path class="cls-5" d="M891,819.52a5.5,5.5,0,1,0,5.5,5.5A5.5,5.5,0,0,0,891,819.52Z"/><path class="cls-5" d="M907.49,803a5.5,5.5,0,1,0,5.5,5.5A5.5,5.5,0,0,0,907.49,803Z"/><path class="cls-5" d="M918.54,824.38c2.11-1.6,4.16-3.19,6.23-4.79a3.94,3.94,0,0,0-.77-.07A5.5,5.5,0,0,0,918.54,824.38Z"/><path class="cls-5" d="M935,808.52a5.21,5.21,0,0,0,.53,2.33q4.1-3.39,8.05-6.89a5.5,5.5,0,0,0-8.58,4.56Z"/><path class="cls-5" d="M313.32,836a5.48,5.48,0,0,0-4.31,2.09c3.1,1.91,6.23,3.79,9.37,5.59a5.52,5.52,0,0,0-5.06-7.68Z"/><path class="cls-5" d="M346.33,836a5.5,5.5,0,1,0,5.5,5.5A5.5,5.5,0,0,0,346.33,836Z"/><path class="cls-5" d="M362.84,852.52a5.5,5.5,0,1,0,5.5,5.5A5.51,5.51,0,0,0,362.84,852.52Z"/><path class="cls-5" d="M379.34,836a5.5,5.5,0,1,0,5.5,5.5A5.5,5.5,0,0,0,379.34,836Z"/><path class="cls-5" d="M395.84,852.52a5.5,5.5,0,1,0,5.51,5.5A5.5,5.5,0,0,0,395.84,852.52Z"/><path class="cls-5" d="M412.35,836a5.5,5.5,0,1,0,5.5,5.5A5.5,5.5,0,0,0,412.35,836Z"/><path class="cls-5" d="M428.85,852.52a5.5,5.5,0,1,0,5.51,5.5A5.5,5.5,0,0,0,428.85,852.52Z"/><path class="cls-5" d="M445.36,836a5.5,5.5,0,1,0,5.5,5.5A5.5,5.5,0,0,0,445.36,836Z"/><path class="cls-5" d="M461.86,852.52a5.5,5.5,0,1,0,5.51,5.5A5.5,5.5,0,0,0,461.86,852.52Z"/><path class="cls-5" d="M478.37,836a5.5,5.5,0,1,0,5.5,5.5A5.5,5.5,0,0,0,478.37,836Z"/><path class="cls-5" d="M494.87,852.52a5.5,5.5,0,1,0,5.5,5.5A5.5,5.5,0,0,0,494.87,852.52Z"/><path class="cls-5" d="M511.38,836a5.5,5.5,0,1,0,5.5,5.5A5.5,5.5,0,0,0,511.38,836Z"/><path class="cls-5" d="M527.88,852.52a5.5,5.5,0,1,0,5.5,5.5A5.5,5.5,0,0,0,527.88,852.52Z"/><path class="cls-5" d="M544.39,836a5.5,5.5,0,1,0,5.5,5.5A5.5,5.5,0,0,0,544.39,836Z"/><path class="cls-5" d="M560.89,852.52a5.5,5.5,0,1,0,5.5,5.5A5.5,5.5,0,0,0,560.89,852.52Z"/><path class="cls-5" d="M577.4,836a5.5,5.5,0,1,0,5.5,5.5A5.51,5.51,0,0,0,577.4,836Z"/><path class="cls-5" d="M593.9,852.52a5.5,5.5,0,1,0,5.5,5.5A5.5,5.5,0,0,0,593.9,852.52Z"/><path class="cls-5" d="M610.41,836a5.5,5.5,0,1,0,5.5,5.5A5.51,5.51,0,0,0,610.41,836Z"/><path class="cls-5" d="M626.91,852.52a5.5,5.5,0,1,0,5.5,5.5A5.5,5.5,0,0,0,626.91,852.52Z"/><path class="cls-5" d="M643.42,836a5.5,5.5,0,1,0,5.5,5.5A5.5,5.5,0,0,0,643.42,836Z"/><path class="cls-5" d="M659.92,852.52a5.5,5.5,0,1,0,5.5,5.5A5.5,5.5,0,0,0,659.92,852.52Z"/><path class="cls-5" d="M676.42,836a5.5,5.5,0,1,0,5.51,5.5A5.5,5.5,0,0,0,676.42,836Z"/><path class="cls-5" d="M692.93,852.52a5.5,5.5,0,1,0,5.5,5.5A5.5,5.5,0,0,0,692.93,852.52Z"/><path class="cls-5" d="M709.44,836a5.5,5.5,0,1,0,5.5,5.5A5.51,5.51,0,0,0,709.44,836Z"/><path class="cls-5" d="M725.94,852.52a5.5,5.5,0,1,0,5.5,5.5A5.5,5.5,0,0,0,725.94,852.52Z"/><path class="cls-5" d="M742.44,836a5.5,5.5,0,1,0,5.5,5.5A5.5,5.5,0,0,0,742.44,836Z"/><path class="cls-5" d="M759,852.52a5.5,5.5,0,1,0,5.5,5.5A5.5,5.5,0,0,0,759,852.52Z"/><path class="cls-5" d="M775.45,836a5.5,5.5,0,1,0,5.51,5.5A5.5,5.5,0,0,0,775.45,836Z"/><path class="cls-5" d="M792,852.52a5.5,5.5,0,1,0,5.5,5.5A5.5,5.5,0,0,0,792,852.52Z"/><path class="cls-5" d="M808.46,836a5.5,5.5,0,1,0,5.51,5.5A5.5,5.5,0,0,0,808.46,836Z"/><path class="cls-5" d="M825,852.52a5.5,5.5,0,1,0,5.5,5.5A5.5,5.5,0,0,0,825,852.52Z"/><path class="cls-5" d="M841.47,836a5.5,5.5,0,1,0,5.5,5.5A5.5,5.5,0,0,0,841.47,836Z"/><path class="cls-5" d="M858,852.52a5.5,5.5,0,0,0,0,11,6.92,6.92,0,0,0,1-.09.1.1,0,0,1,.07,0l3-1.74a5.5,5.5,0,0,0-4.11-9.15Z"/><path class="cls-5" d="M874.48,836a5.5,5.5,0,1,0,5.51,5.5A5.5,5.5,0,0,0,874.48,836Z"/><path class="cls-5" d="M379.34,869a5.46,5.46,0,0,0-5.08,3.43c3.34,1.5,6.71,3,10.07,4.38a5.28,5.28,0,0,0,.51-2.31A5.5,5.5,0,0,0,379.34,869Z"/><path class="cls-5" d="M412.35,869a5.5,5.5,0,1,0,5.5,5.5A5.5,5.5,0,0,0,412.35,869Z"/><path class="cls-5" d="M428.85,885.52a5.51,5.51,0,0,0-5.5,5.5,6.23,6.23,0,0,0,0,.77h0c3.1,1.08,6.23,2.14,9.33,3.13a5.51,5.51,0,0,0-3.9-9.4Z"/><path class="cls-5" d="M445.36,869a5.5,5.5,0,1,0,5.5,5.5A5.5,5.5,0,0,0,445.36,869Z"/><path class="cls-5" d="M461.86,885.52a5.5,5.5,0,1,0,5.51,5.5A5.5,5.5,0,0,0,461.86,885.52Z"/><path class="cls-5" d="M478.37,869a5.5,5.5,0,1,0,5.5,5.5A5.5,5.5,0,0,0,478.37,869Z"/><path class="cls-5" d="M494.87,885.52a5.5,5.5,0,1,0,5.5,5.5A5.5,5.5,0,0,0,494.87,885.52Z"/><path class="cls-5" d="M511.38,869a5.5,5.5,0,1,0,5.5,5.5A5.5,5.5,0,0,0,511.38,869Z"/><path class="cls-5" d="M527.88,885.52a5.5,5.5,0,1,0,5.5,5.5A5.5,5.5,0,0,0,527.88,885.52Z"/><path class="cls-5" d="M544.39,869a5.5,5.5,0,1,0,5.5,5.5A5.5,5.5,0,0,0,544.39,869Z"/><path class="cls-5" d="M560.89,885.52a5.5,5.5,0,1,0,5.5,5.5A5.5,5.5,0,0,0,560.89,885.52Z"/><path class="cls-5" d="M577.4,869a5.5,5.5,0,1,0,5.5,5.5A5.51,5.51,0,0,0,577.4,869Z"/><path class="cls-5" d="M593.9,885.52a5.5,5.5,0,1,0,5.5,5.5A5.5,5.5,0,0,0,593.9,885.52Z"/><path class="cls-5" d="M610.41,869a5.5,5.5,0,1,0,5.5,5.5A5.51,5.51,0,0,0,610.41,869Z"/><path class="cls-5" d="M626.91,885.52a5.5,5.5,0,1,0,5.5,5.5A5.5,5.5,0,0,0,626.91,885.52Z"/><path class="cls-5" d="M643.42,869a5.5,5.5,0,1,0,5.5,5.5A5.5,5.5,0,0,0,643.42,869Z"/><path class="cls-5" d="M659.92,885.52a5.5,5.5,0,1,0,5.5,5.5A5.5,5.5,0,0,0,659.92,885.52Z"/><path class="cls-5" d="M676.42,869a5.5,5.5,0,1,0,5.51,5.5A5.5,5.5,0,0,0,676.42,869Z"/><path class="cls-5" d="M692.93,885.52a5.5,5.5,0,1,0,5.5,5.5A5.5,5.5,0,0,0,692.93,885.52Z"/><path class="cls-5" d="M709.44,869a5.5,5.5,0,1,0,5.5,5.5A5.51,5.51,0,0,0,709.44,869Z"/><path class="cls-5" d="M725.94,885.52a5.5,5.5,0,1,0,5.5,5.5A5.5,5.5,0,0,0,725.94,885.52Z"/><path class="cls-5" d="M742.44,869a5.5,5.5,0,1,0,5.5,5.5A5.5,5.5,0,0,0,742.44,869Z"/><path class="cls-5" d="M759,885.52a5.5,5.5,0,1,0,5.5,5.5A5.5,5.5,0,0,0,759,885.52Z"/><path class="cls-5" d="M775.45,869a5.5,5.5,0,1,0,5.51,5.5A5.5,5.5,0,0,0,775.45,869Z"/><path class="cls-5" d="M792,885.52A5.51,5.51,0,0,0,789.5,896h0c2.53-.9,5-1.83,7.5-2.77a5.42,5.42,0,0,0,.44-2.16A5.5,5.5,0,0,0,792,885.52Z"/><path class="cls-5" d="M808.46,869a5.5,5.5,0,1,0,5.51,5.5A5.5,5.5,0,0,0,808.46,869Z"/><path class="cls-5" d="M836,874.52a5.67,5.67,0,0,0,.13,1.17c3.17-1.61,6.32-3.24,9.42-4.89a5.5,5.5,0,0,0-9.55,3.72Z"/><path class="cls-5" d="M478.37,902A5.51,5.51,0,0,0,473,906.4c3.56.9,7.13,1.74,10.69,2.55a5.25,5.25,0,0,0,.2-1.43A5.5,5.5,0,0,0,478.37,902Z"/><path class="cls-5" d="M511.38,902a5.5,5.5,0,1,0,5.5,5.5A5.5,5.5,0,0,0,511.38,902Z"/><path class="cls-5" d="M544.39,902a5.5,5.5,0,1,0,5.5,5.5A5.5,5.5,0,0,0,544.39,902Z"/><path class="cls-5" d="M560.89,918.52a5.44,5.44,0,0,0-4.53,2.4c3.19.33,6.38.64,9.57.9A5.48,5.48,0,0,0,560.89,918.52Z"/><path class="cls-5" d="M577.4,902a5.5,5.5,0,1,0,5.5,5.5A5.51,5.51,0,0,0,577.4,902Z"/><path class="cls-5" d="M593.9,918.52a5.52,5.52,0,0,0-5.46,4.8c3.68.2,7.33.33,11,.44A5.51,5.51,0,0,0,593.9,918.52Z"/><path class="cls-5" d="M610.41,902a5.5,5.5,0,1,0,5.5,5.5A5.51,5.51,0,0,0,610.41,902Z"/><path class="cls-5" d="M626.91,918.52a5.5,5.5,0,0,0-5.5,5.48c3.7,0,7.35-.09,11-.2A5.51,5.51,0,0,0,626.91,918.52Z"/><path class="cls-5" d="M643.42,902a5.5,5.5,0,1,0,5.5,5.5A5.5,5.5,0,0,0,643.42,902Z"/><path class="cls-5" d="M659.92,918.52a5.5,5.5,0,0,0-5.37,4.29c3.5-.24,7-.48,10.48-.79A5.45,5.45,0,0,0,659.92,918.52Z"/><path class="cls-5" d="M676.42,902a5.5,5.5,0,1,0,5.51,5.5A5.5,5.5,0,0,0,676.42,902Z"/><path class="cls-5" d="M709.44,902a5.5,5.5,0,1,0,5.5,5.5A5.51,5.51,0,0,0,709.44,902Z"/><path class="cls-5" d="M742.44,902a5.51,5.51,0,0,0-5.5,5.5,5.39,5.39,0,0,0,1.13,3.32c3.3-.74,6.55-1.51,9.79-2.33a5.37,5.37,0,0,0,.08-1A5.5,5.5,0,0,0,742.44,902Z"/></g><path class="cls-6" d="M991.66,410.05c-77.6-52.62-127.21-117.84-175.84-210.78C693.17-35.13,499.92,79.42,440,239.21,388.51,376.29,419.41,415.27,326.2,572.63,253.6,695.18,149.27,803.37,223.51,922.41c66.76,107.05,181.69,71.15,276.77,1.09,181.9-134,291.35-85.42,447.07-105.21C1131.35,794.92,1205.67,555.18,991.66,410.05Z"/><rect class="cls-7" x="407" y="803" width="17.6" height="220"/><path class="cls-8" d="M590.25,264A110,110,0,1,1,550,113.75,110,110,0,0,1,590.25,264Z"/><circle class="cls-9" cx="1045" cy="748" r="55"/><rect class="cls-10" x="308" y="440" width="17.6" height="440"/><path class="cls-11" d="M995.52,713.9h0a23.1,23.1,0,0,1,6,45.41,23.54,23.54,0,0,1-6,.79,23.1,23.1,0,0,1-6-45.41,23.54,23.54,0,0,1,6-.79Zm0-4.4a28,28,0,0,0-7.14.94,27.5,27.5,0,0,0,7.1,54.06,28,28,0,0,0,7.14-.94,27.5,27.5,0,0,0-7.1-54.06Z"/><path class="cls-11" d="M594,215.6A50.6,50.6,0,1,1,644.6,165,50.66,50.66,0,0,1,594,215.6Zm0,4.4a55,55,0,1,0-55-55,55,55,0,0,0,55,55Z"/></g></g></svg>